<svg id="svg4468" xmlns="http://www.w3.org/2000/svg" viewBox="0 0 1282.95 1243.58">
  <title>Canada_blank_map</title>
  <g id="Canada">
    <path id="CA-AB" d="M288.31,1019.76c-53.52-14.13-47.76-12-50.94-19.06l-2.68-6,2.17-11.05C239.15,972,239,969.07,236,963l-6.49-12.94a150.27,150.27,0,0,1-6.73-15.5,55.74,55.74,0,0,0-5-10.71,27,27,0,0,1-3.56-8,17.45,17.45,0,0,0-3.52-6.89c-1.57-1.81-2.86-3.76-2.86-4.35a11.83,11.83,0,0,0-2.08-4c-1.2-1.69-2.48-5.75-3-9.64-.6-4.24-1.85-8-3.37-10.24a36.38,36.38,0,0,1-3.43-6.23,13,13,0,0,0-4.54-5c-3.47-2.25-4.76-5.92-2.55-7.28.55-.34,1-3.12,1-6.17,0-5.43,6.56-24.26,51.18-146.92l4-11.09,22.15,7.36c12.18,4.05,30.7,9.87,41.15,12.93l40.92,12c12.06,3.53,22,6.53,22.17,6.66.66.66-3,15.34-4,16a15,15,0,0,1-3.55,1.4c-2.51.67-13,11-13.06,12.91,0,.59,1.58,1.83,3.54,2.77,3.44,1.64,3.68,1.63,6.44-.34a10.53,10.53,0,0,0,3.52-4.09c.36-1.13.86-1.84,1.11-1.59s-1.31,7.82-3.48,16.83c-5.11,21.25-10.62,44.27-18.17,75.87-3.35,14-7.17,30-8.49,35.5-6.68,27.73-12.62,52.51-15.84,66-17,71.24-15.54,65.55-16.48,65.36C302.61,1023.52,296,1021.79,288.31,1019.76Z" fill="#d3d3d3"/>
    <g id="CA-BC">
      <path d="M75.81,967.48c-6.39-4.06-16-16.64-16-20.93,0-2.39-.59-3.21-2.94-4.09-3-1.12-5.24-5-6.55-11.22a24,24,0,0,0-2.89-6.5,53.91,53.91,0,0,1-4-8,95.18,95.18,0,0,0-5.81-11.27,45.88,45.88,0,0,1-5.32-13A68.19,68.19,0,0,0,29.69,883c-1.28-3.14-1.21-3.38,1.64-5.71,1.64-1.34,3.85-2.45,4.9-2.47,2,0,7.94,5.69,17.58,16.9,3,3.52,6,6.88,6.51,7.48s2.57,3.11,4.47,5.59,3.72,4.72,4,5c1.4,1.21,3.94,10,4.57,15.89.61,5.6,1.3,7.2,5.64,12.92,5.77,7.62,6.26,8.75,7.22,16.56a56.82,56.82,0,0,0,2.06,9.66c.74,2.08,1.07,4.05.75,4.38C87.56,970.65,79.12,969.59,75.81,967.48Z" fill="#d3d3d3"/>
      <path d="M234.31,1005.17c-.91-.27-21.51-6.67-37.5-11.65-5.51-1.72-63.95-23.63-88-33-4.12-1.61-8.85-3.41-10.5-4-3.82-1.4-4.47-2.41-4.48-7,0-2.59-.67-4.3-2.12-5.5-5.81-4.82-7.9-7.23-7.9-9.14,0-1.15-.39-2.1-.86-2.1-2.42,0-5.92-5.32-6.53-9.94-1-7.48-4.33-14-10.23-20-5.28-5.35-5.34-5.46-4.75-10.25.48-3.92.3-4.84-.93-4.84a2.14,2.14,0,0,1-1.85-.79c-.18-.43-2.47-2-5.08-3.54s-4.78-3.3-4.83-4a29.56,29.56,0,0,0-.49-3.21c-.56-2.7-.61-4.48-.46-15.21.13-9,.21-9.28,3.17-11.76,2.8-2.35,3-2.81,1.95-5.69a25.92,25.92,0,0,1-1.09-7.08c0-3-1-5.34-4-9.7-3.39-4.83-3.95-6.31-3.47-9.16a9.81,9.81,0,0,1,2.62-5.12c2.27-1.91,2.06-3.48-1.39-10.28-1.74-3.42-2-5.87-2-17,0-12.53.11-13,2.58-15.5A26.85,26.85,0,0,1,54,765.24c7.19-2.71,12.85-7.84,12.85-11.65,0-4,2.16-8.69,5.88-12.78,2.78-3.06,3.12-4.09,3.12-9.58s-.28-6.41-3-8.81C69.4,719.36,63.42,708,61.77,701.5c-1-3.85-.76-6,1.57-15.71,2.38-9.94,2.56-11.91,1.61-16.9a149.49,149.49,0,0,1-1.65-15.15c-.31-5.22-.76-10.45-1-11.6s-.7-3.86-1-6-1.91-9.52-3.54-16.4-3.2-13.51-3.47-14.74c-.31-1.4-1.87-2.82-4.17-3.78-7-2.93-7.93-2.9-9.86.37-1.3,2.19-3.43,3.61-7.85,5.2-3.34,1.21-7.85,3-10,4.07s-4,1.88-4.17,1.88a12.1,12.1,0,0,1,.65-3.25c1.35-5,.47-17-1.47-20-2.06-3.14-1.78-12.42.36-12,.73.16,10.83,6.51,22.45,14.11,31.67,20.72,66.29,41.78,83.12,50.57,8.25,4.3,15.45,8.14,16,8.53,2.72,1.92,33.57,17.54,45,22.79,7.15,3.28,22.68,9.69,34.5,14.25s21.86,8.59,22.3,9,.34,1.77-.22,3.09-5.79,15.68-11.62,31.9-12.34,34.22-14.46,40c-23.15,63-28,77.32-28,82.34,0,3-.63,6.12-1.49,7.35-2.17,3.09-.93,7.42,2.8,9.81,4.66,3,10.71,14.21,11.43,21.2A23.25,23.25,0,0,0,203,902.66c1.56,2.46,2.84,4.92,2.84,5.47s1.06,2.15,2.35,3.55A21,21,0,0,1,211.8,919c.71,2.63,1.68,5,2.17,5.32,1.27.78,5.43,9.37,6.26,12.9.39,1.65,3.91,9.49,7.83,17.42,4.12,8.34,7.13,15.72,7.14,17.5a104.94,104.94,0,0,1-1.73,12.45c-1.8,9.66-1.54,13.83,1.12,17.89C236.13,1004.87,236,1005.68,234.31,1005.17Z" fill="#d3d3d3"/>
      <path d="M5,816.47C1,807.07-.51,795.89.15,779.88.54,770.56,1.19,765,2,764a6,6,0,0,0,1.28-3.14c0-2.6,4.35-2.5,8.34.21,4.79,3.24,11.17,9.58,11.17,11.1,0,.66-4,5.42-9,10.57-10.52,11-10.66,11.53-6.51,26.51A88.22,88.22,0,0,1,9.79,820C9.82,823.48,7.25,821.58,5,816.47Z" fill="#d3d3d3"/>
    </g>
    <path id="CA-MB" d="M482,757.58l-.72,6.31c-.4,3.48-.85,7-1,7.84s-.6,4-1,7-.85,6.17-1,7-1,7.31-2,14.41c-1.63,12.17-1.64,13.09,0,15.81s1.65,2.95-1.12,6.44c-1.56,2-3.34,4.32-4,5.22s-1.47,7.47-1.84,14.63-.83,14.8-1,17-.61,8-1,13-.82,11.7-1.06,15c-1,13.73-1.45,19.41-2,27-.32,4.4-.77,10.25-1,13s-.69,9.5-1,15-.78,11.8-1,14-.63,8.72-1,14.5-.82,12.08-1,14-.65,8.67-1,15-.81,12.17-1,13c-.51,2.73-1.88,25.38-1.94,32l-.06,6.5,6,.59c9.62,1,18.8,2,21.5,2.41,1.38.2,5,.63,8,1,5.83.65,9.15,1,18,2.09,3,.36,9.78,1,15,1.31s14.08.77,19.66.94l10.13.31.63-4.81c.33-2.65.83-10.21,1.13-16.81s.74-15.15,1-19,.68-13.75,1-22c1.11-28.57,1.43-31.54,3.81-35.53,1.22-2,8.31-10.19,15.78-18.09s15.58-16.6,18-19.34l5.41-6.12c9.62-10.85,14.25-16.16,19.44-22.37,3.43-4.11,9.35-10.92,13.16-15.12s8.46-9.4,10.34-11.53,5.69-6.35,8.47-9.37,5.09-6,5.09-6.56c0-1.12-5.23-3.29-9.75-4-6.92-1.14-8.82-1.8-10-3.44-1-1.38-2.56-1.74-7.31-1.62-3.33.08-6.36.65-6.75,1.25-.81,1.24-12.37,2.68-14.62,1.81-1-.39-1.22-1.2-.69-2.66.78-2.11.61-3.35-2.22-16.75-2-9.63-2.55-12.49-3.25-18-.8-6.31-3.36-8.24-13.81-10.44-6.69-1.4-9-2.31-9.84-3.94-1.25-2.29-1.22-10.19.06-20.87l.81-6.75-5.34-.12c-2.93-.07-5.65-.21-6.06-.31s-4.12-.53-8.25-1-8.18-.92-9-1.06-4.63-.6-8.44-1-7.86-.88-9-1.06-4.76-.6-8.06-.94-9.6-1-14-1.5-10.7-1.15-14-1.47-8.1-.84-10.66-1.16Zm28.59,171.88c3.86,0,6.44,1.84,8.38,5.66a23,23,0,0,0,2.81,4.63c1.87,1.31,6.45,13.46,5.59,14.84-.54.87,1.26,6.39,3.22,9.91.69,1.23,1.14,4.61,1,7.5-.21,5.56,3.1,17.81,6.25,23.22,1.27,2.18,1.85,5.69,2.06,12.53.29,9.37.25,9.51-2.12,9.84a8,8,0,0,0-4.28,2.75c-2.16,2.75-4,3-6.06,1-1.71-1.71-1.18-8.87.88-12a15.81,15.81,0,0,0,1.84-4.87A11.24,11.24,0,0,1,532,1000c2-2.41,1.92-4.78-.19-6.09-1.65-1-2.13-.91-3.19.78-1.36,2.18-3.78,2.7-3.78.81a19.83,19.83,0,0,1,1.16-4.34c2.69-7.45-1.69-13.88-8-11.69-2.56.89-3.29.73-5-1.12a23.71,23.71,0,0,1-3.5-6.87,33.64,33.64,0,0,0-4-8c-1.74-2.31-2.34-4.16-2-6.28.4-2.73,0-3.23-4.44-5.56-6.51-3.4-9.14-2.41-9.34,3.47-.08,2.25-.29,6.34-.47,9.09-.89,13.74-.89,13.76,3.19,17,8.77,7,9.47,7.85,10.88,14a54.1,54.1,0,0,1,1.34,9.59c0,2,1.16,5.9,2.59,8.72,3.34,6.6,3.48,11.72.34,12.56-3.3.88-4.56.77-5.34-.5-.68-1.11-3.44-13.84-5.37-24.75-1.09-6.16-2.55-8.08-9.53-12.59-5.54-3.58-8.22-6.39-7.94-8.28.1-.69.24-2.13.31-3.19a5.92,5.92,0,0,1,1.5-3.28c.89-.89,1.34-3.69,1.31-8,0-6.61,0-6.6-3.84-8.75-4.28-2.4-5.84-4.67-5.84-8.47,0-2.06.49-2.56,2.47-2.56,3.71,0,5-3.19,2.5-6.31a9.29,9.29,0,0,1-2-3.62c0-1.32,4.69-3.37,7.41-3.25,2.4.11,7.59,5,7.59,7.19,0,.9,1,2.62,2.31,3.81l2.28,2.16,1.34-3.62c2.23-6.18,6.29-11.3,9.56-12.06A18.63,18.63,0,0,1,510.62,929.46Z" fill="#d3d3d3"/>
    <path id="CA-NB" d="M1058.38,1108c-2.28-.58-5-3.69-6.65-7.54a6.13,6.13,0,0,0-3.4-3.32c-4.06-1-10.47-17.71-10.53-27.42,0-3.33-.61-5-2.26-6.61-3.89-3.68-9.13-6.38-12.39-6.38H1020l-.39-6.25a36.66,36.66,0,0,1,0-7c.2-.41,3.15-.78,6.55-.83,7.35-.09,11.44-1.45,15.6-5.17,1.89-1.69,5.94-3.54,10.51-4.79,6.91-1.9,7.7-1.93,11.17-.48s3.82,1.46,5.71-.57c4.06-4.36,15.75-7.83,15.66-4.65a11.4,11.4,0,0,1-1.46,3.75c-2.12,3.7-1.91,12.21.37,15.12a16.74,16.74,0,0,1,2.59,5.69c.44,2,2.52,5,5.36,7.75,4.46,4.27,4.88,4.45,10.74,4.45,3.36,0,6.36.26,6.68.58s-1.67,2.91-4.41,5.75a48.42,48.42,0,0,0-7.53,10.51c-3.56,7.51-16.07,20.16-19.94,20.16-2.19,0-3.17.67-4.11,2.8C1071.25,1107.63,1064.7,1109.63,1058.38,1108Z" fill="#d3d3d3"/>
    <g id="CA-NL">
      <path d="M1169.93,998.16c-2.77-3.52-2.69-7.78.21-11.74,3.08-4.2,3.42-9.31.68-10.18-2.58-.82-2.54-2.9.11-7.2,1.9-3.07,2.05-4.35,1.47-12.12a276.14,276.14,0,0,1,.9-46.68c.11-1.1.54-5.59,1-10,.89-9.24,2.73-12.61,9.91-18.09,3.93-3,5-3.39,6.24-2.34,3.75,3.11,4.52,6.66,4.07,18.86-.24,6.51-.68,12.23-1,12.72a34.4,34.4,0,0,0-1.2,6.86l-.64,6,2.54-3a15.43,15.43,0,0,0,2.57-3.68c.08-1.5,4.23-1.88,7.53-.68,3.71,1.34,3.81,1.52,3.53,6.62l-.18,3.25h5c2.76,0,5.26-.39,5.55-.86s2.68-1.46,5.31-2.18a77.72,77.72,0,0,0,9.78-3.63c5-2.29,9.47-2.37,13.62-.23,2.18,1.12,3.16,6.49,1.63,8.93-1,1.63-.89,2.28.77,3.94s2.69,1.88,7,1.19c6.39-1,7.45-.62,7.45,2.7,0,2.83-2.06,6.45-5.35,9.39-1.08,1-1.44,1.75-.81,1.75s1.15,1.5,1.15,3.42a18.37,18.37,0,0,0,.61,5c.7,1.83,2.39,2.13,2.39.43,0-1.86,5-7.84,6.51-7.84.78,0,1.95,1.79,2.61,4,1.36,4.55,2.73,4.91,6.91,1.82,1.62-1.2,3.29-1.83,3.71-1.41s.87,3.77,1,7.43.31,8.34.4,10.39c.24,5.39-3.82,11.25-8,11.57-2.51.19-3.38-.27-4.29-2.28-1.44-3.16-2.14-3.16-3.83,0-2.72,5.08-4.95,1.93-6.14-8.66-.87-7.76-2-10.84-4-10.84-.48,0-.88,1.64-.88,3.65,0,3-.76,4.37-3.93,7.4-3.56,3.39-4,4.43-4.94,11-1.34,9.68-3.73,12.25-11.59,12.46-6.77.18-7.28-1.44-2-6.38,2.85-2.69,3.5-4,3.5-7.26,0-3.73-.12-3.89-2.14-2.81-3.79,2-8.15,2.93-9.34,1.94s-2.91-.23-13,5.8c-3,1.82-6.77,3.51-8.29,3.75l-6.2,1a105.18,105.18,0,0,0-13.5,4.61l-11.2,4.48C1172.56,1000.66,1171.09,999.65,1169.93,998.16Z" fill="#d3d3d3"/>
      <path d="M1045.63,926.25a20.42,20.42,0,0,0-4.13-.8,12.58,12.58,0,0,1-5.73-2.24c-1.53-1.38-3.12-1.64-7.69-1.24-7.32.63-8.07.33-8.79-3.54-1.19-6.42-1.32-7.2-1.4-8.36a5.64,5.64,0,0,0-1.61-2.71c-1.38-1.38-1.86-1.34-4.75.42a13.37,13.37,0,0,1-5.31,2c-2.54,0-6-3.49-4.47-4.46,1.14-.7,1.41-6.65.46-10.19-.36-1.34-2.13-2.75-4.74-3.76-7.37-2.86-15.15-14.94-12.64-19.64.58-1.07,1.49-2,2-2,1,0,2.78-3.84,3.3-7.25a6.88,6.88,0,0,1,2.42-3.61,11.39,11.39,0,0,0,3.11-4.29c.95-2.54,1.18-2.62,5.3-1.71a23.4,23.4,0,0,1,6.81,2.66c3.52,2.43,7.17,1.7,9.52-1.91,1.89-2.9,2.19-3,7-2.32a57.49,57.49,0,0,0,6.77.63c1.43-.06,1.69.59,1.38,3.4a12.05,12.05,0,0,1-.77,3.73c-4.45,3-7.87,6-8.31,7.43-.31,1-1.91,2.65-3.56,3.75-3.51,2.34-3.73,3.54-1,6,2.4,2.17,8.3,1.41,10.26-1.32,2.35-3.27,7.37-5.08,11-4,4.72,1.43,8.34-.26,10.42-4.88,1.76-3.9,2-9.07.42-10.61-.5-.5-1.78,0-3,1.23a7.91,7.91,0,0,1-5.52,2.1c-7.53,0-8.2-2-3.58-10.66,1.65-3.09,3-6.65,3-7.9,0-3-3.31-10.62-5.36-12.33a4.64,4.64,0,0,1-1.64-3c0-2.79-5-11.48-8.23-14.32a11.38,11.38,0,0,1-3.83-7c-.42-2.37-1.28-7.23-1.92-10.8a94.69,94.69,0,0,1-1.22-13c-.07-7.53-1.93-11.56-5.72-12.37a22.88,22.88,0,0,1-5.84-2.58c-3.62-2.25-4.21-5.24-1.75-8.76a4.42,4.42,0,0,0,.64-4.47c-.89-2.39-.85-3.31.33-8.7.76-3.44.2-3.65-8.9-3.26-2.16.09-3.69-.07-3.4-.36s-.23-3.79-1.16-7.76c-1.33-5.67-2.11-7.3-3.64-7.52a5,5,0,0,1-3-2.05c-1.42-2.28-5.54-17.27-4.92-17.9,1-1,12.68,9.26,16.73,14.82,2.37,3.26,5.08,5.92,6,5.92s2.64,1.32,3.79,2.93a22.41,22.41,0,0,0,5.45,5,15.16,15.16,0,0,1,5.51,7.07c1.38,3.21,2.76,5,3.87,5,.95,0,2.7,1.52,3.89,3.36,1.68,2.59,3.08,3.49,6.23,4,3.51.56,4.37,1.23,6.27,4.89a31.17,31.17,0,0,1,2.77,8.21c.53,3.72.86,4,5.18,5.27,2.54.72,5.38,2.15,6.32,3.19,1.55,1.72,1.58,2.32.24,6.8-1.23,4.13-1.25,5.31-.13,7.35a21.7,21.7,0,0,1,1.86,4.93c.46,2.16,2,3,11.31,6.25,5.93,2.06,11.59,3.75,12.57,3.75s3.51,1.87,5.62,4.15l3.83,4.15,8.88.41c4.89.23,10.59,1.06,12.68,1.86,3.9,1.49,6.33.95,9.38-2.1,1-1,2.79-.79,8.52.78,4,1.1,7.57,2.42,7.9,2.94,1.29,2-.38,5.69-3.12,6.82-1.55.64-5.21,3.88-8.15,7.21s-6.69,7.47-8.34,9.22l-7.67,8.12c-4.78,5.06-7,11.06-4.44,12,2.13.82,12.41-10,13.13-13.83.44-2.37,3-5.87,8.31-11.58,6.94-7.4,8-8.18,11.39-8.18,3.08,0,4.11.57,6,3.31s2.69,3.2,4.79,2.6c4.7-1.34,9.68-.95,12.11.95a86.5,86.5,0,0,0,8.39,5.18c3.3,1.82,6.13,3.4,6.29,3.51s-.25,1.38-.91,2.82c-1.68,3.7.29,9.73,4.59,14,3.28,3.28,7.53,10.4,7.53,12.61,0,1.65-6.81,12.07-10.25,15.69l-3,3.2-4.08-5.2a57.34,57.34,0,0,0-5-5.87c-.53-.37-2.57.13-4.52,1.11a49,49,0,0,1-8.8,3,120.27,120.27,0,0,0-12.5,4c-4,1.54-12.21,4.67-18.26,7s-13.15,5.06-15.78,6.15c-9.54,4-30.32,11.15-34.22,11.83-3.24.57-5.05.18-9.57-2-3.06-1.5-6-2.43-6.59-2.06s-1.08,2.47-1.15,4.67c-.16,4.94-1.24,13.86-1.74,14.38S1046,926.64,1045.63,926.25Z" fill="#d3d3d3"/>
    </g>
    <g id="CA-NS">
      <path d="M1092.47,1140.42c-5.84-1.26-8.69-4.57-11.05-12.85-1.16-4.05-1.35-6.39-.66-8.2,1.47-3.86,8.09-13.63,12.43-18.35,2.14-2.32,4.49-5.08,5.23-6.14a7.71,7.71,0,0,1,3.86-2.55c2.84-.71,11.53-6.56,11.53-7.76,0-1-4.49.7-9.81,3.8-9.25,5.4-7.95-3.37,2.21-14.9,4.46-5.07,5.52-5.77,8.6-5.67,9.53.3,20.23-1.4,23.72-3.77,2.17-1.47,4.17-2.13,5.16-1.71a25,25,0,0,0,6.25.86c5.27.19,9.44,2.51,11.11,6.18,1.07,2.34.7,3-5.3,8.95-3.54,3.54-7.12,7.15-7.94,8-3.55,3.76-12.35,10.46-14.42,11-1.32.33-3.46,2.63-5.17,5.55-2.68,4.58-3.17,4.95-6,4.52-2.59-.39-3.32,0-4.25,2a12.56,12.56,0,0,0-1.12,3.49,59.87,59.87,0,0,1-3,8.25c-2.27,5.46-4.61,8.86-9.55,13.93a93.72,93.72,0,0,1-6.74,6.57C1097.4,1141.52,1095.13,1141,1092.47,1140.42Z" fill="#d3d3d3"/>
      <path d="M1159.78,1064.46c-.84-.67-3.71-3.58-6.38-6.46-3.56-3.84-4.58-5.58-3.83-6.5.56-.69,2.41-5.42,4.11-10.52,3.44-10.32,6.69-17.24,8.09-17.24,1.77,0,4,4.47,4.05,8,0,5.7,1,7.81,3.83,8.51,3.48.86,8.16,5.36,8.16,7.86,0,1.09-1.4,4.15-3.1,6.81-2.25,3.51-3.74,4.84-5.43,4.84-1.45,0-3.14,1.14-4.46,3C1162.44,1066.06,1162,1066.22,1159.78,1064.46Z" fill="#d3d3d3"/>
    </g>
    <g id="CA-NT">
      <path d="M200.87,366a63.52,63.52,0,0,0-7.62.72c-5.37.68-10.36,1.44-11.09,1.72-1,.37-1.2,1.87-.84,5.34.58,5.63-.7,7.1-3.06,3.5-.91-1.39-2-2.53-2.34-2.53-1.67,0-16.2,26.31-19.06,34.5a84.2,84.2,0,0,1-4.59,11.22c-2.3,3.52-1.75,4.52,4.84,9,14,9.51,14.38,10.47,8.63,22.28-2,4.13-3.89,9.38-4.16,11.69-.45,3.91-.21,4.41,3.41,7.31,2.14,1.72,3.69,3.46,3.44,3.88a30.45,30.45,0,0,0-.72,6.53c-.25,6.17-1.44,8.21-5.47,9.22-2.83.71-4.41,3.14-4.41,6.81,0,1.41-.42,2.56-.91,2.56s-1.17,1.18-1.53,2.63a4.57,4.57,0,0,0,1.38,4.81c1.43,1.52,2.06,3.54,2.06,6.62a24.38,24.38,0,0,0,2.41,9.38c1.65,3.41,2.24,6,1.88,8.22a11.55,11.55,0,0,0,1.53,7.22c2,3.89,2,4,.25,9.88a165.53,165.53,0,0,0-5.47,29.75,70.1,70.1,0,0,1-1.12,9c-.38,1.3.19,2.92,1.56,4.5,2.66,3.06,4.27,6.86,5.94,14,1.5,6.4,3.43,10.6,6.31,13.75l2.06,2.25L172,624a8.58,8.58,0,0,0-2.19,6.06,15,15,0,0,1-1.06,5.72c-.95,1.77-.41,2.26,5.25,4.84a84.34,84.34,0,0,1,10.16,5.5c3,2.08,4.54,2.48,7.25,2,4-.76,3.76-1.78,3.84,14.44l.06,12.34,11,4.44a1221.14,1221.14,0,0,0,118.5,40.38c11.82,3.37,28,8.09,36,10.5s15.85,4.65,17.5,4.94,9.75,1.89,18,3.56,16.24,3.26,17.75,3.53,7.36,1.42,13,2.53,11.6,2.24,13.25,2.53,9.3,1.82,17,3.38c15.77,3.19,21.45,3.66,21.56,1.78,0-.69.24-2.09.44-3.12s.64-5.76,1-10.5.83-9.75,1-11.12.62-5.42.94-9c.91-10.21,2.49-26.51,3-31.5.18-1.65.64-7,1-12s.83-9.67,1-10.5.63-5.33,1-10,1.06-12.22,1.59-16.78.73-8.71.44-9.19-6.95-4.21-14.78-8.31C459,611.78,442,602.79,429.37,596l-8.91-4.78-6.16-10-6.16-10-11.31-2.41-11.31-2.44-9.69-13.06c-5.33-7.2-13.74-18.72-18.69-25.59s-14.73-20.3-21.72-29.84-13.4-18.42-14.25-19.72c-1.45-2.21-1.31-3,2-11.66,12.34-32.61,12.31-32.45,6.09-40.59-1.88-2.47-3.44-4.87-3.44-5.34a1,1,0,0,0-1.09-.84,10.48,10.48,0,0,1-3.75-1.87,17.18,17.18,0,0,0-6.66-2.34c-3.42-.4-4.59,0-8.12,2.91s-4.49,3.2-6.75,2.34c-3.34-1.27-3.29-2,.34-5.5,1.63-1.56,2.66-3.33,2.28-3.94s-.71-3.42-.72-6.28c0-8.66-1.39-8.67-10.09,0a101,101,0,0,1-8.12,7.66c-.72,0-3.8-3.28-3.94-4.19-.07-.45-.18-6.59-.25-13.66-.12-12.74-.16-12.85-2.69-14-3.59-1.64-5.25-1.46-8.22.88-1.92,1.51-3.83,2-7.37,1.84-3.24-.15-4.51-.59-3.94-1.31a11.37,11.37,0,0,0,1.34-3.87c.45-2.51,0-3-4.13-5.12C249.3,371,242,370.46,235.81,372a125.08,125.08,0,0,1-13,1.22c-7.65.44-10.69,1-11.28,2.06-.45.8-2.16,1.44-3.78,1.44-2.8,0-2.92-.21-2.94-4.25C204.79,367.65,204.6,366.05,200.87,366Zm82.84,140.16c26,.09,28.09.46,28.09,4.63,0,1-2.14,3.56-4.75,5.78q-4.75,4-3.75,5c1.19,1.19,15,6.75,21.81,8.81,4.7,1.41,4.79,1.54,4.13,4.66-.74,3.44-2.16,5.69-3.59,5.69a19.55,19.55,0,0,0-4.81,2.59l-3.94,2.59-5.78-2.69c-3.19-1.48-6.66-3.14-7.69-3.69-2.5-1.33-3.94.32-6.06,6.88-2,6.24-2.4,6.57-10.28,9.22a55,55,0,0,1-7.25,2.09c-1.88,0-1.06-2.89,1.75-6.22,5.85-6.93,5.78-6.78,2.41-6.78a10.52,10.52,0,0,0-6.06,2.56c-4.92,4.14-8.68,4.75-13.19,2.16-2.11-1.21-4.34-3.34-5-4.72-1.07-2.34-.7-2.92,5.91-9.22,3.89-3.71,9.07-7.7,11.5-8.84s4.64-2.91,4.91-3.94c.76-2.89-3.24-6-7.84-6.09a44.82,44.82,0,0,1-10.34-2.25c-5.26-1.78-6.49-2.6-6.78-4.59-.2-1.34.13-2.73.72-3.09S270.07,506.09,283.71,506.14Zm34,128.59c.41,0,2.25,2.07,4.06,4.59a57.68,57.68,0,0,0,6.81,7.75c5.38,4.82,9.34,9.3,11.81,13.41,2,3.27,3,3.9,8.88,5.38,6.2,1.56,7,1.57,12.5,0,3.95-1.12,6.56-2.57,8-4.44,3-3.87,6.79-5.55,13.09-5.91,5.36-.31,5.41-.28,5.22,2.47-.28,4-4.23,8.47-8.56,9.72-2.06.59-5.66,2.93-8,5.19a45.85,45.85,0,0,1-10.75,7c-3.57,1.62-8.21,3.86-10.31,5s-4.88,1.81-6.34,1.53c-1.8-.34-3.45.32-5.69,2.28a30.75,30.75,0,0,1-7,4.38,17.32,17.32,0,0,1-6.5,1.41c-18.46-1.65-20.2-2.29-29-10.5-8-7.4-7.87-9.28.44-9.28,3.08,0,6.47.46,7.53,1,2.27,1.21,5,.07,9.22-3.87,2.2-2.05,3.59-2.51,6.78-2.28,4.59.33,6.94-1.12,6.94-4.31,0-3-4.07-14.7-7.69-22.12Q315,634.74,317.71,634.74Z" fill="#d3d3d3"/>
      <path d="M424.31,442.72c-7.15-2.08-18.4-5.4-25-7.37s-15.6-4.6-20-5.84c-7.52-2.12-7.79-2.29-4.5-2.82a114.09,114.09,0,0,1,14.5-.13c8.91.35,11.87.87,15.57,2.74,4.59,2.31,16.8,5.91,17.55,5.17.22-.22-2.29-3-5.57-6.09-6.25-6-11.08-8.61-15.76-8.64-3.55,0-19.3-4.13-25.67-6.69-4.64-1.86-5-2.27-6.74-7.88a52,52,0,0,1-1.86-7.12c0-1.09,4.67-2.75,18-6.38l4.5-1.23-3.5-.81a57.47,57.47,0,0,0-6.34-1.06c-3-.27-6.27-4.79-5.28-7.38a1.87,1.87,0,0,0-.7-2.16,14.76,14.76,0,0,1-3-3.59c-2.36-3.71-1.5-7.38,2.8-11.94,4-4.2,5.53-6.9,5.53-9.49,0-5.08,14.83-13.17,29.64-16.17,5.42-1.1,11.94-2.27,14.48-2.61,4.45-.59,4.67-.5,5.67,2.36,1.24,3.57.14,9.31-2.91,15.17-1.17,2.24-1.86,4.35-1.53,4.68s2.64-1.08,5.14-3.12l4.54-3.72,6.24,3.57a77.23,77.23,0,0,1,8.66,5.63l2.43,2.06-2,4.81-2,4.81,4.11-.92a16.18,16.18,0,0,0,4.77-1.61c.37-.38,0-2.65-.82-5s-1.34-4.44-1.17-4.55c4.25-2.73,5.8-3.44,6.18-2.82.55.88-21.19,88.42-22.19,89.36C437.61,446.22,431.46,444.8,424.31,442.72Z" fill="#d3d3d3"/>
      <path d="M325.37,377.6c-.25-.75-.91-5.24-1.46-10-.91-7.86-1.49-9.44-6.55-17.88-3.05-5.09-5.54-9.76-5.53-10.37,0-1.56,3-4.95,6-6.83,1.38-.87,5-5.56,8-10.44a112.35,112.35,0,0,1,7.38-10.86c1-1.1,5.21-6.42,9.26-11.82,7.05-9.4,7.38-10.07,7.49-15.5.07-3.12,0-6.29-.07-7-.25-1.79,2.83-5.12,4.29-4.64a39,39,0,0,0,4.85.82,45.32,45.32,0,0,1,9,2.54,91.69,91.69,0,0,0,9.48,3.14c3.42.85,4.38,1.63,5.29,4.27.61,1.78,3.54,5.68,6.5,8.68,5.37,5.43,5.42,5.45,11.21,5.3,8.16-.22,9.27,1,13.93,15.29,5.91,18.16,5.13,20-10,23.67-7,1.68-13.87,4.69-15.59,6.79a14.6,14.6,0,0,1-3.55,1.84,22.39,22.39,0,0,0-5.51,3.44c-1.35,1.22-5.48,4.46-9.17,7.21-5.36,4-7.44,6.36-10.3,11.74-2,3.71-4.56,7.27-5.77,7.92s-2.2,1-2.2.87-1.2-.06-8.5,1.55c-1.37.3-6,.79-10.24,1.09C327.57,378.83,325.72,378.65,325.37,377.6Z" fill="#d3d3d3"/>
      <path d="M441.43,302.66c-2.54-2.79-4.62-5.89-4.62-6.89,0-2.48,3.95-4.85,10.24-6.16,10.12-2.11,13.08-5.38,4.87-5.38-3.32,0-4.62-.53-6.09-2.47-1.79-2.38-1.94-2.41-3.82-.71-2.38,2.15-8.13,2.84-10.91,1.31s-12.21-12.69-12.93-15.42c-.65-2.48,1.93-6.21,4.29-6.21.74,0,1.38-.34,1.42-.75a10.48,10.48,0,0,1,3.35-7.18c1.41-1.48,2.57-3.57,2.57-4.65,0-2.67,5.71-9.42,8-9.42,1,0,2.55-1.12,3.45-2.5,1.37-2.1,2.42-2.5,6.48-2.5,6.41,0,10.11,2.76,10.11,7.56,0,2.85.63,3.83,3.82,5.94,5.12,3.39,7.5,8.46,7.69,16.39.17,7,1.64,9.1,6.43,9.13s5,.71,1.74,14.23c-2.25,9.31-3.49,12.75-4.59,12.75-.83,0-4.07,1.8-7.21,4-5.33,3.74-6.16,4-12.67,4h-7Z" fill="#d3d3d3"/>
      <path d="M410.59,258.05c-1-.25-2.18-2.1-2.75-4.13-1.39-5,.7-7.65,8.39-10.78,6.68-2.71,8.9-3,10.32-1.15,1.82,2.31.95,4.91-2.55,7.59-1.91,1.46-5.08,4.12-7,5.91s-3.81,3.2-4.11,3.13S411.53,258.3,410.59,258.05Z" fill="#d3d3d3"/>
      <path d="M401.38,241.17a6.48,6.48,0,0,1-1.57-4c0-2.28-.34-2.43-5.5-2.43-8.89,0-11.75-4.37-7.25-11,1.65-2.44,3.46-3.64,6.76-4.48a47.16,47.16,0,0,0,9.32-3.83c2.64-1.47,5.18-2.45,5.64-2.16s4.08-2.52,8-6.23c9.18-8.61,10.72-9.38,18.27-9.21a62.25,62.25,0,0,0,8.71-.31c3-.53,7.5,1.54,8.38,3.82a10.74,10.74,0,0,1-5,13.26c-1.07.6-1.82,2.71-2.14,6-.46,4.79-.77,5.28-4.85,7.67-2.4,1.4-4.81,3.41-5.37,4.45-1.33,2.48-4.73,3.52-6.57,2-2.21-1.83-1.86-8.63.55-10.69a6.07,6.07,0,0,0,2-2.48c0-1.22-3.67,2-13.59,12C407.59,243.14,404.73,244.52,401.38,241.17Z" fill="#d3d3d3"/>
      <path d="M479.15,213.78c-3.24-1.45-4.37-2.75-6.16-7a32.37,32.37,0,0,1-2.19-6.62,4.09,4.09,0,0,0-2.06-2.62c-5.39-3.3-7.67-12.76-3.08-12.76,2,0,5.14,3,5.14,4.94,0,.93.89,1.09,3.25.56,4.23-.94,21.56-1.79,23.25-1.14,1,.39,1.09,1.46.32,4.82-.55,2.37-1.17,5.22-1.38,6.32-1.49,7.58-2.85,11.56-4.45,13C489.17,215.63,483.78,215.85,479.15,213.78Z" fill="#d3d3d3"/>
      <path d="M496.81,184.86c0-.48-1.32-1.42-2.93-2.09a15.48,15.48,0,0,1-4.69-3.16,4.1,4.1,0,0,0-4.48-1.35c-1.49.33-3,.13-3.35-.43-1.53-2.48,6-9.09,8.57-7.51a2.46,2.46,0,0,0,2.43-.62c1.26-1,8.94-.89,9.91.21s-3.06,15.83-4.18,15.83C497.38,185.74,496.81,185.34,496.81,184.86Z" fill="#d3d3d3"/>
    </g>
    <g id="CA-NU">
      <path d="M501.31,500.81c-4.9-1.18-12.27-5.44-17.56-10.16a32.61,32.61,0,0,0-6.92-4.4c-2.21-1-4.08-2.42-4.15-3.16s-.18-1.91-.25-2.6c-.22-2.23-4.39-2.07-5.11.2-.94,3-6,5.23-12.93,5.82-3.3.28-6.58,1.08-7.29,1.79-3,3-8.41,3.7-22.69,3-21.25-1-27.56-2.09-27.66-4.81,0-.7-.24-3.07-.46-5.27s-.62-6.65-.87-9.89c-.53-6.79-2.34-9.21-7.6-10.12-6-1-18-9.5-18-12.65a9,9,0,0,0-.16-1.59c-.09-.41-1-4.35-2-8.75s-1.82-8.31-1.84-8.68c0-.76.2-.69,43.33,12.12,17,5,31,9,31.2,8.82s5.34-20.35,11.45-44.81,11.33-45.13,11.61-46,2.3,3,4.49,8.5c3.87,9.71,4,10.26,3.56,19.72-.49,11.44.62,14.48,4,11.06,1.72-1.72,2-3.07,1.69-9.4-.18-4.06-.53-13-.78-19.79l-.46-12.4,3.17-3.32c3-3.1,3.43-3.26,7.08-2.42a13,13,0,0,1,6.31,3.72c2.32,2.72,2.35,2.73.81.19a28,28,0,0,1-2.45-5.62c-1.22-4.24,2-7.85,7.93-9,5.34-1,9.29.81,13.43,6.23,3.76,4.94,2.8,9.1-4.09,17.62l-5.49,6.79.24,12.53c.26,14,1.19,22.26,3.16,28.11,1.22,3.63,1.14,4.4-1.07,9.3-1.74,3.87-2.25,6.33-1.82,8.95.89,5.5,7.17,13.72,16.35,21.38,10.58,8.84,14.32,15.59,12.12,21.89-1,3-1.1,3-6.69,2.37-3.1-.35-6.07-1-6.59-1.54a3.63,3.63,0,0,0-2.14-.9c-2.63,0-2.19,3.3,1.12,8.47,5.51,8.62,4.4,14-3.68,17.81C509.85,501.81,506.39,502,501.31,500.81Z" fill="#d3d3d3"/>
      <path d="M779.92,954c-5.13-2.05-6.11-2.83-6.11-4.87,0-2.74.55-3,7.44-3.77,4.6-.5,5.13-.32,7.79,2.66,3.67,4.11,3.5,8.08-.37,8.28C787.22,956.36,783.28,955.32,779.92,954Z" fill="#d3d3d3"/>
      <path d="M570.72,764.35a57.32,57.32,0,0,0-8.42-1.09,83.83,83.83,0,0,1-8.5-1,83.85,83.85,0,0,0-8.5-1c-4.4-.39-8.22-.84-8.5-1a61.37,61.37,0,0,0-7-.94c-3.57-.36-8.53-.88-11-1.15-9.41-1.05-12.83-1.41-24-2.5-11.62-1.14-13.37-1.52-12.62-2.75a82,82,0,0,0,1.12-10.18c.39-5.22.83-10.17,1-11s.58-5.33.94-10,.84-9.62,1.07-11,.67-5.65,1-9.5c.68-8.37,1.41-16.36,2-22.5.26-2.47.67-6.75.92-9.5,1.63-18,2-22.25,3.08-32,.35-3.3.71-7,.8-8.29.13-1.9-1.21-3-7.84-6.54-10.13-5.38-28.66-15.18-43.5-23-6.32-3.33-13.3-7-15.5-8.23-3.87-2.11-5.93-4.71-13.61-17.14l-3.61-5.84-11.42-2.4-11.42-2.4-5.56-7.59c-3.06-4.17-14.72-20.19-25.92-35.59s-23-31.57-26.16-35.93-5.81-8.41-5.81-9c0-1,12.92-36.62,13.56-37.4,1.2-1.46,10.89,7.28,14.82,13.37,2.65,4.11,10,10.32,14.75,12.47,2,.91,3.14.92,4.81,0,1.91-1,2.75-.71,6.58,2.42a42.07,42.07,0,0,1,6.3,6.32c2.36,3.36,6.19,12,6.19,13.92,0,2.57-2.57,4.11-8,4.8s-10,2.88-10,4.8a13.59,13.59,0,0,0,2.2,4.29c1.87,2.73,3.71,3.67,12.25,6.28,15.79,4.81,18.82,5.29,26.08,4.13a48.18,48.18,0,0,0,9.1-2.24c2.38-1.09,2.81-1,4.26,1.24.88,1.35,4.31,6,7.61,10.33,7.8,10.25,10.38,15.25,9.84,19.11-.32,2.31-.17,2.69.6,1.56.63-.93.79-5.38.42-11.69l-.6-10.19,10.56-5.25c6.06-3,10.75-6,11-7,.42-1.62.2-1.61-3.68,0a78.48,78.48,0,0,1-9.39,3.11c-4.9,1.25-5.44,1.2-8-.71-6.75-5-1.06-14.59,9.09-15.25a45.31,45.31,0,0,0,9-1.94,24.14,24.14,0,0,1,7.93-1.35c3.31.41,6,4.14,6.26,8.56a19.2,19.2,0,0,0,1.9,6.5c2.49,4.81,10.13,12.12,12.8,12.26a25.59,25.59,0,0,1,3.28.35c.55.13,1.51.3,2.13.38s3,3,5.28,6.51l4.14,6.36,6.12.64c3.37.35,9.09.64,12.73.64a59.75,59.75,0,0,1,13.6,2l7,2s.09-1.64.2-3.65a28.71,28.71,0,0,1,1.75-7.52,22.11,22.11,0,0,0,1.55-6.49c0-2.53.14-2.6,4.6-2a60.3,60.3,0,0,1,18.68,6.26c2.87,1.44,5.38,2.76,5.57,2.93s-3.37,13.91-5.4,20.23c-.23.71.65,1.69,1.95,2.18a7.93,7.93,0,0,1,3.62,4.22l1.26,3.32.68-3a9,9,0,0,0-.85-6c-.91-1.78-1.55-5.75-1.57-9.78,0-7.18,1-8.92,4.6-8s10.61-2.64,13.82-7c2.54-3.45,3-5.06,3-9.78,0-4.38-.45-6.05-2-7.46-2.3-2.08-2.79-9.31-.77-11.33,1.71-1.71-4.44-7.26-10.14-9.14-3.44-1.13-5-2.48-7.77-6.87-3-4.65-3.49-6.31-3.46-11.28,0-3.2.5-6.71,1.08-7.79.82-1.53.46-3.33-1.63-8.16l-2.69-6.19,1.94-5.61c1.63-4.73,2.6-6,6.14-7.92,3.85-2.12,4.11-2.51,3.13-4.68s-.61-2.94,2.29-6.54c7.83-9.68,7.11-9.12,10.73-8.38a5.54,5.54,0,0,1,4.5,3.36,22,22,0,0,0,4.91,6c6.81,6,7.78,8.07,8.17,17.79.34,8.55.49,9,5.46,17.29,6.24,10.38,6.92,16,1.69,14-2-.77-2.17-.58-1.77,2.16a18.78,18.78,0,0,1-.89,7c-1.25,3.78-1.19,4.14.88,5.82,1.84,1.49,2.83,1.62,5.9.77,3.83-1.06,7.19-.43,14.85,2.77,3.17,1.32,3.52,1.76,2.34,2.92-.77.75-3.42,1.64-5.89,2-7,1-7.56,2.64-2.91,9.41,3.67,5.35,4.49,8.07,4.86,16.11.19,4.25,1.76.18,2.5-6.5,1.15-10.4,2.51-13.58,6.47-15.24l3.52-1.47,6.72,7.35c4.7,5.14,7,8.61,7.78,11.55,1.6,6.27,1.31,10.07-.93,12.31a7.9,7.9,0,0,0-2,4.85c0,2.92,1.84,9.25,2.95,10.15a57.94,57.94,0,0,1,3.94,5.75c1.83,2.89,3.62,5.25,4,5.25,1.55,0,5.31-3.37,6.1-5.46a45,45,0,0,0,1.46-8.15,34.46,34.46,0,0,1,2-8.89,89,89,0,0,0,3.45-10.05,48.86,48.86,0,0,1,5-11.5c3.57-5.28,3.78-7.54.94-10.56-2.38-2.54-5.28-14.54-4.29-17.79,1.3-4.27,3.45-5.59,9.07-5.59,4,0,6.75.74,11,3,3.09,1.65,6.52,3,7.61,3s3.43,1.53,5.19,3.39a33.1,33.1,0,0,0,7.55,5.61c4.21,2.15,7.88,5.56,8,7.38,0,.49-.71,1.43-1.61,2.09-1.51,1.1-1.47,1.44.45,4.11a19,19,0,0,1,2.73,6.53c.59,3.36.42,3.7-2.37,4.67a8.41,8.41,0,0,0-4.12,3.13,4,4,0,0,1-3.08,2.08c-2.65,0-2.47,1.91.52,5.38a15.86,15.86,0,0,1,3.1,6.19,8.59,8.59,0,0,0,3.88,5.54c7.08,4.85,7.09,14.89,0,27-8.38,14.32-9,15-13.31,14.53a17.15,17.15,0,0,1-6.51-2.11l-2.65-1.74,1.57,3.76c1.74,4.17.65,6-3,4.84s-5.15-1.1-6.72.27c-1.36,1.19-2.09,1.18-5,0a13.41,13.41,0,0,1-4.91-3.56c-1.27-1.79-2.13-2-5.5-1.46a25,25,0,0,0-5.77,1.59c-1.59.83-1.39,1.29,1.84,4.34s3.57,3.68,2.91,7.62c-.51,3-2.21,6-6.07,10.53-2.95,3.48-5.65,7.45-6,8.83s-1.14,2.52-1.77,2.52.14,1,1.7,2.28c2.4,1.92,2.8,2.89,2.54,6.24a16.7,16.7,0,0,1-1.91,6.47c-.88,1.38-2.5,3.85-3.59,5.5s-4,6.48-6.43,10.73c-5.06,8.8-6.7,9.77-16.44,9.77-7.16,0-9.16,1.45-9.68,7-.32,3.44-.4,3.5-4.83,3.44a44.12,44.12,0,0,1-7.23-.68c-4-.91-4.27.76-.53,3.34,1.79,1.24,3.43,2.38,3.64,2.54,1,.79,1.16,8.72.17,11.73-1.32,4-5,5.94-12,6.23-7.85.33-7.48.15-5.8,2.66,1.42,2.12,1.29,2.45-2.13,5.78a80.4,80.4,0,0,0-13.62,18,27.66,27.66,0,0,1-4.5,6.5c-2.64,2.38-5,6.72-5,9.16,0,1-2.33,6.69-5.18,12.71-4.34,9.19-5.16,11.81-5.07,16.29l.11,5.34h-4.27A17,17,0,0,1,570.72,764.35Z" fill="#d3d3d3"/>
      <path d="M772.66,709c-5.33-3.31-5.11-13.08.42-19.07,2.25-2.43,4.79-2.26,8,.53s1.62,14.4-2.49,18.23C776,711.12,776,711.12,772.66,709Z" fill="#d3d3d3"/>
      <path d="M720.87,697.85c-2.32-4.34,1-14.18,5.84-17.51,3.91-2.66,5-2.9,12.73-2.73,4.7.11,5.23.36,6.36,3.1s1,3.42-1.91,7.89c-4.17,6.49-10.11,10.37-16.73,10.93C722.69,699.91,721.85,699.69,720.87,697.85Z" fill="#d3d3d3"/>
      <path d="M698.56,676c-1.37-.3-1.75-1.42-1.75-5.11,0-2.6-.54-5.27-1.2-5.93s-3.7-1.24-6.75-1.3c-11.81-.21-13.64-2.76-7.09-9.86,3.76-4.08,4.43-5.87,4.26-11.55-.58-19.65,0-25.89,3.91-41.18,1.22-4.78,1.59-5.23,4.82-5.84,3-.57,3.8-.29,5.78,2.18a35.08,35.08,0,0,1,4,7.08c1.5,3.63,2.19,4.25,4.75,4.3,2,0,5.89,2.08,11.5,6,4.68,3.26,11.3,7.85,14.73,10.2s6.24,4.94,6.26,5.76,1.13,3.3,2.49,5.5,2.48,4.79,2.49,5.76c0,1.53.72,1.68,5.28,1.16,4.72-.54,5.62-.31,8.94,2.24s3.65,3.3,3.35,6.34c-.51,5.16-1.2,6.28-5.31,8.61-3.73,2.11-3.73,2.11-8.23.17a16.16,16.16,0,0,0-8.17-1.47c-2.92.38-4.12,0-5.82-1.81-1.18-1.26-2-3.08-1.83-4.06.47-2.61-8.54-7.22-10.67-5.45a5.22,5.22,0,0,0-1.51,3.57A15.58,15.58,0,0,1,718,661.8a64.82,64.82,0,0,0-4.93,5.64c-3.14,4.15-7,8.27-8,8.42A19.7,19.7,0,0,1,698.56,676Z" fill="#d3d3d3"/>
      <path d="M567.2,518.39c-3.35-1.09-7.63-3.92-11.9-7.87-1.65-1.53-3.38-2.78-3.85-2.78-2,0-6.65-4.3-6.65-6.1,0-2.51,15.85-23.9,17.72-23.9,2.51,0,11.72,9.69,14.4,15.16,4.06,8.28,6.88,16.11,6.88,19.09,0,2-1,3.35-3.84,5.26C576,519.87,572.66,520.17,567.2,518.39Z" fill="#d3d3d3"/>
      <path d="M938.55,669.15c-.18-.18-6.52-.6-14.09-.92-10.83-.46-14.2-1-15.85-2.29-1.15-.93-3.52-2.91-5.27-4.39-2.66-2.26-4-2.64-8.11-2.41-5.46.31-8.72-.62-19.18-5.49-6.29-2.93-7.21-3.72-8.36-7.2s-1.1-4,.4-4.86c1.86-1,2.29-2.85.67-2.85-.56,0-3.26-1.54-6-3.42a30.73,30.73,0,0,0-8-4.08,6.71,6.71,0,0,1-4.49-3.5c-2.21-4.27-7.31-7.42-13-8-4.21-.43-5.3-.16-7.2,1.75-1.64,1.64-3.41,2.25-6.58,2.25-3.68,0-5,.61-8.63,4l-4.29,4h-8.29c-13.79,0-16.9-2.53-18.2-14.79-.45-4.27-.21-5,2.58-7.64,2.38-2.27,3.08-3.8,3.08-6.71,0-2.58.56-4.07,1.75-4.71,1-.51,7.09-1,13.62-1.08,10.76-.13,12.16-.36,15-2.49,4.44-3.32,9.17-5.58,11.7-5.58,1.78,0,2-.4,1.5-2.25a53.05,53.05,0,0,1-1.49-5.87c0-.34-1.93-1.84-4.2-3.34-3.87-2.56-4.09-3-3.6-6.57a24.52,24.52,0,0,1,2-6.66c.8-1.55,3.78-7.39,6.63-13l5.17-10.17-2-7.07c-1.87-6.73-7.7-16-12.63-20.12a28.06,28.06,0,0,1-4.12-5.22,22.88,22.88,0,0,0-7.32-6.51c-3.94-2.19-5.1-3.44-5.77-6.24-.75-3.14-1.14-3.46-3.8-3.16a9.88,9.88,0,0,0-4.46,1.63,37.77,37.77,0,0,1-5.65,3.38c-3.55,1.79-4.32,1.88-5.33.66-1.68-2-.34-5.54,3.32-8.74,3-2.66,3.07-2.76,1.14-4.22-2.54-1.92-3.88-1.92-7.62,0q-5.86,3-5.86-2.39c0-1.93.67-3.18,2-3.78,1.89-.84,1.7-1.23-2.75-5.57-8.13-7.92-12.73-11.56-14-11.11-.69.24-1.25,2-1.25,3.86v3.42l-10.25.23c-5.64.13-13.23.18-16.87.1-5.58-.11-6.6.13-6.5,1.52s-1.06,1.63-8.38,1.54c-4.68-.06-13.22-.45-19-.87-6.43-.47-11.89-.38-14.09.23-4.42,1.23-7.75-.85-9.48-5.92-1-2.85-1.55-3.3-4-3.08-11.8,1-12.37,1-15.37-1.23-6.62-4.88-12-12.68-12-17.35,0-1.5,1-2,4.64-2.53a78,78,0,0,1,8.71-.64c3.49,0,3.87-.19,2.61-1.37-2.17-2-7.69-3.63-12.51-3.63-3.1,0-4.44-.47-5-1.75a49.89,49.89,0,0,1-2.95-17c1.25-20.59,1.64-22.93,5.94-35.44,6.24-18.18,10.88-26.59,16.51-30,8.94-5.33,23.42-3.85,25.14,2.57.67,2.49.28,3.48-2.62,6.69a18.15,18.15,0,0,0-4.11,7.58,20.37,20.37,0,0,1-2.2,6.1c-1.81,2.78-4.34,13.19-3.53,14.51.32.52.72,4.25.88,8.3.33,8.23.75,9.4,3.39,9.4,1.17,0,2.08-1,2.52-2.75a12.62,12.62,0,0,1,2.32-4.56c1.31-1.46,1.39-2.14.42-3.5a18.66,18.66,0,0,1-3.63-11.53c-.06-3.73.4-5.22,2-6.5a10.24,10.24,0,0,0,2.72-3.41c.37-1,1.13-1.75,1.7-1.75s1-.91,1-2c0-3.57,7.61-14.39,11.77-16.72,4.42-2.48,14-4.26,17-3.15,1.8.67,3.5,3.22,9.56,14.4,3.82,7.05,6.66,14.85,6.14,16.9-.71,2.84,3,7.6,5.89,7.6a29.41,29.41,0,0,0,6-1.06c3.13-.87,3.69-1.4,3.17-3-1.08-3.42,5-8.34,12.09-9.84,5.64-1.18,6.3-1.13,9.5.82a14.92,14.92,0,0,0,5.93,2.13c3.12,0,7.53,3.66,8.5,7s3.43,6,5.57,6c1.27,0,1.94,1.11,2.43,4,.37,2.2,1.07,4,1.54,4s3.37,2.49,6.43,5.52c4.58,4.55,5.66,5.21,6.12,3.75.3-1,1.19-3.24,2-5,1.57-3.61,2.52-3.66,11.19-.57,3.63,1.29,4.57,2.24,6.38,6.45,1.25,2.9,3.28,5.62,4.91,6.58a12.18,12.18,0,0,1,3.93,3.78c2.1,3.92,4.54,4.7,7.47,2.39,3.19-2.51,5.61-2,11.46,2.19,3.73,2.7,4.2,3.46,3.63,5.78-1.72,6.93-1.79,8.25-.41,8,.75-.16,2.15-1.53,3.1-3,2.52-4,5.59-3.54,10.44,1.5,4.59,4.77,6.75,8.29,6.89,11.25.27,5.57.58,6.2,3.89,7.78a12.58,12.58,0,0,1,5,4.64l1.55,3-4.57,2.68c-3.76,2.2-5,2.49-6.9,1.61-3.1-1.41-3.79-.51-1.86,2.44,1.51,2.31,1.45,6.44-.16,10.51-.87,2.19,2.49,5.24,7.37,6.7a34.09,34.09,0,0,1,7.72,3.8,17.5,17.5,0,0,0,7.39,2.81,21.42,21.42,0,0,1,6,1.2c1.38.57,5.11.85,8.3.61l5.8-.44,5.37,5.59c4.71,4.9,5.87,5.6,9.45,5.71,2.25.07,4.63.18,5.3.25s1.51,1.61,1.88,3.43a12.14,12.14,0,0,0,1.33,4c.36.36,3.78-.43,7.6-1.76l6.95-2.41,3.77,2.15c3.52,2,3.79,2.5,4.08,7.4.38,6.47-.17,8.82-2.79,11.84-1.91,2.2-1.93,2.46-.37,4.19,1.34,1.48,1.45,2.32.56,4.27a12.3,12.3,0,0,0-.54,5.92c.74,4.53-2.61,9.64-6.31,9.64-2.13,0-2.4.33-1.8,2.25,1.07,3.46,4.29,9.54,5.42,10.24,2.09,1.29.88,3.36-3.11,5.34s-4.18,2-7.62.17a45.58,45.58,0,0,0-8.41-3.13c-4.25-1.09-5.37-2-8.32-6.39-3.83-5.77-10.79-12.47-13-12.47a4.71,4.71,0,0,1-2.75-1.29c-4-4-10.82-6.38-10.82-3.87,0,.46-1.19,1.38-2.64,2l-2.64,1.2,2.72,2.84c3.25,3.39,3.24,7.94,0,9.56-1.57.78-1.9,1.53-1.32,3,.43,1.09.81,1.64.85,1.22.12-1.25,7.3,2.15,8.67,4.1.69,1,3.08,3.83,5.3,6.31,3.93,4.39,5.27,5.06,15.74,7.79,3.12.81,4.3,1.69,4.76,3.54a6.24,6.24,0,0,0,2.62,3.53,17.23,17.23,0,0,1,4.46,5,94.43,94.43,0,0,0,9.51,11.09l7.05,7.19-.21,13.92c-.11,7.66-.53,14.12-.92,14.36-1.09.67-19.23-5.13-28.86-9.23-4.71-2-9.95-4.84-11.64-6.3-2.85-2.46-5.69-3-11.67-2.12-1.71.24-.56,1.94,2,3a11.36,11.36,0,0,1,4.6,4.52c1.49,2.76,3.18,3.89,9.46,6.27a125.35,125.35,0,0,1,18.4,9.85l10.75,6.94-.25,6-.25,6-5.71.12A29.78,29.78,0,0,1,938.55,669.15Z" fill="#d3d3d3"/>
      <path d="M793.06,665.43c-3.76-2.53-4.93-5.17-3.22-7.24s3.63-1.82,7.06.62c3.05,2.17,3.81,5.62,1.7,7.73C797.08,668.07,796.94,668,793.06,665.43Z" fill="#d3d3d3"/>
      <path d="M804,654c-1.83-.35-2.24-1-2-3.11s.93-2.75,2.89-3c3.36-.39,7.28,2.71,6.38,5.06C810.61,654.69,808.82,654.95,804,654Z" fill="#d3d3d3"/>
      <path d="M787.82,542.9c-6.73-6.73-4.51-27.51,3.5-32.76,3.55-2.33,9-1.08,12.61,2.89,2.81,3.08,2.88,3.42,2.88,14.26,0,12.39-.43,13.26-8.15,16.79C793.51,546.42,791.07,546.16,787.82,542.9Z" fill="#d3d3d3"/>
      <path d="M815.31,524.55c-3-1.4-5.49-5.21-4.48-6.83,1.2-1.94,9.12-1.38,10.73.75,1.92,2.54,1.51,4.09-1.5,5.62C818.17,525,816.68,525.19,815.31,524.55Z" fill="#d3d3d3"/>
      <path d="M755.47,498.07c-1-1-.82-1.65,1.71-4.59a15.84,15.84,0,0,0,3-7.86c.65-4.91,3-9.88,4.59-9.88s2,3.16.81,5.32a12,12,0,0,0-1,5.45C765,492,758.09,500.68,755.47,498.07Z" fill="#d3d3d3"/>
      <path d="M551.12,426.69c-2.57-2.13-4.75-4.67-4.83-5.66-.9-10.77-2.49-13.49-11.58-19.71-1.74-1.19-4.6-4.85-6.34-8.12-3.09-5.8-3.14-6.07-1.76-10.45.78-2.48,2.51-5.33,3.85-6.33,2.42-1.82,2.47-1.81,7.78,2.2,5.13,3.88,5.41,4,7,2.2a16.59,16.59,0,0,0,2.69-5.55c.88-3.19.75-4-.94-5.87-4.79-5.21-6-8.46-4.93-13.44,1.14-5.41,4.17-10.2,6.44-10.2.86,0,3.92,1.35,6.81,3,4.5,2.58,5.42,2.8,6.45,1.55,2.45-3,13.43-5.28,15.79-3.34.71.59,1.25,3.3,1.25,6.3,0,4.09-.39,5.42-1.75,5.95-1.67.65-1.67.74,0,2,2.57,1.89,2.22,3-2.75,8.57-2.47,2.79-4.5,5.53-4.5,6.09s1.35,1.49,3,2.06c2.31.81,3,1.66,3,3.7a12.42,12.42,0,0,0,1.46,5.15c3,5.16,3.7,7.69,4.16,14.68.43,6.39.21,7.61-2,11.13-2.59,4.1-8.11,8.19-11,8.19-.93,0-1.44.41-1.13.92,1,1.58-4.15,6.66-7.88,7.8C556,430.49,555.55,430.34,551.12,426.69Z" fill="#d3d3d3"/>
      <path d="M592.44,407.66c-2.13-1.67-2.63-2.91-2.63-6.43a24.57,24.57,0,0,0-1-7.08c-2.35-6.19-.51-29.13,3-37a42.8,42.8,0,0,0,2.71-8.55c.85-5.32,3.9-7,15-8.51a12.62,12.62,0,0,1,8.21,1.54,18.93,18.93,0,0,0,6.16,2.09c2.89,0,8.78,2.59,12.7,5.58,3.29,2.51,3.3,2.53,1.68,5.72a29.12,29.12,0,0,1-3,4.83,11.05,11.05,0,0,0-1.94,4.5c-.28,1.58-2,5.12-3.88,7.87a36.53,36.53,0,0,0-4.62,10.85c-.69,3.22-1.74,6-2.33,6.18s-4,.57-7.5.88-6.76.9-7.17,1.32c-.6.63-1.55,7.79-1.84,14-.08,1.61-5.3,4.28-8.37,4.28A10,10,0,0,1,592.44,407.66Z" fill="#d3d3d3"/>
      <path d="M737,374.49c-4.64-7.54-11.31-21.94-10.79-23.29.87-2.26,21-2,25.25.33,5.75,3.15,12.87,10.56,16.22,16.89,2,3.7-.9,5.49-8.36,5.22-4.77-.17-7.22.28-10.4,1.94C742.79,378.75,739.41,378.45,737,374.49Z" fill="#d3d3d3"/>
      <path d="M637.31,327.21a16.92,16.92,0,0,0-7.06-2.47c-5.12,0-6.61-1.88-7-8.77-.18-3.38-.79-7-1.34-8-1.56-2.92-2.17-12.26-.94-14.55.6-1.13,1.18-4.55,1.28-7.61.15-4.69-.25-6.11-2.55-9.06a17.57,17.57,0,0,1-3.08-5.5c-.3-1.72-1.38-2.08-7.84-2.6a51.52,51.52,0,0,1-9.11-1.31c-2.27-1-11.46-12.61-12.14-15.36a14,14,0,0,1,.39-5.74c1.15-4.16,3.58-5,11.53-4.09q12.38,1.46,14.78,9.36c.82,2.7,3.38,3.44,10.05,2.91,8-.64,11.45,1.3,11.48,6.43a3.79,3.79,0,0,0,2.53,3.74c3.83,1.75,4.89,5,3.21,9.84-1.4,4.06-1.39,4.1,1.93,7.35,1.84,1.8,3.34,4.27,3.34,5.5,0,1.86.71,2.34,4.25,2.86,2.34.34,8.07,1.37,12.75,2.28l8.5,1.66,5.6-2.66a36.19,36.19,0,0,1,6.66-2.66c.58,0,3-1.6,5.31-3.55,4.16-3.47,4.42-3.54,12.34-3.36,9.35.22,12.22,1,19.1,5.5,8.27,5.36,12.7,12.8,9.51,16-.66.66-.59,2.06.2,4.15,1,2.65.93,3.45-.43,5a11,11,0,0,0-2,5.3c-.32,3-1,3.81-5.19,5.91-8.3,4.14-20.4,4.11-22.26-.06-.81-1.81-1.15-1.92-2.42-.73a34,34,0,0,1-6,3.59c-3.88,1.92-6.48,2.27-19.47,2.6-16,.41-19.74-.35-21-4.3-.87-2.75-1.58-2.56-5.5,1.49-1.87,1.92-3.87,3.49-4.45,3.47A20.43,20.43,0,0,1,637.31,327.21Z" fill="#d3d3d3"/>
      <path d="M603.31,324c-2.06-.51-13.13-8-15.93-10.84-2.44-2.44-1.9-5.6,2.35-13.57,3.36-6.31,4.47-7.55,7.75-8.68,4.53-1.56,9.29-.49,13.55,3.05,2.59,2.16,2.76,2.83,3.39,13.92.66,11.61.66,11.66-1.93,14.25S607.7,325.09,603.31,324Z" fill="#d3d3d3"/>
      <path d="M564.15,305.65c-4.56-2.1-9.34-7.1-9.34-9.77,0-.94,1.44-3,3.2-4.51l3.2-2.81-9.31.3c-10.53.34-12.1-.55-12.1-6.88,0-4.78-1.27-6.62-7-10.14-2.76-1.7-5-3.36-5-3.69a15.56,15.56,0,0,1,1.69-3.46c1.57-2.66,2-2.82,6.25-2.27,5.41.7,8.06,1.91,8.06,3.67,0,.71,2,3.39,4.48,6,3.33,3.47,5.23,4.68,7.39,4.68,2.6,0,3-.39,3.33-3.63.45-3.88-1-5.88-6.46-9.16-1.51-.9-2.75-2.21-2.75-2.9s2.24-3,5-5.2c3.73-2.95,5.68-3.84,7.75-3.54,1.52.22,5.2.62,8.18.9s6.5,1.22,7.83,2.09l2.42,1.59-.56,18.55c-.33,11-1,19.08-1.64,19.85s-.81,2.76-.43,4.78c1,5.39-.75,7.7-5.82,7.6A25.24,25.24,0,0,1,564.15,305.65Z" fill="#d3d3d3"/>
      <path d="M491.42,299.29c-4.11-2.52-6.84-2.56-9.53-.13-.9.81-2.17,1.15-2.81.75-1.54-1,3.91-23.79,5.59-23.42.73.16,1.13-1.63,1.13-5.09,0-6.7,4.69-30.4,6.61-33.41,3-4.63,10.82-.79,8.24,4a4.51,4.51,0,0,0-.11,4.1c1.07,2.39.75,8.79-.57,11.4a15.67,15.67,0,0,0-.77,5.73c.09,3.42.45,4,2.5,4.34a21.84,21.84,0,0,0,6.82-.9c4-1.12,4.61-1.05,6.34.68,3.7,3.7,4.58,17.55,1.39,21.85-.83,1.12-2.44,3.49-3.56,5.26A15.29,15.29,0,0,1,491.42,299.29Z" fill="#d3d3d3"/>
      <path d="M518.77,299.14c-.71-1.87-.52-3.17.74-5.2.93-1.49,1.73-2.79,1.77-2.9a16.74,16.74,0,0,1,3.25-.76c3-.53,3.29-.29,5.24,4.12,1.26,2.85,1.71,5,1.15,5.6s-3.24,1.08-6.07,1.27C520.15,301.6,519.64,301.42,518.77,299.14Z" fill="#d3d3d3"/>
      <path d="M713.31,267.75a4.4,4.4,0,0,1-.13-2.8c.76-1.23-.56-2.76-3.85-4.46-2.85-1.47-3.08-1.43-5.3,1-1.71,1.85-2.9,2.32-4.52,1.82-1.21-.38-3.33-.92-4.7-1.21a10.25,10.25,0,0,1-4.68-3.1c-1.85-2.18-2.42-2.38-3.75-1.28a5.76,5.76,0,0,0-1.57,3.94c0,3.44-3.18,5.46-7.21,4.57-1.67-.37-8.58-.74-15.36-.82-10.79-.14-12.67-.41-15.13-2.25s-2.85-2.89-3.11-7.69c-.19-3.65.25-6.66,1.27-8.63,2.4-4.64,8.29-10.06,10.94-10.06,4.28,0,4.9-2.33,1.48-5.58-5.56-5.29-7.27-10.94-4.74-15.74,1.67-3.16,2.78-3.65,8.35-3.67,6.08,0,10.09,2.92,11.64,8.53a16.37,16.37,0,0,0,3.44,6.12c2,2,2.77,2.22,4.44,1.33,1.93-1,1.81-1.31-2.43-5.67-2.45-2.52-5-5.87-5.64-7.45-1.06-2.56-.9-3.25,1.48-6.37l2.67-3.5h-6.83c-8.51,0-11.27-1.62-11.27-6.6a20.22,20.22,0,0,1,2.07-7.54c1.14-2.23,1.83-4.3,1.54-4.59-1.58-1.58,2.89-6.27,8.89-9.35l6.61-3.39,6.63,3.48c8.44,4.43,7.92,4.25,8,2.76a10.93,10.93,0,0,1,.77-3c.4-1,.34-1.79-.13-1.85s-2.16-.21-3.75-.35c-4.12-.36-10.92-8-13.15-14.71a40.06,40.06,0,0,0-5.11-9.73c-1.84-2.42-3.34-4.75-3.34-5.18s-.86-1.06-1.92-1.4c-2.84-.9-3.95-5.34-3.18-12.75.9-8.67,1.93-9.81,8.34-9.24,6.66.59,8.48,1.91,15.8,11.52,3.38,4.45,6.3,7.94,6.48,7.76,1.11-1.11-1.59-7.2-4.82-10.87-5-5.64-4.76-8.66.8-11.48a87.46,87.46,0,0,0,8-4.75c2.19-1.49,4.78-2.72,5.75-2.72s1.77-.76,1.77-2c0-1.12,1.83-3.83,4.07-6l4.07-4-2.57-3.05c-1.41-1.68-2.58-3.8-2.6-4.72s-1.06.35-2.32,2.83c-6.18,12.17-11,16.45-18.49,16.58a59.18,59.18,0,0,0-10.39,1.45c-7.93,1.9-11.17.72-11.58-4.2a18.38,18.38,0,0,1,1.2-7.23c.83-2,1.24-3.6.92-3.6-1.07,0-4.32,4.29-4.32,5.7,0,.77-1.15,2.46-2.55,3.76-2.05,1.9-3.11,2.21-5.37,1.56-6.7-1.92-11.56-7.52-9.1-10.49,1.08-1.3.94-1.53-.85-1.53a21.7,21.7,0,0,1-2.87-.15c-1.65-.33-3.19-3.53-3.22-6.71,0-2.67.79-4.12,4-7,4.29-3.92,4.87-5.11,2.5-5.11a6.64,6.64,0,0,1-3.5-2,7.22,7.22,0,0,0-4.31-2c-8.67,0-6.31-9.3,3.31-13a24.74,24.74,0,0,0,7.13-5.16c3.09-3.23,4.27-3.8,7.86-3.8,4,0,4.19-.15,3.62-2.41-.47-1.87.07-3,2.39-4.94,1.65-1.39,3-3.4,3-4.46a3.67,3.67,0,0,1,4.53-3.71c1.08.2,2.47.4,3.08.44a17.58,17.58,0,0,1,4.67,2.49c3.82,2.59,4.72,2.07,4.72-2.75,0-1.19,1.57-4.39,3.5-7.09s3.5-5.72,3.5-6.7,1.78-3.66,4-5.95c3.19-3.36,4.47-4.07,6.59-3.66s2.79,0,3.61-2.3c1.07-3.06,5.24-5.1,9.06-4.43C719.6,6.59,722,6.38,726.45,4c5-2.65,12.69-3.64,15.76-2,1.35.71,3.57.49,7.75-.78s6.48-1.5,8.1-.79c1.24.54,4.72.82,7.75.63,7.43-.47,9.28.13,10.76,3.5,1.37,3.12,4.08,4.89,8.67,5.65,3.86.64,5.52,2.44,6.62,7.16,1.4,6,1.12,11.31-1,18.91-1.48,5.35-2.69,7.62-5.21,9.73-1.81,1.51-3.82,2.75-4.47,2.75-1.8,0-6.92,6.27-9.81,12a51.91,51.91,0,0,0-2.58,5.61c0,1.29,5.05-3.47,6-5.63a12.73,12.73,0,0,1,4-4.5c1.64-1.1,3-2.33,3-2.74,0-1.13,4.79-.9,5.52.27.35.56.63,3.53.63,6.59,0,4.23-.59,6.46-2.44,9.25-3.74,5.65-6.87,12.16-6.45,13.42.21.62-1.73,5.88-4.3,11.68s-5.14,11.67-5.71,13c-1.26,3.06-3.42,14.06-3.82,19.49-.39,5.27-5.11,9.79-9.73,9.32-2.82-.29-3.18,0-3.8,3a13.89,13.89,0,0,1-2.92,5.7c-2.1,2.23-10.33,5.81-11.25,4.89-.23-.23-1.28.54-2.33,1.71-1.89,2.1-1.88,2.14.34,3.63,2.68,1.79,3,5.81.59,8.43-1.33,1.47-1.38,1.85-.25,1.94a20.53,20.53,0,0,1,2.41.35,25.62,25.62,0,0,0,2.85.38c1,.08,3.15,1.55,4.75,3.26,3.67,3.92,4.16,11.09.9,13.13-2.62,1.63-2.52,2.57.5,4.95,1.38,1.08,2.5,2.83,2.5,3.87,0,1.2-.93,2.14-2.5,2.54-2,.51-2.5,1.25-2.5,3.84,0,4.49-4.46,9.31-9,9.74l-3.48.33.34,7.52c.31,6.77.11,7.77-2,10-6.15,6.51-6.17,6.55-4.27,9.44a15,15,0,0,0,4.83,4.24,14.81,14.81,0,0,1,4.22,3.14c1.5,2,.91,7.16-1.41,12.4C729.58,265,715.23,273.8,713.31,267.75Z" fill="#d3d3d3"/>
      <path d="M526.3,230.32c-2.76-2.76-3.25-7.12-1.4-12.43,1.36-3.89,3.16-4,5.77-.34,3.93,5.52,4,12.13.12,14.2C529.16,232.62,528.34,232.36,526.3,230.32Z" fill="#d3d3d3"/>
      <path d="M599.92,229c-7.13-3.7-7.88-7.29-2.52-12,4.37-3.87,9.89-4.29,15-1.13,5.59,3.46,5.68,7.87.26,12.43C609.26,231.07,604.53,231.34,599.92,229Z" fill="#d3d3d3"/>
      <path d="M591.15,212.29c-3.31-1.44-4.86-4.34-3.92-7.3.35-1.09-.58-3.07-2.46-5.25-3.66-4.24-4.37-6.7-3.69-12.77.61-5.37,3.67-8.67,7.11-7.65a49.36,49.36,0,0,1,8,4.52,44.91,44.91,0,0,0,6.59,3.9c1.61,0,3,5.59,3,12v6.91l-4.64,3.55C596,214.15,595.61,214.22,591.15,212.29Z" fill="#d3d3d3"/>
      <path d="M569.51,210.41c-1.21-1.28-3.78-4.12-5.7-6.32-6.16-7-9.24-8.73-15.5-8.47-5,.2-5.86-.09-8.52-2.75-3.11-3.11-3.8-6.72-1.94-10.2a3.53,3.53,0,0,1,2.5-1.93,6.43,6.43,0,0,0,3.4-1.94c1.67-1.67,1.79-2.46.9-5.75a14.47,14.47,0,0,0-4.44-6.64c-6.41-5.33-3.65-13.68,4.53-13.68,4.46,0,10.08,3.92,10.08,7,0,1.86,1.44,3.25,3.73,3.6s7.14,5,9.32,9.08a35.87,35.87,0,0,0,3.95,6.06c3.44,3.69,3.89,5.52,2.42,9.74-2,5.69-1.79,7,1.58,10.84,1.65,1.88,3,4.12,3,5,0,2.88-2.19,6.43-4.66,7.55C572.08,212.57,571.39,212.39,569.51,210.41Z" fill="#d3d3d3"/>
      <path d="M626.9,199.59c-2.24-2.33-4.34-5.07-4.66-6.08a16.44,16.44,0,0,0-3.11-4.55c-3.59-3.87-7.32-11.62-7.32-15.23,0-4,3.9-8,7.73-8,2.6,0,6.27-2.84,6.27-4.85,0-.89-4.86-3.51-6.5-3.5-.55,0-3.13.36-5.74.79-6.05,1-9.15.21-10.48-2.71-.79-1.74-.7-3,.36-5,.84-1.61,1-2.7.39-2.7a6.83,6.83,0,0,1-3-2c-2.25-2.25-2.61-7-.9-11.85,1-2.82,1.51-3.15,5.07-3.15s3.91-.18,3.26-2.25a14.12,14.12,0,0,0-3.68-4.84c-2.52-2.2-2.87-3.06-2.29-5.69.81-3.68,2.81-5.54,6.41-6,6.24-.75,6.42-1.48,1.63-6.56l-3.51-3.72,2-4a14.45,14.45,0,0,1,5-5.48c2.33-1.2,3-2.29,3.24-5.27.29-3.51.54-3.78,3.84-4.05,3.65-.31,9.48,2.75,11.05,5.8,2.22,4.3,4.91,10.77,4.91,11.79,0,2.14,4.2,8.69,8.61,13.42,3.23,3.46,4.39,5.53,4.39,7.81s1.21,4.38,5,8.39c4.38,4.63,5,5.81,5,9.52,0,4.48.37,5,10,12.94,3.57,3,4,3.86,4,7.66s-.83,5.39-6,12.2c-3.28,4.35-7.11,8.52-8.5,9.26a4.25,4.25,0,0,0-2.53,3.82c0,1.36-1.67,4.66-3.71,7.33-4.12,5.4-4.75,5.71-9,4.43-1.9-.58-2.22-.24-2.5,2.63-.31,3.22-.44,3.3-5.48,3.6S630.79,203.64,626.9,199.59Z" fill="#d3d3d3"/>
      <path d="M503.11,183.74c.31-1.37.86-4.19,1.24-6.25s1.09-3.75,1.6-3.75c1.44,0-.13,9.32-1.85,11C502.72,186.08,502.62,186,503.11,183.74Z" fill="#d3d3d3"/>
      <path d="M578.78,140.46c-3.41-2.72-5.77-6.78-5.24-9,.84-3.45,2.26-4.74,5.2-4.74,2.06,0,3.34,1,5.38,4.09,3.2,4.89,3.31,6.28.68,8.91C582.53,142,581,142.2,578.78,140.46Z" fill="#d3d3d3"/>
    </g>
    <path id="CA-ON" d="M778.28,1240.79c1.06-2,2.44-3,5.23-3.42a18.58,18.58,0,0,0,5.08-1.47c1.86-1.2,2.82-8.18,1.26-9.14-.88-.54-1-1.33-.28-2.65a25.28,25.28,0,0,0,1.64-5.6c.37-2,1.49-4.3,2.49-5,3.6-2.53,6.75-8.36,6.41-11.9-.18-1.86-.39-7-.48-11.5-.15-7.6.07-8.53,3.44-14.54l3.59-6.43-1.79-4a21.05,21.05,0,0,0-3.93-5.86c-2.09-1.86-2.91-4.59-1.38-4.59.42,0,3.4,2.69,6.62,6,5.32,5.42,10.72,8.91,16.11,10.4s8.5-7.68,4.45-13.54c-2.64-3.83-13.54-15.65-16.35-17.74-1-.78-4.87-1.75-8.5-2.17a89.56,89.56,0,0,1-12.07-2.34c-3.88-1.12-9.74-1.58-20.19-1.58-13.74,0-14.82-.14-16.17-2.06-.79-1.13-3.82-3.29-6.72-4.79-4.29-2.22-5.3-3.23-5.4-5.41-.06-1.47-1.41-4-3-5.68-2.47-2.58-2.64-3.09-1.22-3.64q3.33-1.28-.38-6.47a50.68,50.68,0,0,1-4-7.27c-1.71-3.86-2.43-4.49-5.79-5-3.84-.61-14.47-5.7-17-8.15-.75-.72-1.49-3-1.63-5.15a43.73,43.73,0,0,0-1-6.72l-.76-2.87-8.07.53c-7.48.49-8.5.32-13.86-2.39l-5.78-2.92-4.13,2.6c-3.75,2.37-4,2.75-2.55,4.18s1,2-5.13,5.94a68.63,68.63,0,0,0-10.32,8.24c-4,4.33-4.53,4.38-18.88,2a131.1,131.1,0,0,0-14.58-1.43c-6.71-.19-13.42-2.55-13.42-4.73,0-.43-1.16-.78-2.57-.78-1.56,0-4-1.37-6.25-3.49-3.66-3.47-3.75-3.49-12.86-3.5-6.61,0-9.58-.41-10.61-1.44a12.43,12.43,0,0,0-5.32-2.13c-5.5-1-6.08-1.73-6.85-8.72-.62-5.71-.94-6.35-3.86-7.82s-3.18-1.83-3.08-7.5c.12-6.39,1.3-33.2,1.9-42.9.2-3.3.66-13.15,1-21.89.8-20-.92-16.82,22.92-41.61,5-5.22,12-12.83,15.6-16.89s6.93-7.89,7.5-8.5,6.42-7.41,13-15.11,14.21-16.49,17-19.54c13.48-14.91,19.52-21.68,21.34-24l2-2.5,3.33,1.89c4.08,2.32,10.83,8.62,10.83,10.12,0,.61,1.48,2.54,3.29,4.29,2.43,2.35,4.85,3.49,9.25,4.33,4.11.79,6.9,2,9,4,2.86,2.69,5.39,3.65,10,3.82,1.13,0,4.5,2.26,7.5,4.92l5.45,4.85,18.74.63c16.32.55,19.27.9,22.87,2.73l4.13,2.11-.68,8.67c-.37,4.77-1.07,9.06-1.54,9.53s0,2.24,1,4a23.8,23.8,0,0,1,2.5,7.63c1.09,8,1.26,8.82,2.2,10.69.51,1,.78,3.91.61,6.44-.25,3.71.26,5.5,2.66,9.29,3.86,6.09,15.89,20.62,17.06,20.62,2.29,0,8.67,8.25,10.46,13.53l1.93,5.67,6.18-.47,6.18-.47.63,5.11c1,8.08,1.42,11.72,2,17.61.3,3,.74,6.63,1,8s.71,5.2,1,8.5.77,7.13,1,8.5c.48,3.29,1.42,11.26,2.07,17.5.28,2.75.71,6.57,1,8.5,1.5,12,2.48,20.24,3,25.39a50.65,50.65,0,0,0,3.62,12.6c2.53,5.66,3.91,7.36,8.81,10.81,6.46,4.56,15.49,7.76,24.56,8.71a23.18,23.18,0,0,1,10.59,3.56c2.52,1.61,5.45,2.94,6.5,3s3.12,1.73,4.65,3.89l2.74,3.87,8.63-.48c7.48-.41,9.48-.94,14.94-3.94,6.33-3.48,11.38-5.07,11.53-3.63a35.24,35.24,0,0,0,1.39,6.17c.54,1.69-.13,2.83-3.13,5.37-6.25,5.29-11.43,10.79-18.84,20-3.85,4.77-7.45,8.71-8,8.75-1.69.13-5.69,3.9-5.12,4.82,1.16,1.88-6.85,4.92-13.5,5.12-11.94.36-29.13,7.43-32.8,13.49s-3.6,7.46.18,9a10.78,10.78,0,0,0,5.36.92c1.47-.38,2.35.34,3.6,3,1.95,4.08,1.28,4.65-5.44,4.65-4,0-15,4.12-17.79,6.72-1.32,1.21-1.2,1.6,1,3.26l2.48,1.88-2.75.69a18.36,18.36,0,0,1-7.17-.42c-9.48-2.39-11.73-1.34-23.54,11-6.47,6.78-8,7.87-11,7.94-1.92,0-5,.24-6.73.42l-3.23.33Z" fill="#d3d3d3"/>
    <path id="CA-PE" d="M1129.48,1063.07c-.29-.29-4.27-.69-8.85-.88a71.6,71.6,0,0,1-13.82-2c-6.7-2-8.07-2.3-10-2.42-4.08-.25-4.5-1.72-2-7,1.31-2.79,3-5.07,3.68-5.07s3.35,2,5.84,4.34c3.64,3.49,4.75,4.08,5.64,3,.65-.79,3.14-1.34,6.05-1.34,2.72,0,5.7-.4,6.63-.89,3.2-1.7,12.14-4,12.61-3.22.26.42-.16,2-.93,3.47a21.28,21.28,0,0,0-1.63,7.14C1132.46,1062.19,1130.92,1064.52,1129.48,1063.07Z" fill="#d3d3d3"/>
    <g id="CA-QC">
      <path d="M927.61,1137a18.8,18.8,0,0,1-2-6.25c-.37-3.29-.62-3.5-4.52-3.79-4.12-.3-9.48,1.76-15.41,5.93-2,1.42-4.44,1.87-10.12,1.87-7.41,0-7.48,0-9.85-3.49-1.31-1.92-3.23-3.5-4.27-3.5s-4.17-1.41-7-3.12a22.87,22.87,0,0,0-10.61-3.59c-8.44-.72-17.83-3.81-23.59-7.78-4.25-2.93-5.74-4.79-8.23-10.29a46.33,46.33,0,0,1-3.68-13.22c-.35-3.57-.82-7.85-1-9.5s-.9-7.28-1.5-12.5-1.29-11.07-1.52-13l-1-8c-.3-2.47-1.89-16.2-3.53-30.5s-3.23-27.18-3.53-28.62c-.48-2.3-.16-2.69,2.59-3.24s3.08-.86,2.46-3.7c-.53-2.4-.07-4,2.09-7.24,1.52-2.29,2.76-5.3,2.75-6.69s-1.84-6.34-4.07-11a102.55,102.55,0,0,1-5.13-12.5,24.69,24.69,0,0,0-2.78-6.43c-1.16-1.65-1.62-4-1.45-7.26.28-5.23-2.37-10.92-6-12.86a4.26,4.26,0,0,1-1.93-3.74,10.19,10.19,0,0,0-2-5.21,9.91,9.91,0,0,1-2-3.5c0-1.49,4.85-5.82,10.5-9.31a40.06,40.06,0,0,0,8.15-6.88c1.74-2.09,5.18-6,7.63-8.69,3-3.27,5.67-7.85,8.13-13.85,3.32-8.13,3.65-9.75,3.48-17.42a50.79,50.79,0,0,0-2.94-16.65c-1.52-4.51-3-9.39-3.36-10.86-1-4.62-10-14.23-16.43-17.67-7.72-4.11-13.67-10.05-14-13.94a17.82,17.82,0,0,1,1.46-6.85,37.33,37.33,0,0,0,2-5.38,7,7,0,0,1,2.32-3.16c1.55-1.26,2.05-2.83,2.05-6.44,0-3.37.58-5.39,2-6.86,1.82-1.93,1.86-2.39.54-6.22a58.21,58.21,0,0,1-1.87-6.61c-.55-3.05-3.19-8.24-6.19-12.21-2.05-2.71-2.28-4.1-2.28-14.35,0-8.19-.4-11.81-1.39-13a51.46,51.46,0,0,1-4.22-8.51l-2.84-6.85,2.57-5.25c2.45-5,2.8-5.28,7.3-5.9,7.51-1,13.87-.76,18.22.77,5.72,2,13.7,2.73,16.91,1.51a26.38,26.38,0,0,0,6.72-5c2.19-2.17,4.46-3.93,5-3.92,1.76,0,21.08,10.21,27.5,14.48,4.89,3.25,6,4.47,5.83,6.5a9.63,9.63,0,0,0,1.5,5.05c1.51,2.29,2.74,2.68,12,3.79a107.2,107.2,0,0,1,15.12,2.81L917,709l-.68,5.47c-.67,5.33.08,8.78,4.7,21.81a18.72,18.72,0,0,1,1,5.75,7.57,7.57,0,0,0,2.43,5.27,27.79,27.79,0,0,1,4.51,7l2,4.48,4.93-.6c4.74-.58,5.12-.43,10.22,3.92,2.91,2.49,6.52,4.83,8,5.21s2.73,1.09,2.73,1.58q0,2.79,6.37-3.36c3.28-3.17,4.58-5.3,5.08-8.37.48-2.9,1.34-4.42,2.92-5.14,1.38-.63,2.77-2.69,3.62-5.38,1.55-4.94,1.39-15.33-.3-18.35a5.34,5.34,0,0,1-.83-3c.16-.54.74-3.44,1.3-6.45.92-5,3.28-8.53,5-7.49.36.22,1,2.09,1.34,4.16.85,4.65,5.16,12.26,6.94,12.26,1.22,0,4.06,10,3.56,12.5-.55,2.73.27,3.11,5.79,2.71l5.75-.42-.15,6.35a45.24,45.24,0,0,1-1.22,9.73c-.69,2.19-.73,4-.11,5.16,1.16,2.17,6.49,5.56,10.19,6.48,3.36.84,3.64,1.73,4.31,13.46a90.07,90.07,0,0,0,1.92,14.48c.76,2.77,1.65,6.65,2,8.61a8.78,8.78,0,0,0,3.67,5.85c3,2.22,7.87,11,7.89,14.18a5.62,5.62,0,0,0,1.87,3.28,20.45,20.45,0,0,1,3.6,5.54c1.68,3.73,1.67,4-.36,8.59l-2.09,4.74-5.25-.55c-2.89-.3-6.63-.84-8.32-1.21-2.71-.59-3.34-.26-5.5,2.92-2.67,3.93-4.37,4.42-7,2-1-.87-4.49-2.14-7.84-2.83-6.67-1.37-7.32-1.09-8.46,3.69a6.3,6.3,0,0,1-3.14,3.91c-1.91.87-2.47,1.88-2.47,4.48,0,2.38-.9,4.28-3.1,6.59-2.72,2.84-3,3.74-2.55,7.29a25,25,0,0,0,1.92,6.68c2.29,4.41,8.24,10.37,12.34,12.38,4.34,2.12,5.05,4.51,3.07,10.25-1.08,3.12-1,3.52,1.74,5.84,2.92,2.51,6.38,2.75,12.19.85,1.92-.63,2.17-.22,2.8,4.48.47,3.57,1.47,6,3.2,7.69,2.3,2.29,3,2.45,8,1.83,4.54-.57,5.87-.37,7.49,1.09a9.48,9.48,0,0,0,3.67,2.09c4.65.85,14.88,1.11,16,.41.71-.44,1.49-2.78,1.73-5.21.56-5.64,1.29-12.33,1.38-12.68a19.1,19.1,0,0,1,4.2,1.84,12.55,12.55,0,0,0,8.25,1.56c4.34-.58,20.36-6,37.12-12.62q38.57-15.17,47.43-17.42c3.53-.9,7-2.14,7.79-2.76s1.69-.76,2.14-.23c2.34,2.72,7.14,9.27,7.14,9.74,0,.3-2.81,2.69-6.25,5.32-9.17,7-14.63,13.21-15.26,17.35-.29,1.92-2.54,7.55-5,12.5s-4.89,10.13-5.39,11.5c-1.12,3.11-17.3,11.8-27.59,14.82-3.85,1.13-12.4,3.62-19,5.53-38.67,11.2-57.36,18.23-60.85,22.9a21.57,21.57,0,0,0-2.77,7.37c-.49,2.68-1.83,7.91-3,11.62-1.8,5.86-2.39,6.75-4.46,6.75-4.76,0-14.56,11.16-18,20.5a64.73,64.73,0,0,1-5,10,27.46,27.46,0,0,0-3.65,8.5c-1.13,8.38-16.48,33.22-24.46,39.6-11.21,9-26.63,25.37-25.19,26.8.22.22,4.22-3.84,8.9-9a137.36,137.36,0,0,1,15.08-14.35,84.29,84.29,0,0,0,17.57-18.57c4.07-6,11.35-20.43,11.35-22.5a11.15,11.15,0,0,1,1.14-4.31c1.82-3.47,11-14.82,14.86-18.31,1.93-1.75,5.74-5.25,8.47-7.78a84,84,0,0,1,11-8.25c3.31-2,9.4-6,13.53-8.85,5.22-3.61,9.48-5.67,14-6.79,6.14-1.51,6.9-1.5,12.4.2,4.8,1.49,6.19,2.43,7.65,5.21,4,7.56,3.35,12.71-2.39,19.67-5.56,6.75-7.62,8.08-13.48,8.68-11.47,1.18-21,3.86-24.15,6.78-4.06,3.79-7.39,4.93-15.3,5.24-9.46.37-10,1-9.24,11.05l.64,8.19-3.85.62a24,24,0,0,1-6.52.13,3.67,3.67,0,0,0-4.26,1.77c-2,2.77-6.22,16.63-7,22.76-.31,2.47-1,7.43-1.54,11s-1.16,8.44-1.4,10.81c-.78,7.71-3.76,14.32-7.73,17.12a28.54,28.54,0,0,0-5.89,5.83c-1.24,1.8-3.2,3.46-4.37,3.69s-9.39,2-18.3,4-18.59,3.56-21.53,3.56C929.81,1139.74,929.07,1139.44,927.61,1137Z" fill="#d3d3d3"/>
      <path d="M1090.82,983.94a15,15,0,0,1-5-2.13,29.52,29.52,0,0,0-8.22-3q-10.72-2.32-4.16-7.7c2.28-1.86,4.17-2.37,9.36-2.49,13.67-.33,18.59.26,27.75,3.34s9.25,3.15,9.25,6.36c0,3.82-.37,4-11.5,4.91C1096.19,984.28,1093.53,984.38,1090.82,983.94Z" fill="#d3d3d3"/>
    </g>
    <path id="CA-SK" d="M448.72,1050.35a57,57,0,0,0-8.42-1.06c-4.4-.37-9.12-.84-10.5-1s-5.43-.66-9-1-7.62-.8-9-1-5.43-.65-9-1-17.53-3.14-31-6.16l-26-5.82c-4.54-1-7.12-1.55-13-2.93-3.57-.84-7.4-1.68-8.5-1.87s-5.5-1.15-9.78-2.13c-6.32-1.45-7.69-2.09-7.27-3.43.48-1.53,8.34-33.84,9-37.14.17-.83,1.73-7.35,3.46-14.5s4.75-19.75,6.71-28,5.81-24.22,8.55-35.5,5.16-21.4,5.38-22.49,1.75-7.62,3.41-14.5,5.06-21.06,7.56-31.51,6.06-25.3,7.92-33l7-29.17L370,761.89l5.18.43c2.85.24,7.38.76,10.08,1.17a59.6,59.6,0,0,0,12.67-.18c7.33-.87,8.11-.77,13.84,1.81s8.07,2.73,8.07.62c0-1.12-21.25-11.47-26.5-12.91a31.4,31.4,0,0,0-6.25-1.1,7.18,7.18,0,0,1-4.25-2c-2.2-2.2-5.1-2.55-8.07-1-2.28,1.22-2.33.9-.84-6,.86-4,1.45-5,2.75-4.62,1.48.42,8.55,1.87,15.23,3.13,1.34.25,3.33.65,4.43.88,3.34.7,44.82,8.77,47.5,9.25,1.38.24,7.9,1.51,14.5,2.83s13.8,2.56,16,2.77c3.85.37,4,.51,3.85,3.82-.08,1.89-1.31,11.76-2.72,21.94s-2.85,20.75-3.2,23.5c-.62,4.9-1.83,7.5-3.51,7.5s-7.52,6.64-8.82,9.79a8.25,8.25,0,0,0-.24,6.4c2.22,7.05,1.83,10.51-1.59,14-2.22,2.29-2.92,3.71-2.31,4.69.71,1.14,1.46.91,4-1.26,1.74-1.47,3.83-2.66,4.65-2.66,1.5,0,1.48,3.15-.14,23-.25,3-.71,9.55-1,14.5s-.76,11-1,13.5-.69,9-1,14.5-.77,11.58-1,13.5-.67,8.45-1,14.5-.79,12.13-1,13.5-.66,7.9-1,14.5-.81,12.67-1,13.5-.6,7.13-1,14-.85,13.17-1,14-.6,7.13-1,14-.88,13.3-1.06,14.28-.43,4.69-.54,8.25C451.51,1050,450.54,1052,448.72,1050.35Z" fill="#d3d3d3"/>
    <path id="CA-YT" d="M189.25,672.41c-1.07-.7-5.31-2.79-9.44-4.65-6.3-2.83-28-14.1-63.67-33.05-11.33-6-52.85-31.83-83.58-51.94-10.88-7.12-15.75-10.88-15.75-12.15,0-2.53,3.09-7.38,6.32-9.92,5.8-4.56,2.45-7.51-8.95-7.87-2.26-.07-3.28-.67-3.66-2.13-.29-1.12-.91-1.93-1.37-1.8-1.87.51-5.27-1.4-5.87-3.29-.48-1.51,1.89-5.75,9.31-16.7,13.76-20.3,39.21-58,58.87-87.18,15.66-23.25,35.89-53.24,63.21-93.67l12.28-18.17,3.18,1.1c6.56,2.26,8.46,4.51,9.2,10.91a37.52,37.52,0,0,0,3,10.52,36.57,36.57,0,0,1,3,8.47c.48,2.83,1.73,4.78,4.73,7.35,3.72,3.18,3.95,3.65,2.58,5.25-2.1,2.47-12.22,19-14.59,23.76a85.92,85.92,0,0,0-3.75,9.5,88.35,88.35,0,0,1-4,10c-4.36,8.79-4.61,8.12,6,16.07,7.28,5.47,9.55,7.73,9.55,9.51,0,1.28-1.61,5.41-3.58,9.18a35,35,0,0,0-4.1,12.35c-.51,5.4-.45,5.56,3.12,8.29,3.9,3,3.74,2.15,2.62,13.78,0,.37-1.38,1-3,1.31a8.38,8.38,0,0,0-6.07,7.42,14.4,14.4,0,0,1-2,5.41c-2.18,3.7-1.7,7,1.4,9.58,1.14.95,1.44,2.42,1.08,5.28A8.54,8.54,0,0,0,157,522c1.6,2.24,2.27,4.71,2.37,8.7a25,25,0,0,0,1.89,9c1.68,3.26,1.67,3.66-.29,10.49a118.08,118.08,0,0,0-4.61,25.76,58.84,58.84,0,0,1-1.69,10.82c-1,2.81-.83,3.46,1.4,5.85,3.34,3.58,4.27,5.56,6.24,13.21a62.55,62.55,0,0,0,4.46,11.67c2,3.79,2.45,5.32,1.52,5.68-.7.27-1.5,2.66-1.78,5.31a66.87,66.87,0,0,1-1.23,7.62c-.86,3.34.42,4.58,8.53,8.28a74.66,74.66,0,0,1,9.35,5.17c2.12,1.46,5,2.68,6.5,2.7l2.65,0L192,662.68c-.15,5.75-.41,10.57-.56,10.73S190.31,673.12,189.25,672.41Z" fill="#d3d3d3"/>
  </g>
</svg>
