<?xml version="1.0" encoding="utf-8"?>
<!-- Generator: Adobe Illustrator 21.1.0, SVG Export Plug-In . SVG Version: 6.00 Build 0)  -->
<svg version="1.1" id="svg4468" xmlns="http://www.w3.org/2000/svg" xmlns:xlink="http://www.w3.org/1999/xlink" x="0px" y="0px"
	 viewBox="0 0 1282.9 1243.6" style="enable-background:new 0 0 1282.9 1243.6;" xml:space="preserve">
<style type="text/css">
	.st0{fill:#D3D3D3;}
	.st1{fill:none;stroke:#5E98AA;stroke-miterlimit:10;}
</style>
<title>Canada_blank_map</title>
<g id="Canada">
	<path id="CA-AB" class="st0" d="M288.3,1019.8c-53.5-14.1-47.8-12-50.9-19.1l-2.7-6l2.2-11c2.3-11.7,2.1-14.6-0.9-20.7l-6.5-12.9
		c-2.5-5-4.8-10.2-6.7-15.5c-1.3-3.7-3-7.3-5-10.7c-1.6-2.5-2.8-5.2-3.6-8c-0.6-2.5-1.8-4.9-3.5-6.9c-1.6-1.8-2.9-3.8-2.9-4.3
		c-0.4-1.5-1.1-2.8-2.1-4c-1.2-1.7-2.5-5.8-3-9.6c-0.6-4.2-1.9-8-3.4-10.2c-1.3-2-2.5-4-3.4-6.2c-1-2-2.6-3.8-4.5-5
		c-3.5-2.2-4.8-5.9-2.6-7.3c0.6-0.3,1-3.1,1-6.2c0-5.4,6.6-24.3,51.2-146.9l4-11.1l22.1,7.4c12.2,4,30.7,9.9,41.1,12.9l40.9,12
		c12.1,3.5,22,6.5,22.2,6.7c0.7,0.7-3,15.3-4,16c-1.1,0.6-2.3,1.1-3.5,1.4c-2.5,0.7-13,11-13.1,12.9c0,0.6,1.6,1.8,3.5,2.8
		c3.4,1.6,3.7,1.6,6.4-0.3c1.5-1,2.7-2.4,3.5-4.1c0.4-1.1,0.9-1.8,1.1-1.6s-1.3,7.8-3.5,16.8c-5.1,21.2-10.6,44.3-18.2,75.9
		c-3.4,14-7.2,30-8.5,35.5c-6.7,27.7-12.6,52.5-15.8,66c-17,71.2-15.5,65.5-16.5,65.4C302.6,1023.5,296,1021.8,288.3,1019.8z"/>
	<g id="CA-BC">
		<path class="st0" d="M75.8,967.5c-6.4-4.1-16-16.6-16-20.9c0-2.4-0.6-3.2-2.9-4.1c-3-1.1-5.2-5-6.5-11.2c-0.6-2.3-1.6-4.5-2.9-6.5
			c-1.6-2.6-2.9-5.2-4-8c-1.7-3.9-3.6-7.6-5.8-11.3c-2.4-4-4.2-8.4-5.3-13c-0.6-3.2-1.5-6.4-2.6-9.5c-1.3-3.1-1.2-3.4,1.6-5.7
			c1.6-1.3,3.9-2.5,4.9-2.5c2,0,7.9,5.7,17.6,16.9c3,3.5,6,6.9,6.5,7.5s2.6,3.1,4.5,5.6s3.7,4.7,4,5c1.4,1.2,3.9,10,4.6,15.9
			c0.6,5.6,1.3,7.2,5.6,12.9c5.8,7.6,6.3,8.8,7.2,16.6c0.4,3.3,1.1,6.5,2.1,9.7c0.7,2.1,1.1,4,0.8,4.4
			C87.6,970.7,79.1,969.6,75.8,967.5z"/>
		<path class="st0" d="M234.3,1005.2c-0.9-0.3-21.5-6.7-37.5-11.7c-5.5-1.7-63.9-23.6-88-33c-4.1-1.6-8.8-3.4-10.5-4
			c-3.8-1.4-4.5-2.4-4.5-7c0-2.6-0.7-4.3-2.1-5.5c-5.8-4.8-7.9-7.2-7.9-9.1c0-1.2-0.4-2.1-0.9-2.1c-2.4,0-5.9-5.3-6.5-9.9
			c-1-7.5-4.3-14-10.2-20c-5.3-5.3-5.3-5.5-4.8-10.2c0.5-3.9,0.3-4.8-0.9-4.8c-0.7,0.1-1.4-0.2-1.8-0.8c-0.2-0.4-2.5-2-5.1-3.5
			s-4.8-3.3-4.8-4c-0.1-1.1-0.3-2.1-0.5-3.2c-0.6-2.7-0.6-4.5-0.5-15.2c0.1-9,0.2-9.3,3.2-11.8c2.8-2.3,3-2.8,2-5.7
			c-0.7-2.3-1.1-4.7-1.1-7.1c0-3-1-5.3-4-9.7c-3.4-4.8-4-6.3-3.5-9.2c0.3-1.9,1.3-3.7,2.6-5.1c2.3-1.9,2.1-3.5-1.4-10.3
			c-1.7-3.4-2-5.9-2-17c0-12.5,0.1-13,2.6-15.5c2.3-1.9,5-3.4,7.8-4.5c7.2-2.7,12.8-7.8,12.8-11.7c0-4,2.2-8.7,5.9-12.8
			c2.8-3.1,3.1-4.1,3.1-9.6s-0.3-6.4-3-8.8c-3.4-3.1-9.4-14.4-11.1-20.9c-1-3.8-0.8-6,1.6-15.7c2.4-9.9,2.6-11.9,1.6-16.9
			c-0.8-5-1.4-10.1-1.7-15.2c-0.3-5.2-0.8-10.5-1-11.6s-0.7-3.9-1-6s-1.9-9.5-3.5-16.4s-3.2-13.5-3.5-14.7c-0.3-1.4-1.9-2.8-4.2-3.8
			c-7-2.9-7.9-2.9-9.9,0.4c-1.3,2.2-3.4,3.6-7.8,5.2c-3.3,1.2-7.9,3-10,4.1s-4,1.9-4.2,1.9c0.1-1.1,0.3-2.2,0.6-3.2
			c1.4-5,0.5-17-1.5-20c-2.1-3.1-1.8-12.4,0.4-12c0.7,0.2,10.8,6.5,22.4,14.1c31.7,20.7,66.3,41.8,83.1,50.6
			c8.3,4.3,15.5,8.1,16,8.5c2.7,1.9,33.6,17.5,45,22.8c7.1,3.3,22.7,9.7,34.5,14.2s21.9,8.6,22.3,9s0.3,1.8-0.2,3.1
			s-5.8,15.7-11.6,31.9s-12.3,34.2-14.5,40c-23.1,63-28,77.3-28,82.3c0,3-0.6,6.1-1.5,7.3c-2.2,3.1-0.9,7.4,2.8,9.8
			c4.7,3,10.7,14.2,11.4,21.2c0.3,3.6,1.5,7.1,3.4,10.2c1.6,2.5,2.8,4.9,2.8,5.5s1.1,2.2,2.4,3.5c1.7,2.2,2.9,4.7,3.6,7.3
			c0.7,2.6,1.7,5,2.2,5.3c1.3,0.8,5.4,9.4,6.3,12.9c0.4,1.7,3.9,9.5,7.8,17.4c4.1,8.3,7.1,15.7,7.1,17.5c-0.3,4.2-0.9,8.3-1.7,12.5
			c-1.8,9.7-1.5,13.8,1.1,17.9C236.1,1004.9,236,1005.7,234.3,1005.2z"/>
		<path class="st0" d="M5,816.5c-4-9.4-5.5-20.6-4.8-36.6c0.4-9.3,1-14.9,1.9-15.9c0.7-0.9,1.2-2,1.3-3.1c0-2.6,4.4-2.5,8.3,0.2
			c4.8,3.2,11.2,9.6,11.2,11.1c0,0.7-4,5.4-9,10.6c-10.5,11-10.7,11.5-6.5,26.5c1.1,3.5,1.9,7.1,2.5,10.8
			C9.8,823.5,7.2,821.6,5,816.5z"/>
		<path id="animal" class="st1" d="M175.2,819.1c-0.9,0.2-1.7,0.2-2.6,0.2c0-0.1,0-0.2,0-0.2c0.8-0.3,1.6-0.6,2.3-1.1
			c0.4-0.4,0.9-0.8,0.7-1.4c-0.4-1.2-1.3-2.1-2.4-2.6c-1.2-0.7-2.4-1.4-3.7-2c-1.3-0.6-3.2-2.7-21.5-6.2c-6.8-1.3-13.6-1.9-13.9-2.1
			c-6.3,0.1-12.7-7.1-14.6-7.7c-0.3-0.2-0.5,0.6-0.7,0.6l0,0c-0.2,1.1-0.7,9.7,0.3,10c-1.1,0.4-2.4,0.3-3.6,0.6
			c-2,0.4-12,3.4-17.1,4.6c-1.8,0.3-3.7,0.3-5.5,0.3c-1.8-0.1-3.5-0.4-5.2-0.9c-2.1-0.6-18.8-7.6-18.9-7c0,4.7,2.6,7.8,4.3,11.9
			c0.1,0.6,0.2,1.2,0.2,1.8c-1,3.2-4.7,6-5.6,9.3c0,0.6-0.2,1.2-0.5,1.8c0.8,0,1.5,0.1,2.3,0.1c1.7-0.2,11.5-2.7,13-3s2.9-1,4.3-1.3
			c0.8-0.2,1.6-0.6,2.4-0.8c1.7-0.3,3.3-0.4,5-0.3c1.2,0.1,2.3,0.2,3.4,0.5c3.8,0.7,7.5,1.6,11.1,2.7c2.5,0.2,12.1,4.1,13,4.3
			c-1.5,2.4-1.3,3.7-1.7,6.6c-0.3,1-0.2,2.1,0.4,3c0.3,0.3,0.8,0.3,1.1,0.1c5.2-5.5,11-7.6,11.2-8.4c3.2,0.2,6.3,0.2,9.5,0.1
			c17.4-0.2,29.5-9.5,30.6-10c1-0.4,1.8-1.1,2.4-1.9c0.4-0.3,0.4-0.9,0-1.3C175.3,819.2,175.3,819.1,175.2,819.1z M164.6,818.5
			c-1,0-1.9-0.8-1.9-1.9c0-1,0.8-1.9,1.9-1.9c1,0,1.9,0.8,1.9,1.9C166.5,817.7,165.7,818.5,164.6,818.5
			C164.6,818.5,164.6,818.5,164.6,818.5L164.6,818.5z"/>
		<polygon id="hotspot" class="st1" points="121.4,834 90.2,816 90.2,780 121.4,762 152.6,780 152.6,816 		"/>
	</g>
	<path id="CA-MB" class="st0" d="M482,757.6l-0.7,6.3c-0.4,3.5-0.9,7-1,7.8s-0.6,4-1,7s-0.9,6.2-1,7s-1,7.3-2,14.4
		c-1.6,12.2-1.6,13.1,0,15.8s1.6,3-1.1,6.4c-1.6,2-3.3,4.3-4,5.2s-1.5,7.5-1.8,14.6s-0.8,14.8-1,17s-0.6,8-1,13s-0.8,11.7-1.1,15
		c-1,13.7-1.5,19.4-2,27c-0.3,4.4-0.8,10.2-1,13s-0.7,9.5-1,15s-0.8,11.8-1,14s-0.6,8.7-1,14.5s-0.8,12.1-1,14s-0.6,8.7-1,15
		s-0.8,12.2-1,13c-0.5,2.7-1.9,25.4-1.9,32l-0.1,6.5l6,0.6c9.6,1,18.8,2,21.5,2.4c1.4,0.2,5,0.6,8,1c5.8,0.7,9.1,1,18,2.1
		c3,0.4,9.8,1,15,1.3s14.1,0.8,19.7,0.9l10.1,0.3l0.6-4.8c0.3-2.7,0.8-10.2,1.1-16.8s0.7-15.2,1-19s0.7-13.8,1-22
		c1.1-28.6,1.4-31.5,3.8-35.5c1.2-2,8.3-10.2,15.8-18.1s15.6-16.6,18-19.3l5.4-6.1c9.6-10.8,14.2-16.2,19.4-22.4
		c3.4-4.1,9.3-10.9,13.2-15.1s8.5-9.4,10.3-11.5s5.7-6.3,8.5-9.4s5.1-6,5.1-6.6c0-1.1-5.2-3.3-9.8-4c-6.9-1.1-8.8-1.8-10-3.4
		c-1-1.4-2.6-1.7-7.3-1.6c-3.3,0.1-6.4,0.7-6.8,1.2c-0.8,1.2-12.4,2.7-14.6,1.8c-1-0.4-1.2-1.2-0.7-2.7c0.8-2.1,0.6-3.3-2.2-16.8
		c-2-9.6-2.5-12.5-3.2-18c-0.8-6.3-3.4-8.2-13.8-10.4c-6.7-1.4-9-2.3-9.8-3.9c-1.2-2.3-1.2-10.2,0.1-20.9l0.8-6.8l-5.3-0.1
		c-2.9-0.1-5.7-0.2-6.1-0.3s-4.1-0.5-8.2-1s-8.2-0.9-9-1.1s-4.6-0.6-8.4-1s-7.9-0.9-9-1.1s-4.8-0.6-8.1-0.9s-9.6-1-14-1.5
		s-10.7-1.2-14-1.5s-8.1-0.8-10.7-1.2L482,757.6z M510.6,929.5c3.9,0,6.4,1.8,8.4,5.7c0.8,1.6,1.7,3.2,2.8,4.6
		c1.9,1.3,6.5,13.5,5.6,14.8c-0.5,0.9,1.3,6.4,3.2,9.9c0.7,1.2,1.1,4.6,1,7.5c-0.2,5.6,3.1,17.8,6.2,23.2c1.3,2.2,1.8,5.7,2.1,12.5
		c0.3,9.4,0.2,9.5-2.1,9.8c-1.7,0.4-3.2,1.4-4.3,2.8c-2.2,2.8-4,3-6.1,1c-1.7-1.7-1.2-8.9,0.9-12c0.9-1.5,1.5-3.2,1.8-4.9
		c0.3-1.6,0.9-3.1,1.8-4.5c2-2.4,1.9-4.8-0.2-6.1c-1.7-1-2.1-0.9-3.2,0.8c-1.4,2.2-3.8,2.7-3.8,0.8c0.2-1.5,0.6-2.9,1.2-4.3
		c2.7-7.5-1.7-13.9-8-11.7c-2.6,0.9-3.3,0.7-5-1.1c-1.5-2.1-2.7-4.4-3.5-6.9c-1-2.8-2.3-5.5-4-8c-1.7-2.3-2.3-4.2-2-6.3
		c0.4-2.7,0-3.2-4.4-5.6c-6.5-3.4-9.1-2.4-9.3,3.5c-0.1,2.2-0.3,6.3-0.5,9.1c-0.9,13.7-0.9,13.8,3.2,17c8.8,7,9.5,7.8,10.9,14
		c0.7,3.2,1.2,6.4,1.3,9.6c0,2,1.2,5.9,2.6,8.7c3.3,6.6,3.5,11.7,0.3,12.6c-3.3,0.9-4.6,0.8-5.3-0.5c-0.7-1.1-3.4-13.8-5.4-24.8
		c-1.1-6.2-2.5-8.1-9.5-12.6c-5.5-3.6-8.2-6.4-7.9-8.3c0.1-0.7,0.2-2.1,0.3-3.2c0.1-1.2,0.7-2.4,1.5-3.3c0.9-0.9,1.3-3.7,1.3-8
		c0-6.6,0-6.6-3.8-8.8c-4.3-2.4-5.8-4.7-5.8-8.5c0-2.1,0.5-2.6,2.5-2.6c3.7,0,5-3.2,2.5-6.3c-0.9-1-1.6-2.3-2-3.6
		c0-1.3,4.7-3.4,7.4-3.2c2.4,0.1,7.6,5,7.6,7.2c0,0.9,1,2.6,2.3,3.8l2.3,2.2l1.3-3.6c2.2-6.2,6.3-11.3,9.6-12.1
		C507.7,929.7,509.2,929.5,510.6,929.5L510.6,929.5z"/>
	<path id="CA-NB" class="st0" d="M1058.4,1108c-2.3-0.6-5-3.7-6.7-7.5c-0.6-1.5-1.9-2.7-3.4-3.3c-4.1-1-10.5-17.7-10.5-27.4
		c0-3.3-0.6-5-2.3-6.6c-3.9-3.7-9.1-6.4-12.4-6.4h-3.1l-0.4-6.2c-0.2-2.3-0.2-4.7,0-7c0.2-0.4,3.2-0.8,6.6-0.8
		c7.3-0.1,11.4-1.4,15.6-5.2c1.9-1.7,5.9-3.5,10.5-4.8c6.9-1.9,7.7-1.9,11.2-0.5s3.8,1.5,5.7-0.6c4.1-4.4,15.8-7.8,15.7-4.7
		c-0.3,1.3-0.8,2.6-1.5,3.8c-2.1,3.7-1.9,12.2,0.4,15.1c1.2,1.7,2.1,3.6,2.6,5.7c0.4,2,2.5,5,5.4,7.8c4.5,4.3,4.9,4.4,10.7,4.4
		c3.4,0,6.4,0.3,6.7,0.6s-1.7,2.9-4.4,5.8c-3,3.2-5.5,6.7-7.5,10.5c-3.6,7.5-16.1,20.2-19.9,20.2c-2.2,0-3.2,0.7-4.1,2.8
		C1071.2,1107.6,1064.7,1109.6,1058.4,1108z"/>
	<g id="CA-NL">
		<path class="st0" d="M1169.9,998.2c-2.8-3.5-2.7-7.8,0.2-11.7c3.1-4.2,3.4-9.3,0.7-10.2c-2.6-0.8-2.5-2.9,0.1-7.2
			c1.9-3.1,2.1-4.3,1.5-12.1c-1-15.6-0.7-31.2,0.9-46.7c0.1-1.1,0.5-5.6,1-10c0.9-9.2,2.7-12.6,9.9-18.1c3.9-3,5-3.4,6.2-2.3
			c3.8,3.1,4.5,6.7,4.1,18.9c-0.2,6.5-0.7,12.2-1,12.7c-0.6,2.2-1,4.5-1.2,6.9l-0.6,6l2.5-3c1-1.1,1.9-2.3,2.6-3.7
			c0.1-1.5,4.2-1.9,7.5-0.7c3.7,1.3,3.8,1.5,3.5,6.6l-0.2,3.2h5c2.8,0,5.3-0.4,5.6-0.9s2.7-1.5,5.3-2.2c3.3-1,6.6-2.2,9.8-3.6
			c5-2.3,9.5-2.4,13.6-0.2c2.2,1.1,3.2,6.5,1.6,8.9c-1,1.6-0.9,2.3,0.8,3.9s2.7,1.9,7,1.2c6.4-1,7.4-0.6,7.4,2.7
			c0,2.8-2.1,6.5-5.3,9.4c-1.1,1-1.4,1.8-0.8,1.8s1.2,1.5,1.2,3.4c0,1.7,0.2,3.4,0.6,5c0.7,1.8,2.4,2.1,2.4,0.4c0-1.9,5-7.8,6.5-7.8
			c0.8,0,1.9,1.8,2.6,4c1.4,4.5,2.7,4.9,6.9,1.8c1.6-1.2,3.3-1.8,3.7-1.4s0.9,3.8,1,7.4s0.3,8.3,0.4,10.4c0.2,5.4-3.8,11.2-8,11.6
			c-2.5,0.2-3.4-0.3-4.3-2.3c-1.4-3.2-2.1-3.2-3.8,0c-2.7,5.1-4.9,1.9-6.1-8.7c-0.9-7.8-2-10.8-4-10.8c-0.5,0-0.9,1.6-0.9,3.7
			c0,3-0.8,4.4-3.9,7.4c-3.6,3.4-4,4.4-4.9,11c-1.3,9.7-3.7,12.2-11.6,12.5c-6.8,0.2-7.3-1.4-2-6.4c2.8-2.7,3.5-4,3.5-7.3
			c0-3.7-0.1-3.9-2.1-2.8c-3.8,2-8.2,2.9-9.3,1.9s-2.9-0.2-13,5.8c-3,1.8-6.8,3.5-8.3,3.8l-6.2,1c-4.6,1.2-9.1,2.8-13.5,4.6
			l-11.2,4.5C1172.6,1000.7,1171.1,999.7,1169.9,998.2z"/>
		<path class="st0" d="M1045.6,926.2c-1.3-0.4-2.7-0.7-4.1-0.8c-2.1-0.3-4-1-5.7-2.2c-1.5-1.4-3.1-1.6-7.7-1.2
			c-7.3,0.6-8.1,0.3-8.8-3.5c-1.2-6.4-1.3-7.2-1.4-8.4c-0.3-1-0.8-2-1.6-2.7c-1.4-1.4-1.9-1.3-4.8,0.4c-1.6,1-3.4,1.7-5.3,2
			c-2.5,0-6-3.5-4.5-4.5c1.1-0.7,1.4-6.7,0.5-10.2c-0.4-1.3-2.1-2.8-4.7-3.8c-7.4-2.9-15.2-14.9-12.6-19.6c0.6-1.1,1.5-2,2-2
			c1,0,2.8-3.8,3.3-7.2c0.4-1.4,1.2-2.7,2.4-3.6c1.4-1.2,2.4-2.6,3.1-4.3c1-2.5,1.2-2.6,5.3-1.7c2.4,0.5,4.7,1.4,6.8,2.7
			c3.5,2.4,7.2,1.7,9.5-1.9c1.9-2.9,2.2-3,7-2.3c2.2,0.3,4.5,0.6,6.8,0.6c1.4-0.1,1.7,0.6,1.4,3.4c-0.1,1.3-0.3,2.5-0.8,3.7
			c-4.4,3-7.9,6-8.3,7.4c-0.3,1-1.9,2.7-3.6,3.8c-3.5,2.3-3.7,3.5-1,6c2.4,2.2,8.3,1.4,10.3-1.3c2.3-3.3,7.4-5.1,11-4
			c4.7,1.4,8.3-0.3,10.4-4.9c1.8-3.9,2-9.1,0.4-10.6c-0.5-0.5-1.8,0-3,1.2c-1.5,1.4-3.5,2.1-5.5,2.1c-7.5,0-8.2-2-3.6-10.7
			c1.7-3.1,3-6.7,3-7.9c0-3-3.3-10.6-5.4-12.3c-0.9-0.8-1.5-1.8-1.6-3c0-2.8-5-11.5-8.2-14.3c-2.1-1.8-3.4-4.3-3.8-7
			c-0.4-2.4-1.3-7.2-1.9-10.8c-0.7-4.3-1.1-8.6-1.2-13c-0.1-7.5-1.9-11.6-5.7-12.4c-2.1-0.6-4-1.5-5.8-2.6c-3.6-2.2-4.2-5.2-1.8-8.8
			c1-1.3,1.3-3,0.6-4.5c-0.9-2.4-0.8-3.3,0.3-8.7c0.8-3.4,0.2-3.7-8.9-3.3c-2.2,0.1-3.7-0.1-3.4-0.4s-0.2-3.8-1.2-7.8
			c-1.3-5.7-2.1-7.3-3.6-7.5c-1.2-0.3-2.3-1-3-2c-1.4-2.3-5.5-17.3-4.9-17.9c1-1,12.7,9.3,16.7,14.8c2.4,3.3,5.1,5.9,6,5.9
			s2.6,1.3,3.8,2.9c1.5,2,3.4,3.6,5.5,5c2.5,1.7,4.4,4.2,5.5,7.1c1.4,3.2,2.8,5,3.9,5c0.9,0,2.7,1.5,3.9,3.4c1.7,2.6,3.1,3.5,6.2,4
			c3.5,0.6,4.4,1.2,6.3,4.9c1.3,2.6,2.2,5.4,2.8,8.2c0.5,3.7,0.9,4,5.2,5.3c2.5,0.7,5.4,2.2,6.3,3.2c1.6,1.7,1.6,2.3,0.2,6.8
			c-1.2,4.1-1.2,5.3-0.1,7.3c0.8,1.6,1.4,3.2,1.9,4.9c0.5,2.2,2,3,11.3,6.2c5.9,2.1,11.6,3.8,12.6,3.8s3.5,1.9,5.6,4.2l3.8,4.2
			l8.9,0.4c4.9,0.2,10.6,1.1,12.7,1.9c3.9,1.5,6.3,1,9.4-2.1c1-1,2.8-0.8,8.5,0.8c4,1.1,7.6,2.4,7.9,2.9c1.3,2-0.4,5.7-3.1,6.8
			c-1.6,0.6-5.2,3.9-8.2,7.2s-6.7,7.5-8.3,9.2l-7.7,8.1c-4.8,5.1-7,11.1-4.4,12c2.1,0.8,12.4-10,13.1-13.8c0.4-2.4,3-5.9,8.3-11.6
			c6.9-7.4,8-8.2,11.4-8.2c3.1,0,4.1,0.6,6,3.3s2.7,3.2,4.8,2.6c4.7-1.3,9.7-1,12.1,1c2.7,1.9,5.5,3.6,8.4,5.2
			c3.3,1.8,6.1,3.4,6.3,3.5s-0.2,1.4-0.9,2.8c-1.7,3.7,0.3,9.7,4.6,14c3.3,3.3,7.5,10.4,7.5,12.6c0,1.7-6.8,12.1-10.2,15.7l-3,3.2
			l-4.1-5.2c-1.5-2.1-3.2-4-5-5.9c-0.5-0.4-2.6,0.1-4.5,1.1c-2.8,1.3-5.8,2.3-8.8,3c-4.2,1.1-8.4,2.4-12.5,4c-4,1.5-12.2,4.7-18.3,7
			s-13.2,5.1-15.8,6.2c-9.5,4-30.3,11.2-34.2,11.8c-3.2,0.6-5.1,0.2-9.6-2c-3.1-1.5-6-2.4-6.6-2.1s-1.1,2.5-1.2,4.7
			c-0.2,4.9-1.2,13.9-1.7,14.4S1046,926.6,1045.6,926.2z"/>
	</g>
	<g id="CA-NS">
		<path class="st0" d="M1092.5,1140.4c-5.8-1.3-8.7-4.6-11.1-12.8c-1.2-4.1-1.3-6.4-0.7-8.2c1.5-3.9,8.1-13.6,12.4-18.3
			c2.1-2.3,4.5-5.1,5.2-6.1c1-1.2,2.3-2.1,3.9-2.6c2.8-0.7,11.5-6.6,11.5-7.8c0-1-4.5,0.7-9.8,3.8c-9.2,5.4-7.9-3.4,2.2-14.9
			c4.5-5.1,5.5-5.8,8.6-5.7c9.5,0.3,20.2-1.4,23.7-3.8c2.2-1.5,4.2-2.1,5.2-1.7c2,0.5,4.1,0.8,6.2,0.9c5.3,0.2,9.4,2.5,11.1,6.2
			c1.1,2.3,0.7,3-5.3,8.9c-3.5,3.5-7.1,7.2-7.9,8c-3.6,3.8-12.3,10.5-14.4,11c-1.3,0.3-3.5,2.6-5.2,5.6c-2.7,4.6-3.2,4.9-6,4.5
			c-2.6-0.4-3.3,0-4.2,2c-0.5,1.1-0.9,2.3-1.1,3.5c-0.8,2.8-1.8,5.6-3,8.2c-2.3,5.5-4.6,8.9-9.6,13.9c-2.1,2.3-4.4,4.5-6.7,6.6
			C1097.4,1141.5,1095.1,1141,1092.5,1140.4z"/>
		<path class="st0" d="M1159.8,1064.5c-0.8-0.7-3.7-3.6-6.4-6.5c-3.6-3.8-4.6-5.6-3.8-6.5c0.6-0.7,2.4-5.4,4.1-10.5
			c3.4-10.3,6.7-17.2,8.1-17.2c1.8,0,4,4.5,4.1,8c0,5.7,1,7.8,3.8,8.5c3.5,0.9,8.2,5.4,8.2,7.9c0,1.1-1.4,4.2-3.1,6.8
			c-2.2,3.5-3.7,4.8-5.4,4.8c-1.4,0-3.1,1.1-4.5,3C1162.4,1066.1,1162,1066.2,1159.8,1064.5z"/>
	</g>
	<g id="CA-NT">
		<path class="st0" d="M200.9,366c-2.6,0.1-5.1,0.3-7.6,0.7c-5.4,0.7-10.4,1.4-11.1,1.7c-1,0.4-1.2,1.9-0.8,5.3
			c0.6,5.6-0.7,7.1-3.1,3.5c-0.9-1.4-2-2.5-2.3-2.5c-1.7,0-16.2,26.3-19.1,34.5c-1.3,3.8-2.8,7.6-4.6,11.2c-2.3,3.5-1.8,4.5,4.8,9
			c14,9.5,14.4,10.5,8.6,22.3c-2,4.1-3.9,9.4-4.2,11.7c-0.4,3.9-0.2,4.4,3.4,7.3c2.1,1.7,3.7,3.5,3.4,3.9c-0.5,2.1-0.7,4.3-0.7,6.5
			c-0.2,6.2-1.4,8.2-5.5,9.2c-2.8,0.7-4.4,3.1-4.4,6.8c0,1.4-0.4,2.6-0.9,2.6s-1.2,1.2-1.5,2.6c-0.5,1.7,0,3.6,1.4,4.8
			c1.4,1.5,2.1,3.5,2.1,6.6c0.2,3.3,1,6.4,2.4,9.4c1.6,3.4,2.2,6,1.9,8.2c-0.3,2.5,0.2,5,1.5,7.2c2,3.9,2,4,0.2,9.9
			c-2.7,9.7-4.6,19.7-5.5,29.8c-0.2,3-0.6,6-1.1,9c-0.4,1.3,0.2,2.9,1.6,4.5c2.7,3.1,4.3,6.9,5.9,14c1.5,6.4,3.4,10.6,6.3,13.8
			l2.1,2.2L172,624c-1.5,1.7-2.3,3.8-2.2,6.1c0,2-0.3,3.9-1.1,5.7c-0.9,1.8-0.4,2.3,5.2,4.8c3.5,1.6,6.9,3.4,10.2,5.5
			c3,2.1,4.5,2.5,7.2,2c4-0.8,3.8-1.8,3.8,14.4l0.1,12.3l11,4.4c38.8,15.5,78.3,29,118.5,40.4c11.8,3.4,28,8.1,36,10.5
			s15.9,4.7,17.5,4.9s9.8,1.9,18,3.6s16.2,3.3,17.8,3.5s7.4,1.4,13,2.5s11.6,2.2,13.2,2.5s9.3,1.8,17,3.4
			c15.8,3.2,21.5,3.7,21.6,1.8c0-0.7,0.2-2.1,0.4-3.1s0.6-5.8,1-10.5s0.8-9.8,1-11.1s0.6-5.4,0.9-9c0.9-10.2,2.5-26.5,3-31.5
			c0.2-1.7,0.6-7,1-12s0.8-9.7,1-10.5s0.6-5.3,1-10s1.1-12.2,1.6-16.8s0.7-8.7,0.4-9.2s-7-4.2-14.8-8.3
			c-16.5-8.7-33.5-17.7-46.1-24.5l-8.9-4.8l-6.2-10l-6.2-10l-11.3-2.4l-11.3-2.4l-9.7-13.1c-5.3-7.2-13.7-18.7-18.7-25.6
			s-14.7-20.3-21.7-29.8s-13.4-18.4-14.2-19.7c-1.5-2.2-1.3-3,2-11.7c12.3-32.6,12.3-32.5,6.1-40.6c-1.9-2.5-3.4-4.9-3.4-5.3
			c-0.1-0.5-0.6-0.9-1.1-0.8c-1.4-0.4-2.6-1-3.8-1.9c-2-1.2-4.3-2-6.7-2.3c-3.4-0.4-4.6,0-8.1,2.9s-4.5,3.2-6.8,2.3
			c-3.3-1.3-3.3-2,0.3-5.5c1.6-1.6,2.7-3.3,2.3-3.9s-0.7-3.4-0.7-6.3c0-8.7-1.4-8.7-10.1,0c-2.6,2.7-5.3,5.3-8.1,7.7
			c-0.7,0-3.8-3.3-3.9-4.2c-0.1-0.5-0.2-6.6-0.2-13.7c-0.1-12.7-0.2-12.9-2.7-14c-3.6-1.6-5.2-1.5-8.2,0.9c-1.9,1.5-3.8,2-7.4,1.8
			c-3.2-0.1-4.5-0.6-3.9-1.3c0.7-1.2,1.1-2.5,1.3-3.9c0.5-2.5,0-3-4.1-5.1c-4.6-2.3-11.9-2.8-18.1-1.3c-4.3,0.6-8.6,1-13,1.2
			c-7.6,0.4-10.7,1-11.3,2.1c-0.4,0.8-2.2,1.4-3.8,1.4c-2.8,0-2.9-0.2-2.9-4.2C204.8,367.6,204.6,366,200.9,366z M283.7,506.2
			c26,0.1,28.1,0.5,28.1,4.6c0,1-2.1,3.6-4.8,5.8c-3.2,2.7-4.4,4.3-3.8,5c1.2,1.2,15,6.8,21.8,8.8c4.7,1.4,4.8,1.5,4.1,4.7
			c-0.7,3.4-2.2,5.7-3.6,5.7c-1.7,0.6-3.3,1.5-4.8,2.6l-3.9,2.6l-5.8-2.7c-3.2-1.5-6.7-3.1-7.7-3.7c-2.5-1.3-3.9,0.3-6.1,6.9
			c-2,6.2-2.4,6.6-10.3,9.2c-2.4,0.9-4.8,1.6-7.2,2.1c-1.9,0-1.1-2.9,1.8-6.2c5.9-6.9,5.8-6.8,2.4-6.8c-2.2,0.2-4.4,1.1-6.1,2.6
			c-4.9,4.1-8.7,4.8-13.2,2.2c-2.1-1.2-4.3-3.3-5-4.7c-1.1-2.3-0.7-2.9,5.9-9.2c3.9-3.7,9.1-7.7,11.5-8.8s4.6-2.9,4.9-3.9
			c0.8-2.9-3.2-6-7.8-6.1c-3.5-0.3-7-1.1-10.3-2.2c-5.3-1.8-6.5-2.6-6.8-4.6c-0.2-1.3,0.1-2.7,0.7-3.1S270.1,506.1,283.7,506.2
			L283.7,506.2z M317.7,634.8c0.4,0,2.2,2.1,4.1,4.6c2,2.8,4.3,5.4,6.8,7.8c5.4,4.8,9.3,9.3,11.8,13.4c2,3.3,3,3.9,8.9,5.4
			c6.2,1.6,7,1.6,12.5,0c4-1.1,6.6-2.6,8-4.4c3-3.9,6.8-5.5,13.1-5.9c5.4-0.3,5.4-0.3,5.2,2.5c-0.3,4-4.2,8.5-8.6,9.7
			c-2.1,0.6-5.7,2.9-8,5.2c-3.2,2.8-6.9,5.2-10.8,7c-3.6,1.6-8.2,3.9-10.3,5s-4.9,1.8-6.3,1.5c-1.8-0.3-3.5,0.3-5.7,2.3
			c-2.1,1.8-4.5,3.2-7,4.4c-2.1,0.9-4.3,1.4-6.5,1.4c-18.5-1.7-20.2-2.3-29-10.5c-8-7.4-7.9-9.3,0.4-9.3c3.1,0,6.5,0.5,7.5,1
			c2.3,1.2,5,0.1,9.2-3.9c2.2-2,3.6-2.5,6.8-2.3c4.6,0.3,6.9-1.1,6.9-4.3c0-3-4.1-14.7-7.7-22.1
			C316.4,637.5,315.9,634.7,317.7,634.8L317.7,634.8z"/>
		<path class="st0" d="M424.3,442.7c-7.1-2.1-18.4-5.4-25-7.4s-15.6-4.6-20-5.8c-7.5-2.1-7.8-2.3-4.5-2.8c4.8-0.4,9.7-0.4,14.5-0.1
			c8.9,0.4,11.9,0.9,15.6,2.7c4.6,2.3,16.8,5.9,17.5,5.2c0.2-0.2-2.3-3-5.6-6.1c-6.2-6-11.1-8.6-15.8-8.6c-3.5,0-19.3-4.1-25.7-6.7
			c-4.6-1.9-5-2.3-6.7-7.9c-0.8-2.3-1.4-4.7-1.9-7.1c0-1.1,4.7-2.8,18-6.4l4.5-1.2l-3.5-0.8c-2.1-0.5-4.2-0.8-6.3-1.1
			c-3-0.3-6.3-4.8-5.3-7.4c0.3-0.8,0-1.7-0.7-2.2c-1.2-1-2.2-2.2-3-3.6c-2.4-3.7-1.5-7.4,2.8-11.9c4-4.2,5.5-6.9,5.5-9.5
			c0-5.1,14.8-13.2,29.6-16.2c5.4-1.1,11.9-2.3,14.5-2.6c4.5-0.6,4.7-0.5,5.7,2.4c1.2,3.6,0.1,9.3-2.9,15.2
			c-1.2,2.2-1.9,4.4-1.5,4.7s2.6-1.1,5.1-3.1l4.5-3.7l6.2,3.6c3,1.7,5.9,3.6,8.7,5.6l2.4,2.1l-2,4.8l-2,4.8l4.1-0.9
			c1.7-0.3,3.3-0.8,4.8-1.6c0.4-0.4,0-2.6-0.8-5s-1.3-4.4-1.2-4.5c4.2-2.7,5.8-3.4,6.2-2.8c0.5,0.9-21.2,88.4-22.2,89.4
			C437.6,446.2,431.5,444.8,424.3,442.7z"/>
		<path class="st0" d="M325.4,377.6c-0.2-0.8-0.9-5.2-1.5-10c-0.9-7.9-1.5-9.4-6.5-17.9c-3-5.1-5.5-9.8-5.5-10.4c0-1.6,3-5,6-6.8
			c1.4-0.9,5-5.6,8-10.4c2.2-3.8,4.7-7.4,7.4-10.9c1-1.1,5.2-6.4,9.3-11.8c7-9.4,7.4-10.1,7.5-15.5c0.1-3.1,0-6.3-0.1-7
			c-0.2-1.8,2.8-5.1,4.3-4.6c1.6,0.4,3.2,0.6,4.9,0.8c3.1,0.5,6.1,1.4,9,2.5c3.1,1.2,6.3,2.3,9.5,3.1c3.4,0.9,4.4,1.6,5.3,4.3
			c0.6,1.8,3.5,5.7,6.5,8.7c5.4,5.4,5.4,5.5,11.2,5.3c8.2-0.2,9.3,1,13.9,15.3c5.9,18.2,5.1,20-10,23.7c-7,1.7-13.9,4.7-15.6,6.8
			c-1.1,0.8-2.3,1.4-3.5,1.8c-2,0.9-3.9,2-5.5,3.4c-1.4,1.2-5.5,4.5-9.2,7.2c-5.4,4-7.4,6.4-10.3,11.7c-2,3.7-4.6,7.3-5.8,7.9
			s-2.2,1-2.2,0.9s-1.2-0.1-8.5,1.5c-1.4,0.3-6,0.8-10.2,1.1C327.6,378.8,325.7,378.6,325.4,377.6z"/>
		<path class="st0" d="M441.4,302.7c-2.5-2.8-4.6-5.9-4.6-6.9c0-2.5,4-4.9,10.2-6.2c10.1-2.1,13.1-5.4,4.9-5.4
			c-3.3,0-4.6-0.5-6.1-2.5c-1.8-2.4-1.9-2.4-3.8-0.7c-2.4,2.1-8.1,2.8-10.9,1.3s-12.2-12.7-12.9-15.4c-0.6-2.5,1.9-6.2,4.3-6.2
			c0.7,0,1.4-0.3,1.4-0.8c0.1-2.7,1.3-5.3,3.4-7.2c1.4-1.5,2.6-3.6,2.6-4.6c0-2.7,5.7-9.4,8-9.4c1,0,2.5-1.1,3.5-2.5
			c1.4-2.1,2.4-2.5,6.5-2.5c6.4,0,10.1,2.8,10.1,7.6c0,2.9,0.6,3.8,3.8,5.9c5.1,3.4,7.5,8.5,7.7,16.4c0.2,7,1.6,9.1,6.4,9.1
			s5,0.7,1.7,14.2c-2.2,9.3-3.5,12.8-4.6,12.8c-0.8,0-4.1,1.8-7.2,4c-5.3,3.7-6.2,4-12.7,4h-7L441.4,302.7z"/>
		<path class="st0" d="M410.6,258c-1-0.2-2.2-2.1-2.8-4.1c-1.4-5,0.7-7.6,8.4-10.8c6.7-2.7,8.9-3,10.3-1.1c1.8,2.3,1,4.9-2.5,7.6
			c-1.9,1.5-5.1,4.1-7,5.9s-3.8,3.2-4.1,3.1S411.5,258.3,410.6,258z"/>
		<path class="st0" d="M401.4,241.2c-1-1.1-1.5-2.5-1.6-4c0-2.3-0.3-2.4-5.5-2.4c-8.9,0-11.8-4.4-7.2-11c1.6-2.4,3.5-3.6,6.8-4.5
			c3.2-0.9,6.4-2.2,9.3-3.8c2.6-1.5,5.2-2.4,5.6-2.2s4.1-2.5,8-6.2c9.2-8.6,10.7-9.4,18.3-9.2c2.9,0.1,5.8,0,8.7-0.3
			c3-0.5,7.5,1.5,8.4,3.8c1.9,5-0.2,10.7-5,13.3c-1.1,0.6-1.8,2.7-2.1,6c-0.5,4.8-0.8,5.3-4.9,7.7c-2.4,1.4-4.8,3.4-5.4,4.4
			c-1.3,2.5-4.7,3.5-6.6,2c-2.2-1.8-1.9-8.6,0.5-10.7c0.9-0.6,1.6-1.5,2-2.5c0-1.2-3.7,2-13.6,12
			C407.6,243.1,404.7,244.5,401.4,241.2z"/>
		<path class="st0" d="M479.1,213.8c-3.2-1.4-4.4-2.8-6.2-7c-1-2.1-1.7-4.3-2.2-6.6c-0.3-1.1-1-2.1-2.1-2.6
			c-5.4-3.3-7.7-12.8-3.1-12.8c2,0,5.1,3,5.1,4.9c0,0.9,0.9,1.1,3.2,0.6c4.2-0.9,21.6-1.8,23.2-1.1c1,0.4,1.1,1.5,0.3,4.8
			c-0.5,2.4-1.2,5.2-1.4,6.3c-1.5,7.6-2.9,11.6-4.5,13C489.2,215.6,483.8,215.9,479.1,213.8z"/>
		<path class="st0" d="M496.8,184.9c0-0.5-1.3-1.4-2.9-2.1c-1.7-0.8-3.3-1.8-4.7-3.2c-1.1-1.3-2.9-1.9-4.5-1.4
			c-1.5,0.3-3,0.1-3.4-0.4c-1.5-2.5,6-9.1,8.6-7.5c0.9,0.3,1.8,0,2.4-0.6c1.3-1,8.9-0.9,9.9,0.2s-3.1,15.8-4.2,15.8
			C497.4,185.7,496.8,185.3,496.8,184.9z"/>
	</g>
	<g id="CA-NU">
		<path class="st0" d="M501.3,500.8c-4.9-1.2-12.3-5.4-17.6-10.2c-2.1-1.8-4.4-3.2-6.9-4.4c-2.2-1-4.1-2.4-4.1-3.2s-0.2-1.9-0.2-2.6
			c-0.2-2.2-4.4-2.1-5.1,0.2c-0.9,3-6,5.2-12.9,5.8c-3.3,0.3-6.6,1.1-7.3,1.8c-3,3-8.4,3.7-22.7,3c-21.2-1-27.6-2.1-27.7-4.8
			c0-0.7-0.2-3.1-0.5-5.3s-0.6-6.6-0.9-9.9c-0.5-6.8-2.3-9.2-7.6-10.1c-6-1-18-9.5-18-12.6c0-0.5-0.1-1.1-0.2-1.6
			c-0.1-0.4-1-4.4-2-8.8s-1.8-8.3-1.8-8.7c0-0.8,0.2-0.7,43.3,12.1c17,5,31,9,31.2,8.8s5.3-20.4,11.5-44.8s11.3-45.1,11.6-46
			s2.3,3,4.5,8.5c3.9,9.7,4,10.3,3.6,19.7c-0.5,11.4,0.6,14.5,4,11.1c1.7-1.7,2-3.1,1.7-9.4c-0.2-4.1-0.5-13-0.8-19.8l-0.5-12.4
			l3.2-3.3c3-3.1,3.4-3.3,7.1-2.4c2.4,0.6,4.6,1.9,6.3,3.7c2.3,2.7,2.4,2.7,0.8,0.2c-1-1.8-1.8-3.7-2.5-5.6c-1.2-4.2,2-7.9,7.9-9
			c5.3-1,9.3,0.8,13.4,6.2c3.8,4.9,2.8,9.1-4.1,17.6l-5.5,6.8l0.2,12.5c0.3,14,1.2,22.3,3.2,28.1c1.2,3.6,1.1,4.4-1.1,9.3
			c-1.7,3.9-2.2,6.3-1.8,9c0.9,5.5,7.2,13.7,16.3,21.4c10.6,8.8,14.3,15.6,12.1,21.9c-1,3-1.1,3-6.7,2.4c-3.1-0.4-6.1-1-6.6-1.5
			c-0.6-0.5-1.3-0.8-2.1-0.9c-2.6,0-2.2,3.3,1.1,8.5c5.5,8.6,4.4,14-3.7,17.8C509.9,501.8,506.4,502,501.3,500.8z"/>
		<path class="st0" d="M779.9,954c-5.1-2-6.1-2.8-6.1-4.9c0-2.7,0.5-3,7.4-3.8c4.6-0.5,5.1-0.3,7.8,2.7c3.7,4.1,3.5,8.1-0.4,8.3
			C787.2,956.4,783.3,955.3,779.9,954z"/>
		<path class="st0" d="M570.7,764.3c-2.8-0.6-5.6-0.9-8.4-1.1c-2.8-0.2-5.7-0.5-8.5-1c-2.8-0.5-5.7-0.8-8.5-1
			c-4.4-0.4-8.2-0.8-8.5-1c-2.3-0.4-4.7-0.8-7-0.9c-3.6-0.4-8.5-0.9-11-1.2c-9.4-1-12.8-1.4-24-2.5c-11.6-1.1-13.4-1.5-12.6-2.8
			c0.6-3.4,1-6.8,1.1-10.2c0.4-5.2,0.8-10.2,1-11s0.6-5.3,0.9-10s0.8-9.6,1.1-11s0.7-5.7,1-9.5c0.7-8.4,1.4-16.4,2-22.5
			c0.3-2.5,0.7-6.8,0.9-9.5c1.6-18,2-22.2,3.1-32c0.4-3.3,0.7-7,0.8-8.3c0.1-1.9-1.2-3-7.8-6.5c-10.1-5.4-28.7-15.2-43.5-23
			c-6.3-3.3-13.3-7-15.5-8.2c-3.9-2.1-5.9-4.7-13.6-17.1l-3.6-5.8l-11.4-2.4l-11.4-2.4l-5.6-7.6c-3.1-4.2-14.7-20.2-25.9-35.6
			s-23-31.6-26.2-35.9s-5.8-8.4-5.8-9c0-1,12.9-36.6,13.6-37.4c1.2-1.5,10.9,7.3,14.8,13.4c2.6,4.1,10,10.3,14.8,12.5
			c2,0.9,3.1,0.9,4.8,0c1.9-1,2.8-0.7,6.6,2.4c2.3,1.9,4.4,4,6.3,6.3c2.4,3.4,6.2,12,6.2,13.9c0,2.6-2.6,4.1-8,4.8s-10,2.9-10,4.8
			c0.5,1.5,1.2,3,2.2,4.3c1.9,2.7,3.7,3.7,12.2,6.3c15.8,4.8,18.8,5.3,26.1,4.1c3.1-0.4,6.1-1.2,9.1-2.2c2.4-1.1,2.8-1,4.3,1.2
			c0.9,1.4,4.3,6,7.6,10.3c7.8,10.2,10.4,15.2,9.8,19.1c-0.3,2.3-0.2,2.7,0.6,1.6c0.6-0.9,0.8-5.4,0.4-11.7l-0.6-10.2l10.6-5.2
			c6.1-3,10.8-6,11-7c0.4-1.6,0.2-1.6-3.7,0c-3.1,1.2-6.2,2.3-9.4,3.1c-4.9,1.2-5.4,1.2-8-0.7c-6.8-5-1.1-14.6,9.1-15.2
			c3.1-0.3,6.1-1,9-1.9c2.5-0.9,5.2-1.3,7.9-1.4c3.3,0.4,6,4.1,6.3,8.6c0.2,2.3,0.9,4.5,1.9,6.5c2.5,4.8,10.1,12.1,12.8,12.3
			c1.1,0,2.2,0.2,3.3,0.3c0.5,0.1,1.5,0.3,2.1,0.4s3,3,5.3,6.5l4.1,6.4l6.1,0.6c3.4,0.3,9.1,0.6,12.7,0.6c4.6,0.1,9.2,0.8,13.6,2
			l7,2c0,0,0.1-1.6,0.2-3.7c0.2-2.6,0.8-5.1,1.8-7.5c0.8-2.1,1.4-4.3,1.5-6.5c0-2.5,0.1-2.6,4.6-2c6.5,1,12.8,3.2,18.7,6.3
			c2.9,1.4,5.4,2.8,5.6,2.9s-3.4,13.9-5.4,20.2c-0.2,0.7,0.7,1.7,2,2.2c1.7,0.9,3,2.4,3.6,4.2l1.3,3.3l0.7-3c0.4-2,0.1-4.2-0.8-6
			c-0.9-1.8-1.5-5.8-1.6-9.8c0-7.2,1-8.9,4.6-8s10.6-2.6,13.8-7c2.5-3.5,3-5.1,3-9.8c0-4.4-0.5-6-2-7.5c-2.3-2.1-2.8-9.3-0.8-11.3
			c1.7-1.7-4.4-7.3-10.1-9.1c-3.4-1.1-5-2.5-7.8-6.9c-3-4.6-3.5-6.3-3.5-11.3c0-3.2,0.5-6.7,1.1-7.8c0.8-1.5,0.5-3.3-1.6-8.2
			l-2.7-6.2l1.9-5.6c1.6-4.7,2.6-6,6.1-7.9c3.8-2.1,4.1-2.5,3.1-4.7s-0.6-2.9,2.3-6.5c7.8-9.7,7.1-9.1,10.7-8.4
			c2,0.2,3.7,1.5,4.5,3.4c1.3,2.3,2.9,4.3,4.9,6c6.8,6,7.8,8.1,8.2,17.8c0.3,8.5,0.5,9,5.5,17.3c6.2,10.4,6.9,16,1.7,14
			c-2-0.8-2.2-0.6-1.8,2.2c0.1,2.4-0.2,4.7-0.9,7c-1.2,3.8-1.2,4.1,0.9,5.8c1.8,1.5,2.8,1.6,5.9,0.8c3.8-1.1,7.2-0.4,14.8,2.8
			c3.2,1.3,3.5,1.8,2.3,2.9c-0.8,0.8-3.4,1.6-5.9,2c-7,1-7.6,2.6-2.9,9.4c3.7,5.4,4.5,8.1,4.9,16.1c0.2,4.2,1.8,0.2,2.5-6.5
			c1.2-10.4,2.5-13.6,6.5-15.2l3.5-1.5l6.7,7.4c4.7,5.1,7,8.6,7.8,11.5c1.6,6.3,1.3,10.1-0.9,12.3c-1.2,1.3-1.9,3.1-2,4.8
			c0,2.9,1.8,9.2,3,10.2c1.4,1.8,2.7,3.8,3.9,5.8c1.8,2.9,3.6,5.2,4,5.2c1.5,0,5.3-3.4,6.1-5.5c0.7-2.7,1.2-5.4,1.5-8.2
			c0.3-3,0.9-6,2-8.9c1.3-3.3,2.5-6.6,3.5-10c1.2-4,2.8-7.9,5-11.5c3.6-5.3,3.8-7.5,0.9-10.6c-2.4-2.5-5.3-14.5-4.3-17.8
			c1.3-4.3,3.5-5.6,9.1-5.6c4,0,6.8,0.7,11,3c3.1,1.6,6.5,3,7.6,3s3.4,1.5,5.2,3.4c2.2,2.2,4.8,4.1,7.5,5.6c4.2,2.1,7.9,5.6,8,7.4
			c0,0.5-0.7,1.4-1.6,2.1c-1.5,1.1-1.5,1.4,0.5,4.1c1.3,2,2.2,4.2,2.7,6.5c0.6,3.4,0.4,3.7-2.4,4.7c-1.7,0.6-3.1,1.7-4.1,3.1
			c-0.6,1.2-1.8,1.9-3.1,2.1c-2.7,0-2.5,1.9,0.5,5.4c1.5,1.8,2.5,3.9,3.1,6.2c0.5,2.3,1.9,4.3,3.9,5.5c7.1,4.8,7.1,14.9,0,27
			c-8.4,14.3-9,15-13.3,14.5c-2.3-0.3-4.5-1-6.5-2.1l-2.7-1.7l1.6,3.8c1.7,4.2,0.7,6-3,4.8s-5.2-1.1-6.7,0.3c-1.4,1.2-2.1,1.2-5,0
			c-1.9-0.8-3.6-2-4.9-3.6c-1.3-1.8-2.1-2-5.5-1.5c-2,0.3-3.9,0.8-5.8,1.6c-1.6,0.8-1.4,1.3,1.8,4.3s3.6,3.7,2.9,7.6
			c-0.5,3-2.2,6-6.1,10.5c-3,3.5-5.7,7.5-6,8.8s-1.1,2.5-1.8,2.5s0.1,1,1.7,2.3c2.4,1.9,2.8,2.9,2.5,6.2c-0.2,2.3-0.8,4.5-1.9,6.5
			c-0.9,1.4-2.5,3.8-3.6,5.5s-4,6.5-6.4,10.7c-5.1,8.8-6.7,9.8-16.4,9.8c-7.2,0-9.2,1.5-9.7,7c-0.3,3.4-0.4,3.5-4.8,3.4
			c-2.4,0-4.8-0.3-7.2-0.7c-4-0.9-4.3,0.8-0.5,3.3c1.8,1.2,3.4,2.4,3.6,2.5c1,0.8,1.2,8.7,0.2,11.7c-1.3,4-5,5.9-12,6.2
			c-7.8,0.3-7.5,0.2-5.8,2.7c1.4,2.1,1.3,2.5-2.1,5.8c-5.4,5.3-9.9,11.4-13.6,18c-1.2,2.4-2.7,4.6-4.5,6.5c-2.6,2.4-5,6.7-5,9.2
			c0,1-2.3,6.7-5.2,12.7c-4.3,9.2-5.2,11.8-5.1,16.3l0.1,5.3h-4.3C573.8,764.8,572.2,764.7,570.7,764.3z"/>
		<path class="st0" d="M772.7,709c-5.3-3.3-5.1-13.1,0.4-19.1c2.2-2.4,4.8-2.3,8,0.5s1.6,14.4-2.5,18.2
			C776,711.1,776,711.1,772.7,709z"/>
		<path class="st0" d="M720.9,697.8c-2.3-4.3,1-14.2,5.8-17.5c3.9-2.7,5-2.9,12.7-2.7c4.7,0.1,5.2,0.4,6.4,3.1s1,3.4-1.9,7.9
			c-4.2,6.5-10.1,10.4-16.7,10.9C722.7,699.9,721.8,699.7,720.9,697.8z"/>
		<path class="st0" d="M698.6,676c-1.4-0.3-1.8-1.4-1.8-5.1c0-2.6-0.5-5.3-1.2-5.9s-3.7-1.2-6.8-1.3c-11.8-0.2-13.6-2.8-7.1-9.9
			c3.8-4.1,4.4-5.9,4.3-11.5c-0.6-19.7,0-25.9,3.9-41.2c1.2-4.8,1.6-5.2,4.8-5.8c3-0.6,3.8-0.3,5.8,2.2c1.6,2.2,2.9,4.6,4,7.1
			c1.5,3.6,2.2,4.2,4.8,4.3c2,0,5.9,2.1,11.5,6c4.7,3.3,11.3,7.8,14.7,10.2s6.2,4.9,6.3,5.8s1.1,3.3,2.5,5.5s2.5,4.8,2.5,5.8
			c0,1.5,0.7,1.7,5.3,1.2c4.7-0.5,5.6-0.3,8.9,2.2s3.7,3.3,3.3,6.3c-0.5,5.2-1.2,6.3-5.3,8.6c-3.7,2.1-3.7,2.1-8.2,0.2
			c-2.5-1.2-5.4-1.7-8.2-1.5c-2.9,0.4-4.1,0-5.8-1.8c-1.2-1.3-2-3.1-1.8-4.1c0.5-2.6-8.5-7.2-10.7-5.5c-0.9,1-1.5,2.2-1.5,3.6
			c-0.2,4-1.9,7.7-4.8,10.5c-1.8,1.8-3.4,3.7-4.9,5.6c-3.1,4.2-7,8.3-8,8.4C702.9,676.3,700.7,676.3,698.6,676z"/>
		<path class="st0" d="M567.2,518.4c-3.3-1.1-7.6-3.9-11.9-7.9c-1.7-1.5-3.4-2.8-3.8-2.8c-2,0-6.7-4.3-6.7-6.1
			c0-2.5,15.8-23.9,17.7-23.9c2.5,0,11.7,9.7,14.4,15.2c4.1,8.3,6.9,16.1,6.9,19.1c0,2-1,3.4-3.8,5.3
			C576,519.9,572.7,520.2,567.2,518.4z"/>
		<path class="st0" d="M938.5,669.2c-0.2-0.2-6.5-0.6-14.1-0.9c-10.8-0.5-14.2-1-15.8-2.3c-1.2-0.9-3.5-2.9-5.3-4.4
			c-2.7-2.3-4-2.6-8.1-2.4c-5.5,0.3-8.7-0.6-19.2-5.5c-6.3-2.9-7.2-3.7-8.4-7.2s-1.1-4,0.4-4.9c1.9-1,2.3-2.8,0.7-2.8
			c-0.6,0-3.3-1.5-6-3.4c-2.5-1.7-5.1-3.1-8-4.1c-1.9-0.4-3.6-1.7-4.5-3.5c-2.2-4.3-7.3-7.4-13-8c-4.2-0.4-5.3-0.2-7.2,1.8
			c-1.6,1.6-3.4,2.2-6.6,2.2c-3.7,0-5,0.6-8.6,4l-4.3,4h-8.3c-13.8,0-16.9-2.5-18.2-14.8c-0.5-4.3-0.2-5,2.6-7.6
			c2.4-2.3,3.1-3.8,3.1-6.7c0-2.6,0.6-4.1,1.8-4.7c1-0.5,7.1-1,13.6-1.1c10.8-0.1,12.2-0.4,15-2.5c4.4-3.3,9.2-5.6,11.7-5.6
			c1.8,0,2-0.4,1.5-2.2c-0.6-1.9-1.1-3.9-1.5-5.9c0-0.3-1.9-1.8-4.2-3.3c-3.9-2.6-4.1-3-3.6-6.6c0.3-2.3,1-4.5,2-6.7
			c0.8-1.5,3.8-7.4,6.6-13l5.2-10.2l-2-7.1c-1.9-6.7-7.7-16-12.6-20.1c-1.6-1.6-3-3.3-4.1-5.2c-1.9-2.7-4.4-4.9-7.3-6.5
			c-3.9-2.2-5.1-3.4-5.8-6.2c-0.8-3.1-1.1-3.5-3.8-3.2c-1.6,0.2-3.1,0.7-4.5,1.6c-1.8,1.3-3.7,2.4-5.7,3.4c-3.5,1.8-4.3,1.9-5.3,0.7
			c-1.7-2-0.3-5.5,3.3-8.7c3-2.7,3.1-2.8,1.1-4.2c-2.5-1.9-3.9-1.9-7.6,0c-3.9,2-5.9,1.2-5.9-2.4c0-1.9,0.7-3.2,2-3.8
			c1.9-0.8,1.7-1.2-2.8-5.6c-8.1-7.9-12.7-11.6-14-11.1c-0.7,0.2-1.2,2-1.2,3.9v3.4l-10.2,0.2c-5.6,0.1-13.2,0.2-16.9,0.1
			c-5.6-0.1-6.6,0.1-6.5,1.5s-1.1,1.6-8.4,1.5c-4.7-0.1-13.2-0.5-19-0.9c-6.4-0.5-11.9-0.4-14.1,0.2c-4.4,1.2-7.8-0.9-9.5-5.9
			c-1-2.9-1.5-3.3-4-3.1c-11.8,1-12.4,1-15.4-1.2c-6.6-4.9-12-12.7-12-17.4c0-1.5,1-2,4.6-2.5c2.9-0.4,5.8-0.6,8.7-0.6
			c3.5,0,3.9-0.2,2.6-1.4c-2.2-2-7.7-3.6-12.5-3.6c-3.1,0-4.4-0.5-5-1.8c-2-5.5-3-11.2-3-17c1.2-20.6,1.6-22.9,5.9-35.4
			c6.2-18.2,10.9-26.6,16.5-30c8.9-5.3,23.4-3.9,25.1,2.6c0.7,2.5,0.3,3.5-2.6,6.7c-2,2.2-3.4,4.8-4.1,7.6c-0.4,2.1-1.1,4.2-2.2,6.1
			c-1.8,2.8-4.3,13.2-3.5,14.5c0.3,0.5,0.7,4.2,0.9,8.3c0.3,8.2,0.8,9.4,3.4,9.4c1.2,0,2.1-1,2.5-2.8c0.5-1.7,1.2-3.2,2.3-4.6
			c1.3-1.5,1.4-2.1,0.4-3.5c-2.5-3.3-3.7-7.4-3.6-11.5c-0.1-3.7,0.4-5.2,2-6.5c1.1-0.9,2.1-2.1,2.7-3.4c0.4-1,1.1-1.8,1.7-1.8
			s1-0.9,1-2c0-3.6,7.6-14.4,11.8-16.7c4.4-2.5,14-4.3,17-3.1c1.8,0.7,3.5,3.2,9.6,14.4c3.8,7,6.7,14.9,6.1,16.9
			c-0.7,2.8,3,7.6,5.9,7.6c2-0.1,4-0.5,6-1.1c3.1-0.9,3.7-1.4,3.2-3c-1.1-3.4,5-8.3,12.1-9.8c5.6-1.2,6.3-1.1,9.5,0.8
			c1.8,1.1,3.8,1.9,5.9,2.1c3.1,0,7.5,3.7,8.5,7s3.4,6,5.6,6c1.3,0,1.9,1.1,2.4,4c0.4,2.2,1.1,4,1.5,4s3.4,2.5,6.4,5.5
			c4.6,4.5,5.7,5.2,6.1,3.8c0.3-1,1.2-3.2,2-5c1.6-3.6,2.5-3.7,11.2-0.6c3.6,1.3,4.6,2.2,6.4,6.5c1.2,2.9,3.3,5.6,4.9,6.6
			c1.6,0.9,2.9,2.2,3.9,3.8c2.1,3.9,4.5,4.7,7.5,2.4c3.2-2.5,5.6-2,11.5,2.2c3.7,2.7,4.2,3.5,3.6,5.8c-1.7,6.9-1.8,8.2-0.4,8
			c0.8-0.2,2.2-1.5,3.1-3c2.5-4,5.6-3.5,10.4,1.5c4.6,4.8,6.8,8.3,6.9,11.2c0.3,5.6,0.6,6.2,3.9,7.8c2.1,1.1,3.8,2.7,5,4.6l1.5,3
			l-4.6,2.7c-3.8,2.2-5,2.5-6.9,1.6c-3.1-1.4-3.8-0.5-1.9,2.4c1.5,2.3,1.5,6.4-0.2,10.5c-0.9,2.2,2.5,5.2,7.4,6.7
			c2.7,0.9,5.3,2.2,7.7,3.8c2.2,1.5,4.7,2.4,7.4,2.8c2,0.1,4.1,0.5,6,1.2c1.4,0.6,5.1,0.9,8.3,0.6l5.8-0.4l5.4,5.6
			c4.7,4.9,5.9,5.6,9.5,5.7c2.2,0.1,4.6,0.2,5.3,0.2s1.5,1.6,1.9,3.4c0.2,1.4,0.7,2.8,1.3,4c0.4,0.4,3.8-0.4,7.6-1.8l7-2.4l3.8,2.1
			c3.5,2,3.8,2.5,4.1,7.4c0.4,6.5-0.2,8.8-2.8,11.8c-1.9,2.2-1.9,2.5-0.4,4.2c1.3,1.5,1.5,2.3,0.6,4.3c-0.7,1.9-0.8,3.9-0.5,5.9
			c0.7,4.5-2.6,9.6-6.3,9.6c-2.1,0-2.4,0.3-1.8,2.2c1.1,3.5,4.3,9.5,5.4,10.2c2.1,1.3,0.9,3.4-3.1,5.3s-4.2,2-7.6,0.2
			c-2.7-1.3-5.5-2.4-8.4-3.1c-4.2-1.1-5.4-2-8.3-6.4c-3.8-5.8-10.8-12.5-13-12.5c-1-0.1-2-0.6-2.8-1.3c-4-4-10.8-6.4-10.8-3.9
			c0,0.5-1.2,1.4-2.6,2l-2.6,1.2l2.7,2.8c3.2,3.4,3.2,7.9,0,9.6c-1.6,0.8-1.9,1.5-1.3,3c0.4,1.1,0.8,1.6,0.8,1.2
			c0.1-1.2,7.3,2.2,8.7,4.1c0.7,1,3.1,3.8,5.3,6.3c3.9,4.4,5.3,5.1,15.7,7.8c3.1,0.8,4.3,1.7,4.8,3.5c0.4,1.5,1.3,2.7,2.6,3.5
			c1.8,1.4,3.3,3.1,4.5,5c2.9,3.9,6.1,7.6,9.5,11.1l7,7.2l-0.2,13.9c-0.1,7.7-0.5,14.1-0.9,14.4c-1.1,0.7-19.2-5.1-28.9-9.2
			c-4.7-2-10-4.8-11.6-6.3c-2.8-2.5-5.7-3-11.7-2.1c-1.7,0.2-0.6,1.9,2,3c1.9,1,3.5,2.6,4.6,4.5c1.5,2.8,3.2,3.9,9.5,6.3
			c6.4,2.8,12.6,6.1,18.4,9.8l10.8,6.9l-0.2,6l-0.2,6l-5.7,0.1C942.5,669.6,940.5,669.5,938.5,669.2z"/>
		<path class="st0" d="M793.1,665.4c-3.8-2.5-4.9-5.2-3.2-7.2s3.6-1.8,7.1,0.6c3,2.2,3.8,5.6,1.7,7.7
			C797.1,668.1,796.9,668,793.1,665.4z"/>
		<path class="st0" d="M804,654c-1.8-0.3-2.2-1-2-3.1s0.9-2.8,2.9-3c3.4-0.4,7.3,2.7,6.4,5.1C810.6,654.7,808.8,655,804,654z"/>
		<path class="st0" d="M787.8,542.9c-6.7-6.7-4.5-27.5,3.5-32.8c3.5-2.3,9-1.1,12.6,2.9c2.8,3.1,2.9,3.4,2.9,14.3
			c0,12.4-0.4,13.3-8.2,16.8C793.5,546.4,791.1,546.2,787.8,542.9z"/>
		<path class="st0" d="M815.3,524.5c-3-1.4-5.5-5.2-4.5-6.8c1.2-1.9,9.1-1.4,10.7,0.8c1.9,2.5,1.5,4.1-1.5,5.6
			C818.2,525,816.7,525.2,815.3,524.5z"/>
		<path class="st0" d="M755.5,498.1c-1-1-0.8-1.6,1.7-4.6c1.7-2.3,2.7-5,3-7.9c0.7-4.9,3-9.9,4.6-9.9s2,3.2,0.8,5.3
			c-0.8,1.7-1.1,3.6-1,5.5C765,492,758.1,500.7,755.5,498.1z"/>
		<path class="st0" d="M551.1,426.7c-2.6-2.1-4.8-4.7-4.8-5.7c-0.9-10.8-2.5-13.5-11.6-19.7c-1.7-1.2-4.6-4.9-6.3-8.1
			c-3.1-5.8-3.1-6.1-1.8-10.5c0.8-2.5,2.5-5.3,3.8-6.3c2.4-1.8,2.5-1.8,7.8,2.2c5.1,3.9,5.4,4,7,2.2c1.2-1.7,2.1-3.5,2.7-5.5
			c0.9-3.2,0.8-4-0.9-5.9c-4.8-5.2-6-8.5-4.9-13.4c1.1-5.4,4.2-10.2,6.4-10.2c0.9,0,3.9,1.4,6.8,3c4.5,2.6,5.4,2.8,6.5,1.5
			c2.5-3,13.4-5.3,15.8-3.3c0.7,0.6,1.2,3.3,1.2,6.3c0,4.1-0.4,5.4-1.8,6c-1.7,0.6-1.7,0.7,0,2c2.6,1.9,2.2,3-2.8,8.6
			c-2.5,2.8-4.5,5.5-4.5,6.1s1.3,1.5,3,2.1c2.3,0.8,3,1.7,3,3.7c0.1,1.8,0.6,3.6,1.5,5.1c3,5.2,3.7,7.7,4.2,14.7
			c0.4,6.4,0.2,7.6-2,11.1c-2.6,4.1-8.1,8.2-11,8.2c-0.9,0-1.4,0.4-1.1,0.9c1,1.6-4.2,6.7-7.9,7.8
			C556,430.5,555.5,430.3,551.1,426.7z"/>
		<path class="st0" d="M592.4,407.7c-2.1-1.7-2.6-2.9-2.6-6.4c0-2.4-0.3-4.8-1-7.1c-2.3-6.2-0.5-29.1,3-37c1.2-2.7,2.1-5.6,2.7-8.5
			c0.8-5.3,3.9-7,15-8.5c2.8-0.4,5.7,0.1,8.2,1.5c1.9,1,4,1.8,6.2,2.1c2.9,0,8.8,2.6,12.7,5.6c3.3,2.5,3.3,2.5,1.7,5.7
			c-0.8,1.7-1.8,3.3-3,4.8c-1,1.3-1.6,2.9-1.9,4.5c-0.3,1.6-2,5.1-3.9,7.9c-2.1,3.3-3.7,7-4.6,10.9c-0.7,3.2-1.7,6-2.3,6.2
			s-4,0.6-7.5,0.9s-6.8,0.9-7.2,1.3c-0.6,0.6-1.5,7.8-1.8,14c-0.1,1.6-5.3,4.3-8.4,4.3C595.7,409.5,593.9,408.8,592.4,407.7z"/>
		<path class="st0" d="M737,374.5c-4.6-7.5-11.3-21.9-10.8-23.3c0.9-2.3,21-2,25.2,0.3c5.8,3.1,12.9,10.6,16.2,16.9
			c2,3.7-0.9,5.5-8.4,5.2c-4.8-0.2-7.2,0.3-10.4,1.9C742.8,378.8,739.4,378.5,737,374.5z"/>
		<path class="st0" d="M637.3,327.2c-2.1-1.3-4.6-2.2-7.1-2.5c-5.1,0-6.6-1.9-7-8.8c-0.2-3.4-0.8-7-1.3-8
			c-1.6-2.9-2.2-12.3-0.9-14.5c0.6-1.1,1.2-4.5,1.3-7.6c0.2-4.7-0.2-6.1-2.5-9.1c-1.3-1.6-2.4-3.5-3.1-5.5c-0.3-1.7-1.4-2.1-7.8-2.6
			c-3.1-0.2-6.1-0.6-9.1-1.3c-2.3-1-11.5-12.6-12.1-15.4c-0.3-1.9-0.1-3.9,0.4-5.7c1.2-4.2,3.6-5,11.5-4.1c8.3,1,13.2,4.1,14.8,9.4
			c0.8,2.7,3.4,3.4,10,2.9c8-0.6,11.5,1.3,11.5,6.4c-0.1,1.7,1,3.2,2.5,3.7c3.8,1.8,4.9,5,3.2,9.8c-1.4,4.1-1.4,4.1,1.9,7.4
			c1.8,1.8,3.3,4.3,3.3,5.5c0,1.9,0.7,2.3,4.2,2.9c2.3,0.3,8.1,1.4,12.8,2.3l8.5,1.7l5.6-2.7c2.1-1.1,4.4-2,6.7-2.7
			c0.6,0,3-1.6,5.3-3.5c4.2-3.5,4.4-3.5,12.3-3.4c9.3,0.2,12.2,1,19.1,5.5c8.3,5.4,12.7,12.8,9.5,16c-0.7,0.7-0.6,2.1,0.2,4.1
			c1,2.6,0.9,3.5-0.4,5c-1.1,1.6-1.8,3.4-2,5.3c-0.3,3-1,3.8-5.2,5.9c-8.3,4.1-20.4,4.1-22.3-0.1c-0.8-1.8-1.2-1.9-2.4-0.7
			c-1.9,1.4-3.9,2.6-6,3.6c-3.9,1.9-6.5,2.3-19.5,2.6c-16,0.4-19.7-0.4-21-4.3c-0.9-2.8-1.6-2.6-5.5,1.5c-1.9,1.9-3.9,3.5-4.5,3.5
			C640.5,329.1,638.8,328.3,637.3,327.2z"/>
		<path class="st0" d="M603.3,324c-2.1-0.5-13.1-8-15.9-10.8c-2.4-2.4-1.9-5.6,2.3-13.6c3.4-6.3,4.5-7.5,7.8-8.7
			c4.5-1.6,9.3-0.5,13.5,3c2.6,2.2,2.8,2.8,3.4,13.9c0.7,11.6,0.7,11.7-1.9,14.2S607.7,325.1,603.3,324z"/>
		<path class="st0" d="M564.2,305.6c-4.6-2.1-9.3-7.1-9.3-9.8c0-0.9,1.4-3,3.2-4.5l3.2-2.8l-9.3,0.3c-10.5,0.3-12.1-0.5-12.1-6.9
			c0-4.8-1.3-6.6-7-10.1c-2.8-1.7-5-3.4-5-3.7c0.4-1.2,1-2.4,1.7-3.5c1.6-2.7,2-2.8,6.2-2.3c5.4,0.7,8.1,1.9,8.1,3.7
			c0,0.7,2,3.4,4.5,6c3.3,3.5,5.2,4.7,7.4,4.7c2.6,0,3-0.4,3.3-3.6c0.5-3.9-1-5.9-6.5-9.2c-1.5-0.9-2.8-2.2-2.8-2.9s2.2-3,5-5.2
			c3.7-2.9,5.7-3.8,7.8-3.5c1.5,0.2,5.2,0.6,8.2,0.9s6.5,1.2,7.8,2.1l2.4,1.6l-0.6,18.5c-0.3,11-1,19.1-1.6,19.9s-0.8,2.8-0.4,4.8
			c1,5.4-0.8,7.7-5.8,7.6C569.6,307.5,566.8,306.8,564.2,305.6z"/>
		<path class="st0" d="M491.4,299.3c-4.1-2.5-6.8-2.6-9.5-0.1c-0.9,0.8-2.2,1.1-2.8,0.8c-1.5-1,3.9-23.8,5.6-23.4
			c0.7,0.2,1.1-1.6,1.1-5.1c0-6.7,4.7-30.4,6.6-33.4c3-4.6,10.8-0.8,8.2,4c-0.7,1.3-0.7,2.8-0.1,4.1c1.1,2.4,0.8,8.8-0.6,11.4
			c-0.6,1.8-0.9,3.8-0.8,5.7c0.1,3.4,0.5,4,2.5,4.3c2.3,0.1,4.6-0.2,6.8-0.9c4-1.1,4.6-1,6.3,0.7c3.7,3.7,4.6,17.5,1.4,21.9
			c-0.8,1.1-2.4,3.5-3.6,5.3c-4.4,7.2-13.9,9.4-21,5C491.6,299.4,491.5,299.3,491.4,299.3z"/>
		<path class="st0" d="M518.8,299.1c-0.7-1.9-0.5-3.2,0.7-5.2c0.9-1.5,1.7-2.8,1.8-2.9c1.1-0.4,2.1-0.6,3.2-0.8
			c3-0.5,3.3-0.3,5.2,4.1c1.3,2.9,1.7,5,1.2,5.6s-3.2,1.1-6.1,1.3C520.2,301.6,519.6,301.4,518.8,299.1z"/>
		<path class="st0" d="M713.3,267.8c-0.3-0.9-0.4-1.9-0.1-2.8c0.8-1.2-0.6-2.8-3.8-4.5c-2.8-1.5-3.1-1.4-5.3,1
			c-1.7,1.9-2.9,2.3-4.5,1.8c-1.2-0.4-3.3-0.9-4.7-1.2c-1.8-0.6-3.4-1.7-4.7-3.1c-1.8-2.2-2.4-2.4-3.8-1.3c-1,1.1-1.6,2.5-1.6,3.9
			c0,3.4-3.2,5.5-7.2,4.6c-1.7-0.4-8.6-0.7-15.4-0.8c-10.8-0.1-12.7-0.4-15.1-2.2s-2.8-2.9-3.1-7.7c-0.2-3.6,0.2-6.7,1.3-8.6
			c2.4-4.6,8.3-10.1,10.9-10.1c4.3,0,4.9-2.3,1.5-5.6c-5.6-5.3-7.3-10.9-4.7-15.7c1.7-3.2,2.8-3.6,8.3-3.7c6.1,0,10.1,2.9,11.6,8.5
			c0.7,2.3,1.9,4.4,3.4,6.1c2,2,2.8,2.2,4.4,1.3c1.9-1,1.8-1.3-2.4-5.7c-2.5-2.5-5-5.9-5.6-7.4c-1.1-2.6-0.9-3.2,1.5-6.4l2.7-3.5
			h-6.8c-8.5,0-11.3-1.6-11.3-6.6c0.2-2.6,0.9-5.2,2.1-7.5c1.1-2.2,1.8-4.3,1.5-4.6c-1.6-1.6,2.9-6.3,8.9-9.4l6.6-3.4l6.6,3.5
			c8.4,4.4,7.9,4.2,8,2.8c0.1-1,0.4-2,0.8-3c0.4-1,0.3-1.8-0.1-1.9s-2.2-0.2-3.8-0.4c-4.1-0.4-10.9-8-13.2-14.7
			c-1.2-3.5-3-6.7-5.1-9.7c-1.8-2.4-3.3-4.8-3.3-5.2s-0.9-1.1-1.9-1.4c-2.8-0.9-4-5.3-3.2-12.8c0.9-8.7,1.9-9.8,8.3-9.2
			c6.7,0.6,8.5,1.9,15.8,11.5c3.4,4.4,6.3,7.9,6.5,7.8c1.1-1.1-1.6-7.2-4.8-10.9c-5-5.6-4.8-8.7,0.8-11.5c2.7-1.4,5.4-3,8-4.8
			c2.2-1.5,4.8-2.7,5.8-2.7s1.8-0.8,1.8-2c0-1.1,1.8-3.8,4.1-6l4.1-4l-2.6-3.1c-1.4-1.7-2.6-3.8-2.6-4.7s-1.1,0.3-2.3,2.8
			c-6.2,12.2-11,16.4-18.5,16.6c-3.5,0.2-7,0.7-10.4,1.4c-7.9,1.9-11.2,0.7-11.6-4.2c-0.1-2.5,0.3-4.9,1.2-7.2
			c0.8-2,1.2-3.6,0.9-3.6c-1.1,0-4.3,4.3-4.3,5.7c0,0.8-1.2,2.5-2.5,3.8c-2,1.9-3.1,2.2-5.4,1.6c-6.7-1.9-11.6-7.5-9.1-10.5
			c1.1-1.3,0.9-1.5-0.8-1.5c-1,0-1.9,0-2.9-0.2c-1.7-0.3-3.2-3.5-3.2-6.7c0-2.7,0.8-4.1,4-7c4.3-3.9,4.9-5.1,2.5-5.1
			c-1.3-0.3-2.6-1-3.5-2c-1.2-1.1-2.7-1.8-4.3-2c-8.7,0-6.3-9.3,3.3-13c2.7-1.3,5.1-3,7.1-5.2c3.1-3.2,4.3-3.8,7.9-3.8
			c4,0,4.2-0.2,3.6-2.4c-0.5-1.9,0.1-3,2.4-4.9c1.7-1.4,3-3.4,3-4.5c-0.1-2,1.5-3.7,3.5-3.8c0.3,0,0.7,0,1,0.1
			c1.1,0.2,2.5,0.4,3.1,0.4c1.7,0.6,3.2,1.4,4.7,2.5c3.8,2.6,4.7,2.1,4.7-2.8c0-1.2,1.6-4.4,3.5-7.1s3.5-5.7,3.5-6.7s1.8-3.7,4-5.9
			c3.2-3.4,4.5-4.1,6.6-3.7s2.8,0,3.6-2.3c1.1-3.1,5.2-5.1,9.1-4.4c7.5,1.1,9.9,0.9,14.3-1.5c5-2.7,12.7-3.6,15.8-2
			c1.3,0.7,3.6,0.5,7.8-0.8s6.5-1.5,8.1-0.8c1.2,0.5,4.7,0.8,7.8,0.6c7.4-0.5,9.3,0.1,10.8,3.5c1.4,3.1,4.1,4.9,8.7,5.7
			c3.9,0.6,5.5,2.4,6.6,7.2c1.4,6,1.1,11.3-1,18.9c-1.5,5.3-2.7,7.6-5.2,9.7c-1.8,1.5-3.8,2.8-4.5,2.8c-1.8,0-6.9,6.3-9.8,12
			c-1,1.8-1.8,3.7-2.6,5.6c0,1.3,5-3.5,6-5.6c1-1.8,2.3-3.3,4-4.5c1.6-1.1,3-2.3,3-2.7c0-1.1,4.8-0.9,5.5,0.3
			c0.3,0.6,0.6,3.5,0.6,6.6c0,4.2-0.6,6.5-2.4,9.2c-3.7,5.7-6.9,12.2-6.5,13.4c0.2,0.6-1.7,5.9-4.3,11.7s-5.1,11.7-5.7,13
			c-1.3,3.1-3.4,14.1-3.8,19.5c-0.4,5.3-5.1,9.8-9.7,9.3c-2.8-0.3-3.2,0-3.8,3c-0.5,2.1-1.5,4.1-2.9,5.7c-2.1,2.2-10.3,5.8-11.2,4.9
			c-0.2-0.2-1.3,0.5-2.3,1.7c-1.9,2.1-1.9,2.1,0.3,3.6c2.7,1.8,3,5.8,0.6,8.4c-1.3,1.5-1.4,1.9-0.2,1.9c0.8,0.1,1.6,0.2,2.4,0.4
			c0.9,0.2,1.9,0.3,2.8,0.4c1,0.1,3.2,1.6,4.8,3.3c3.7,3.9,4.2,11.1,0.9,13.1c-2.6,1.6-2.5,2.6,0.5,4.9c1.4,1.1,2.5,2.8,2.5,3.9
			c0,1.2-0.9,2.1-2.5,2.5c-2,0.5-2.5,1.2-2.5,3.8c0,4.5-4.5,9.3-9,9.7l-3.5,0.3l0.3,7.5c0.3,6.8,0.1,7.8-2,10
			c-6.2,6.5-6.2,6.6-4.3,9.4c1.3,1.7,2.9,3.2,4.8,4.2c1.6,0.8,3,1.8,4.2,3.1c1.5,2,0.9,7.2-1.4,12.4
			C729.6,265,715.2,273.8,713.3,267.8z"/>
		<path class="st0" d="M526.3,230.3c-2.8-2.8-3.2-7.1-1.4-12.4c1.4-3.9,3.2-4,5.8-0.3c3.9,5.5,4,12.1,0.1,14.2
			C529.2,232.6,528.3,232.4,526.3,230.3z"/>
		<path class="st0" d="M599.9,229c-7.1-3.7-7.9-7.3-2.5-12c4.4-3.9,9.9-4.3,15-1.1c5.6,3.5,5.7,7.9,0.3,12.4
			C609.3,231.1,604.5,231.3,599.9,229z"/>
		<path class="st0" d="M591.2,212.3c-3.3-1.4-4.9-4.3-3.9-7.3c0.3-1.1-0.6-3.1-2.5-5.2c-3.7-4.2-4.4-6.7-3.7-12.8
			c0.6-5.4,3.7-8.7,7.1-7.6c2.8,1.3,5.5,2.8,8,4.5c2.1,1.5,4.3,2.8,6.6,3.9c1.6,0,3,5.6,3,12v6.9l-4.6,3.6
			C596,214.1,595.6,214.2,591.2,212.3z"/>
		<path class="st0" d="M569.5,210.4c-1.2-1.3-3.8-4.1-5.7-6.3c-6.2-7-9.2-8.7-15.5-8.5c-5,0.2-5.9-0.1-8.5-2.8
			c-3.1-3.1-3.8-6.7-1.9-10.2c0.5-1,1.4-1.7,2.5-1.9c1.3-0.3,2.5-1,3.4-1.9c1.7-1.7,1.8-2.5,0.9-5.8c-0.8-2.6-2.4-4.9-4.4-6.6
			c-6.4-5.3-3.7-13.7,4.5-13.7c4.5,0,10.1,3.9,10.1,7c0,1.9,1.4,3.2,3.7,3.6s7.1,5,9.3,9.1c1.1,2.1,2.4,4.2,4,6.1
			c3.4,3.7,3.9,5.5,2.4,9.7c-2,5.7-1.8,7,1.6,10.8c1.7,1.9,3,4.1,3,5c0,2.9-2.2,6.4-4.7,7.6C572.1,212.6,571.4,212.4,569.5,210.4z"
			/>
		<path class="st0" d="M626.9,199.6c-2.2-2.3-4.3-5.1-4.7-6.1c-0.8-1.7-1.8-3.2-3.1-4.6c-3.6-3.9-7.3-11.6-7.3-15.2c0-4,3.9-8,7.7-8
			c2.6,0,6.3-2.8,6.3-4.9c0-0.9-4.9-3.5-6.5-3.5c-0.5,0-3.1,0.4-5.7,0.8c-6,1-9.2,0.2-10.5-2.7c-0.8-1.7-0.7-3,0.4-5
			c0.8-1.6,1-2.7,0.4-2.7c-1.2-0.4-2.2-1.1-3-2c-2.2-2.2-2.6-7-0.9-11.9c1-2.8,1.5-3.1,5.1-3.1s3.9-0.2,3.3-2.2
			c-0.9-1.9-2.1-3.5-3.7-4.8c-2.5-2.2-2.9-3.1-2.3-5.7c0.8-3.7,2.8-5.5,6.4-6c6.2-0.8,6.4-1.5,1.6-6.6l-3.5-3.7l2-4
			c1.2-2.2,2.9-4.1,5-5.5c2.3-1.2,3-2.3,3.2-5.3c0.3-3.5,0.5-3.8,3.8-4.1c3.7-0.3,9.5,2.8,11,5.8c2.2,4.3,4.9,10.8,4.9,11.8
			c0,2.1,4.2,8.7,8.6,13.4c3.2,3.5,4.4,5.5,4.4,7.8s1.2,4.4,5,8.4c4.4,4.6,5,5.8,5,9.5c0,4.5,0.4,5,10,12.9c3.6,3,4,3.9,4,7.7
			s-0.8,5.4-6,12.2c-3.3,4.4-7.1,8.5-8.5,9.3c-1.5,0.7-2.5,2.2-2.5,3.8c0,1.4-1.7,4.7-3.7,7.3c-4.1,5.4-4.8,5.7-9,4.4
			c-1.9-0.6-2.2-0.2-2.5,2.6c-0.3,3.2-0.4,3.3-5.5,3.6S630.8,203.6,626.9,199.6z"/>
		<path class="st0" d="M503.1,183.7c0.3-1.4,0.9-4.2,1.2-6.2s1.1-3.8,1.6-3.8c1.4,0-0.1,9.3-1.9,11
			C502.7,186.1,502.6,186,503.1,183.7z"/>
		<path class="st0" d="M578.8,140.5c-3.4-2.7-5.8-6.8-5.2-9c0.8-3.4,2.3-4.7,5.2-4.7c2.1,0,3.3,1,5.4,4.1c3.2,4.9,3.3,6.3,0.7,8.9
			C582.5,142,581,142.2,578.8,140.5z"/>
	</g>
	<path id="CA-ON" class="st0" d="M778.3,1240.8c1.1-2,2.4-3,5.2-3.4c1.8-0.2,3.5-0.7,5.1-1.5c1.9-1.2,2.8-8.2,1.3-9.1
		c-0.9-0.5-1-1.3-0.3-2.7c0.8-1.8,1.3-3.7,1.6-5.6c0.4-2,1.5-4.3,2.5-5c3.6-2.5,6.8-8.4,6.4-11.9c-0.2-1.9-0.4-7-0.5-11.5
		c-0.2-7.6,0.1-8.5,3.4-14.5l3.6-6.4l-1.8-4c-1-2.2-2.3-4.1-3.9-5.9c-2.1-1.9-2.9-4.6-1.4-4.6c0.4,0,3.4,2.7,6.6,6
		c5.3,5.4,10.7,8.9,16.1,10.4s8.5-7.7,4.5-13.5c-2.6-3.8-13.5-15.7-16.3-17.7c-1-0.8-4.9-1.8-8.5-2.2c-4.1-0.5-8.1-1.3-12.1-2.3
		c-3.9-1.1-9.7-1.6-20.2-1.6c-13.7,0-14.8-0.1-16.2-2.1c-0.8-1.1-3.8-3.3-6.7-4.8c-4.3-2.2-5.3-3.2-5.4-5.4c-0.1-1.5-1.4-4-3-5.7
		c-2.5-2.6-2.6-3.1-1.2-3.6c2.2-0.9,2.1-3-0.4-6.5c-1.5-2.3-2.9-4.7-4-7.3c-1.7-3.9-2.4-4.5-5.8-5c-3.8-0.6-14.5-5.7-17-8.2
		c-0.8-0.7-1.5-3-1.6-5.2c-0.2-2.3-0.5-4.5-1-6.7l-0.8-2.9l-8.1,0.5c-7.5,0.5-8.5,0.3-13.9-2.4l-5.8-2.9l-4.1,2.6
		c-3.8,2.4-4,2.8-2.5,4.2s1,2-5.1,5.9c-3.7,2.4-7.2,5.2-10.3,8.2c-4,4.3-4.5,4.4-18.9,2c-4.8-0.7-9.7-1.2-14.6-1.4
		c-6.7-0.2-13.4-2.6-13.4-4.7c0-0.4-1.2-0.8-2.6-0.8c-1.6,0-4-1.4-6.2-3.5c-3.7-3.5-3.8-3.5-12.9-3.5c-6.6,0-9.6-0.4-10.6-1.4
		c-1.6-1.1-3.4-1.8-5.3-2.1c-5.5-1-6.1-1.7-6.8-8.7c-0.6-5.7-0.9-6.3-3.9-7.8s-3.2-1.8-3.1-7.5c0.1-6.4,1.3-33.2,1.9-42.9
		c0.2-3.3,0.7-13.2,1-21.9c0.8-20-0.9-16.8,22.9-41.6c5-5.2,12-12.8,15.6-16.9s6.9-7.9,7.5-8.5s6.4-7.4,13-15.1s14.2-16.5,17-19.5
		c13.5-14.9,19.5-21.7,21.3-24l2-2.5l3.3,1.9c4.1,2.3,10.8,8.6,10.8,10.1c0,0.6,1.5,2.5,3.3,4.3c2.4,2.3,4.8,3.5,9.2,4.3
		c4.1,0.8,6.9,2,9,4c2.9,2.7,5.4,3.7,10,3.8c1.1,0,4.5,2.3,7.5,4.9l5.5,4.8l18.7,0.6c16.3,0.5,19.3,0.9,22.9,2.7l4.1,2.1l-0.7,8.7
		c-0.4,4.8-1.1,9.1-1.5,9.5s0,2.2,1,4c1.3,2.4,2.1,5,2.5,7.6c1.1,8,1.3,8.8,2.2,10.7c0.5,1,0.8,3.9,0.6,6.4
		c-0.2,3.7,0.3,5.5,2.7,9.3c3.9,6.1,15.9,20.6,17.1,20.6c2.3,0,8.7,8.2,10.5,13.5l1.9,5.7l6.2-0.5l6.2-0.5l0.6,5.1
		c1,8.1,1.4,11.7,2,17.6c0.3,3,0.7,6.6,1,8s0.7,5.2,1,8.5s0.8,7.1,1,8.5c0.5,3.3,1.4,11.3,2.1,17.5c0.3,2.8,0.7,6.6,1,8.5
		c1.5,12,2.5,20.2,3,25.4c0.7,4.3,1.9,8.6,3.6,12.6c2.5,5.7,3.9,7.4,8.8,10.8c6.5,4.6,15.5,7.8,24.6,8.7c3.8,0.3,7.4,1.5,10.6,3.6
		c2.5,1.6,5.5,2.9,6.5,3s3.1,1.7,4.7,3.9l2.7,3.9l8.6-0.5c7.5-0.4,9.5-0.9,14.9-3.9c6.3-3.5,11.4-5.1,11.5-3.6
		c0.3,2.1,0.7,4.2,1.4,6.2c0.5,1.7-0.1,2.8-3.1,5.4c-6.2,5.3-11.4,10.8-18.8,20c-3.8,4.8-7.5,8.7-8,8.8c-1.7,0.1-5.7,3.9-5.1,4.8
		c1.2,1.9-6.8,4.9-13.5,5.1c-11.9,0.4-29.1,7.4-32.8,13.5s-3.6,7.5,0.2,9c1.7,0.8,3.5,1.1,5.4,0.9c1.5-0.4,2.3,0.3,3.6,3
		c2,4.1,1.3,4.7-5.4,4.7c-4,0-15,4.1-17.8,6.7c-1.3,1.2-1.2,1.6,1,3.3l2.5,1.9l-2.8,0.7c-2.4,0.3-4.8,0.2-7.2-0.4
		c-9.5-2.4-11.7-1.3-23.5,11c-6.5,6.8-8,7.9-11,7.9c-1.9,0-5,0.2-6.7,0.4l-3.2,0.3L778.3,1240.8z"/>
	<path id="CA-PE" class="st0" d="M1129.5,1063.1c-0.3-0.3-4.3-0.7-8.8-0.9c-4.7-0.2-9.3-0.9-13.8-2c-6.7-2-8.1-2.3-10-2.4
		c-4.1-0.2-4.5-1.7-2-7c1.3-2.8,3-5.1,3.7-5.1s3.3,2,5.8,4.3c3.6,3.5,4.8,4.1,5.6,3c0.7-0.8,3.1-1.3,6.1-1.3c2.7,0,5.7-0.4,6.6-0.9
		c3.2-1.7,12.1-4,12.6-3.2c0.3,0.4-0.2,2-0.9,3.5c-1,2.3-1.5,4.7-1.6,7.1C1132.5,1062.2,1130.9,1064.5,1129.5,1063.1z"/>
	<g id="CA-QC">
		<path class="st0" d="M927.6,1137c-1-1.9-1.7-4.1-2-6.2c-0.4-3.3-0.6-3.5-4.5-3.8c-4.1-0.3-9.5,1.8-15.4,5.9
			c-2,1.4-4.4,1.9-10.1,1.9c-7.4,0-7.5,0-9.8-3.5c-1.3-1.9-3.2-3.5-4.3-3.5s-4.2-1.4-7-3.1c-3.2-2.1-6.8-3.3-10.6-3.6
			c-8.4-0.7-17.8-3.8-23.6-7.8c-4.2-2.9-5.7-4.8-8.2-10.3c-1.9-4.2-3.1-8.7-3.7-13.2c-0.3-3.6-0.8-7.8-1-9.5s-0.9-7.3-1.5-12.5
			s-1.3-11.1-1.5-13l-1-8c-0.3-2.5-1.9-16.2-3.5-30.5s-3.2-27.2-3.5-28.6c-0.5-2.3-0.2-2.7,2.6-3.2s3.1-0.9,2.5-3.7
			c-0.5-2.4-0.1-4,2.1-7.2c1.5-2.3,2.8-5.3,2.8-6.7s-1.8-6.3-4.1-11c-2-4-3.7-8.2-5.1-12.5c-0.6-2.3-1.6-4.4-2.8-6.4
			c-1.2-1.7-1.6-4-1.5-7.3c0.3-5.2-2.4-10.9-6-12.9c-1.3-0.8-2-2.2-1.9-3.7c-0.2-1.9-0.9-3.7-2-5.2c-0.9-1-1.6-2.2-2-3.5
			c0-1.5,4.8-5.8,10.5-9.3c3-1.9,5.8-4.2,8.2-6.9c1.7-2.1,5.2-6,7.6-8.7c3-3.3,5.7-7.8,8.1-13.8c3.3-8.1,3.7-9.8,3.5-17.4
			c0-5.7-1-11.3-2.9-16.7c-1.5-4.5-3-9.4-3.4-10.9c-1-4.6-10-14.2-16.4-17.7c-7.7-4.1-13.7-10-14-13.9c0-2.4,0.5-4.7,1.5-6.8
			c0.8-1.7,1.5-3.5,2-5.4c0.5-1.3,1.3-2.3,2.3-3.2c1.5-1.3,2-2.8,2-6.4c0-3.4,0.6-5.4,2-6.9c1.8-1.9,1.9-2.4,0.5-6.2
			c-0.8-2.2-1.4-4.4-1.9-6.6c-0.5-3-3.2-8.2-6.2-12.2c-2-2.7-2.3-4.1-2.3-14.3c0-8.2-0.4-11.8-1.4-13c-1.7-2.7-3.1-5.5-4.2-8.5
			l-2.8-6.8l2.6-5.2c2.5-5,2.8-5.3,7.3-5.9c7.5-1,13.9-0.8,18.2,0.8c5.7,2,13.7,2.7,16.9,1.5c2.5-1.3,4.8-3,6.7-5
			c2.2-2.2,4.5-3.9,5-3.9c1.8,0,21.1,10.2,27.5,14.5c4.9,3.2,6,4.5,5.8,6.5c0,1.8,0.5,3.5,1.5,5c1.5,2.3,2.7,2.7,12,3.8
			c5.1,0.6,10.2,1.5,15.1,2.8l4.8,1.6l-0.7,5.5c-0.7,5.3,0.1,8.8,4.7,21.8c0.6,1.9,1,3.8,1,5.8c0.1,2,1,3.9,2.4,5.3
			c1.8,2.1,3.4,4.5,4.5,7l2,4.5l4.9-0.6c4.7-0.6,5.1-0.4,10.2,3.9c2.9,2.5,6.5,4.8,8,5.2s2.7,1.1,2.7,1.6c0,1.9,2.1,0.7,6.4-3.4
			c3.3-3.2,4.6-5.3,5.1-8.4c0.5-2.9,1.3-4.4,2.9-5.1c1.4-0.6,2.8-2.7,3.6-5.4c1.5-4.9,1.4-15.3-0.3-18.3c-0.6-0.9-0.9-1.9-0.8-3
			c0.2-0.5,0.7-3.4,1.3-6.5c0.9-5,3.3-8.5,5-7.5c0.4,0.2,1,2.1,1.3,4.2c0.8,4.7,5.2,12.3,6.9,12.3c1.2,0,4.1,10,3.6,12.5
			c-0.5,2.7,0.3,3.1,5.8,2.7l5.8-0.4l-0.2,6.3c-0.1,3.3-0.5,6.5-1.2,9.7c-0.7,2.2-0.7,4-0.1,5.2c1.2,2.2,6.5,5.6,10.2,6.5
			c3.4,0.8,3.6,1.7,4.3,13.5c0.2,4.9,0.9,9.7,1.9,14.5c0.8,2.8,1.7,6.7,2,8.6c0.4,2.4,1.7,4.5,3.7,5.8c3,2.2,7.9,11,7.9,14.2
			c0.2,1.3,0.9,2.4,1.9,3.3c1.5,1.6,2.7,3.5,3.6,5.5c1.7,3.7,1.7,4-0.4,8.6l-2.1,4.7l-5.2-0.5c-2.9-0.3-6.6-0.8-8.3-1.2
			c-2.7-0.6-3.3-0.3-5.5,2.9c-2.7,3.9-4.4,4.4-7,2c-1-0.9-4.5-2.1-7.8-2.8c-6.7-1.4-7.3-1.1-8.5,3.7c-0.5,1.7-1.6,3.1-3.1,3.9
			c-1.9,0.9-2.5,1.9-2.5,4.5c0,2.4-0.9,4.3-3.1,6.6c-2.7,2.8-3,3.7-2.5,7.3c0.3,2.3,1,4.6,1.9,6.7c2.3,4.4,8.2,10.4,12.3,12.4
			c4.3,2.1,5,4.5,3.1,10.2c-1.1,3.1-1,3.5,1.7,5.8c2.9,2.5,6.4,2.8,12.2,0.8c1.9-0.6,2.2-0.2,2.8,4.5c0.5,3.6,1.5,6,3.2,7.7
			c2.3,2.3,3,2.5,8,1.8c4.5-0.6,5.9-0.4,7.5,1.1c1.1,1,2.3,1.7,3.7,2.1c4.7,0.8,14.9,1.1,16,0.4c0.7-0.4,1.5-2.8,1.7-5.2
			c0.6-5.6,1.3-12.3,1.4-12.7c1.5,0.4,2.9,1.1,4.2,1.8c2.5,1.5,5.4,2,8.2,1.6c4.3-0.6,20.4-6,37.1-12.6
			c25.7-10.1,41.5-15.9,47.4-17.4c3.5-0.9,7-2.1,7.8-2.8s1.7-0.8,2.1-0.2c2.3,2.7,7.1,9.3,7.1,9.7c0,0.3-2.8,2.7-6.2,5.3
			c-9.2,7-14.6,13.2-15.3,17.3c-0.3,1.9-2.5,7.5-5,12.5s-4.9,10.1-5.4,11.5c-1.1,3.1-17.3,11.8-27.6,14.8c-3.8,1.1-12.4,3.6-19,5.5
			c-38.7,11.2-57.4,18.2-60.8,22.9c-1.4,2.3-2.3,4.8-2.8,7.4c-0.5,2.7-1.8,7.9-3,11.6c-1.8,5.9-2.4,6.8-4.5,6.8
			c-4.8,0-14.6,11.2-18,20.5c-1.4,3.5-3,6.8-5,10c-1.7,2.6-2.9,5.5-3.7,8.5c-1.1,8.4-16.5,33.2-24.5,39.6
			c-11.2,9-26.6,25.4-25.2,26.8c0.2,0.2,4.2-3.8,8.9-9c4.7-5.2,9.7-10,15.1-14.3c6.8-5.3,12.7-11.5,17.6-18.6
			c4.1-6,11.3-20.4,11.3-22.5c0.1-1.5,0.5-3,1.1-4.3c1.8-3.5,11-14.8,14.9-18.3c1.9-1.8,5.7-5.2,8.5-7.8c3.4-3,7.1-5.8,11-8.2
			c3.3-2,9.4-6,13.5-8.8c5.2-3.6,9.5-5.7,14-6.8c6.1-1.5,6.9-1.5,12.4,0.2c4.8,1.5,6.2,2.4,7.7,5.2c4,7.6,3.3,12.7-2.4,19.7
			c-5.6,6.8-7.6,8.1-13.5,8.7c-11.5,1.2-21,3.9-24.2,6.8c-4.1,3.8-7.4,4.9-15.3,5.2c-9.5,0.4-10,1-9.2,11.1l0.6,8.2l-3.8,0.6
			c-2.2,0.3-4.4,0.4-6.5,0.1c-1.7-0.5-3.4,0.2-4.3,1.8c-2,2.8-6.2,16.6-7,22.8c-0.3,2.5-1,7.4-1.5,11s-1.2,8.4-1.4,10.8
			c-0.8,7.7-3.8,14.3-7.7,17.1c-2.2,1.6-4.2,3.6-5.9,5.8c-1.2,1.8-3.2,3.5-4.4,3.7s-9.4,2-18.3,4s-18.6,3.6-21.5,3.6
			C929.8,1139.7,929.1,1139.4,927.6,1137z"/>
		<path class="st0" d="M1090.8,983.9c-1.8-0.4-3.5-1.1-5-2.1c-2.6-1.4-5.3-2.4-8.2-3c-7.1-1.5-8.5-4.1-4.2-7.7
			c2.3-1.9,4.2-2.4,9.4-2.5c13.7-0.3,18.6,0.3,27.8,3.3s9.2,3.2,9.2,6.4c0,3.8-0.4,4-11.5,4.9
			C1096.2,984.3,1093.5,984.4,1090.8,983.9z"/>
	</g>
	<path id="CA-SK" class="st0" d="M448.7,1050.3c-2.8-0.6-5.6-0.9-8.4-1.1c-4.4-0.4-9.1-0.8-10.5-1s-5.4-0.7-9-1s-7.6-0.8-9-1
		s-5.4-0.7-9-1s-17.5-3.1-31-6.2l-26-5.8c-4.5-1-7.1-1.6-13-2.9c-3.6-0.8-7.4-1.7-8.5-1.9s-5.5-1.2-9.8-2.1
		c-6.3-1.4-7.7-2.1-7.3-3.4c0.5-1.5,8.3-33.8,9-37.1c0.2-0.8,1.7-7.3,3.5-14.5s4.8-19.8,6.7-28s5.8-24.2,8.5-35.5s5.2-21.4,5.4-22.5
		s1.8-7.6,3.4-14.5s5.1-21.1,7.6-31.5s6.1-25.3,7.9-33l7-29.2l3.8-15.2l5.2,0.4c2.9,0.2,7.4,0.8,10.1,1.2c4.2,0.4,8.5,0.3,12.7-0.2
		c7.3-0.9,8.1-0.8,13.8,1.8s8.1,2.7,8.1,0.6c0-1.1-21.2-11.5-26.5-12.9c-2-0.6-4.1-0.9-6.2-1.1c-1.6-0.2-3.1-0.9-4.2-2
		c-2.2-2.2-5.1-2.5-8.1-1c-2.3,1.2-2.3,0.9-0.8-6c0.9-4,1.5-5,2.8-4.6c1.5,0.4,8.5,1.9,15.2,3.1c1.3,0.2,3.3,0.7,4.4,0.9
		c3.3,0.7,44.8,8.8,47.5,9.2c1.4,0.2,7.9,1.5,14.5,2.8s13.8,2.6,16,2.8c3.9,0.4,4,0.5,3.9,3.8c-0.1,1.9-1.3,11.8-2.7,21.9
		s-2.9,20.8-3.2,23.5c-0.6,4.9-1.8,7.5-3.5,7.5s-7.5,6.6-8.8,9.8c-0.9,2-1,4.3-0.2,6.4c2.2,7,1.8,10.5-1.6,14
		c-2.2,2.3-2.9,3.7-2.3,4.7c0.7,1.1,1.5,0.9,4-1.3c1.7-1.5,3.8-2.7,4.6-2.7c1.5,0,1.5,3.2-0.1,23c-0.2,3-0.7,9.5-1,14.5
		s-0.8,11-1,13.5s-0.7,9-1,14.5s-0.8,11.6-1,13.5s-0.7,8.5-1,14.5s-0.8,12.1-1,13.5s-0.7,7.9-1,14.5s-0.8,12.7-1,13.5s-0.6,7.1-1,14
		s-0.9,13.2-1,14s-0.6,7.1-1,14c-0.4,6.9-0.9,13.3-1.1,14.3s-0.4,4.7-0.5,8.2C451.5,1050,450.5,1052,448.7,1050.3z"/>
	<path id="CA-YT" class="st0" d="M189.2,672.4c-1.1-0.7-5.3-2.8-9.4-4.7c-6.3-2.8-28-14.1-63.7-33c-11.3-6-52.8-31.8-83.6-51.9
		c-10.9-7.1-15.8-10.9-15.8-12.2c0-2.5,3.1-7.4,6.3-9.9c5.8-4.6,2.5-7.5-8.9-7.9c-2.3-0.1-3.3-0.7-3.7-2.1c-0.3-1.1-0.9-1.9-1.4-1.8
		c-1.9,0.5-5.3-1.4-5.9-3.3c-0.5-1.5,1.9-5.8,9.3-16.7c13.8-20.3,39.2-58,58.9-87.2c15.7-23.2,35.9-53.2,63.2-93.7l12.3-18.2
		l3.2,1.1c6.6,2.3,8.5,4.5,9.2,10.9c0.5,3.6,1.5,7.2,3,10.5c1.3,2.7,2.4,5.5,3,8.5c0.5,2.8,1.7,4.8,4.7,7.4c3.7,3.2,3.9,3.6,2.6,5.2
		c-2.1,2.5-12.2,19-14.6,23.8c-1.4,3.1-2.7,6.3-3.8,9.5c-1.1,3.4-2.5,6.8-4,10c-4.4,8.8-4.6,8.1,6,16.1c7.3,5.5,9.6,7.7,9.6,9.5
		c0,1.3-1.6,5.4-3.6,9.2c-2.1,3.8-3.5,8-4.1,12.4c-0.5,5.4-0.4,5.6,3.1,8.3c3.9,3,3.7,2.1,2.6,13.8c0,0.4-1.4,1-3,1.3
		c-3.4,1-5.8,3.9-6.1,7.4c-0.3,1.9-1,3.8-2,5.4c-2.2,3.7-1.7,7,1.4,9.6c1.1,1,1.4,2.4,1.1,5.3c-0.5,2.5,0.1,5.1,1.7,7.1
		c1.6,2.2,2.3,4.7,2.4,8.7c0.1,3.1,0.7,6.1,1.9,9c1.7,3.3,1.7,3.7-0.3,10.5c-2.5,8.4-4,17-4.6,25.8c-0.2,3.7-0.8,7.3-1.7,10.8
		c-1,2.8-0.8,3.5,1.4,5.8c3.3,3.6,4.3,5.6,6.2,13.2c1.1,4,2.6,7.9,4.5,11.7c2,3.8,2.4,5.3,1.5,5.7c-0.7,0.3-1.5,2.7-1.8,5.3
		c-0.3,2.6-0.7,5.1-1.2,7.6c-0.9,3.3,0.4,4.6,8.5,8.3c3.2,1.5,6.4,3.2,9.4,5.2c2.1,1.5,5,2.7,6.5,2.7h2.6l-0.3,10.4
		c-0.1,5.8-0.4,10.6-0.6,10.7S190.3,673.1,189.2,672.4z"/>
</g>
</svg>
