<svg id="Layer_1" data-name="Layer 1" xmlns="http://www.w3.org/2000/svg" viewBox="0 0 109.46 160.6">
  <title>deer_</title>
  <g id="Original">
    <path d="M39.88,31.66c-4.25,0-8.48-.65-12,1.16C25,34.29,19.61,34.16,16.3,34.16c-1.57,0,1.46,3.56,1.41,4.76-.13,3.47,6.9,4.23,9,5.14,3.31,1.4,1.93,3.64,2.21,6.52.75,7.67-2.08,13.17-4.78,20-.82,2.07-2.41,5-2.21,7.28.36,4.16-6.17-.66-8.08-1.33-2.92-1-8.39-2.46-11.47-1.2-4,1.62-2.35,5.16-.26,7.47,4,4.43.53,7.91,1.73,12.56.43,1.66,7.79,9.32,9,8.31,3.85-3.32-1.39-5-2.75-7.5C9.49,95,8.62,83.74,8.87,83.76c1.15.08,3.73,2.11,4.81,2.63A60.37,60.37,0,0,1,23,91.74,127.89,127.89,0,0,0,42.1,98.68C51.08,101,59.41,102,68,106c4.91,2.28,4,7.28,7.74,11s9,6,13.23,9A28.85,28.85,0,0,1,97.33,136c2.22,4.28,1.74,10,2.5,14.68.53,3.24,4.54,5.65,6.46,8.18,4.17,5.5,3.56-3.75,1.86-4.45-3.19-1.32-4.17-7.79-4.35-11-.29-5.1,1.76-9.11-1.89-13.09-6.81-7.44-12.43-16.16-7.21-26.6,2.18-4.35-3.52-8.25,2.23-9.37,2.61-.51,5.55,0,7.39-2.33,2.31-2.94.74-6.69-1.38-9.24a2.71,2.71,0,0,0-1-.89c.37,0,0,5.07-1,5.72-2.11,1.45-5.41,4-8.1,4-2.31.07-6.14-2.49-7.67-4-1.12-1.12-5-1.5-6.61-1.83a55.52,55.52,0,0,1-10.59-3,65.05,65.05,0,0,1-13.46-7.1c-10-7.15-11.8-19.56-10.53-31.22.27-2.51-.85-6.44.6-8.58.34-.51,1.9-.36,2.5-.89a14.8,14.8,0,0,0,2.76-4.23c1.25-4.22-5.52,1.21-4.54,1.15-1.47.1,1.67-9,1.85-9.36.36-.73,5.3-9.45,2.32-9.35-1.87.06-.95,5.45-3.16,5C44,17.75,40.52,11.4,41.57,9c1.83-4.19-1.82-5.11-2.35-1.45-.1.71,1.68,5.87-1.06,5.1S35.74-.13,34.37,0c-2.39.22-.31,10.84-1,12.18-.22.41-3.68-3.52-3.9-4.46-1-4.16-1.43-2.61-2.59,0-1.54,3.5,10.29,9.67,12.42,10.91,1.7,1,3.1,1.84,3.68,3.82.51,1.73,1.13,4.09,0,5.71-.83,1.16-3,1.79-3,3.47" transform="translate(0 0.01)"/>
  </g>
</svg>
