<svg id="svg10395" xmlns="http://www.w3.org/2000/svg" viewBox="0 0 316.8 380.69">
  <title>eagle_</title>
  <path id="path10416" d="M22.4,316.47c2.66-2.21,6.64-5.31,12-4.87s17.27,1.33,21.69.44,8,.44,9.3-3.1,1.77-15.05,5.31-19.48,13.28-9.3,14.61-13.73,1.77-6.2,0-10.63S79.52,256.69,73.76,254s-11.07-4.43-11.07-4.43-11.51,10.63-12,13.28.89,5.31-1.77,6.64-7.08-2.66-8-9.74,2.21-15.5,1.77-20.37-3.54-9.3-.89-14.17,8.86-12.4,13.73-15.94,13.28-4,14.61-8.41-8.41-21.25-8.41-25.24S63.14,164.16,60,158s-6.64-19.48-19.92-27.89-22.58-12-24.79-18.15-.44-6.2,2.21-8S10.45,92,7.35,82.25s-8.41-29.22-6.2-31,8.86,0,10.18,3.54S18,80,18,80s-1.33-16.38.89-21.25,4.87-9.74,7.53-8.41,1.33,30.11,1.33,30.11,2.66-6.64,4.43-10.63,3.1-7.53,5.31-5.31S37.9,88,37.9,88s3.54-5.31,6.2-6.64,4-2.21,5.76.89a13.26,13.26,0,0,1,1.33,7.08s1.33-4.43,4.43-4.43,7.08,1.33,5.76,4.87,12,.44,11.07,6.64,0,12,3.54,12,5.76,4.87,12.84,3.1c4.43,2.66-2.21,19,.89,16.82s10.18-4,12.84.89-3.54,10.63,0,15.05,0,8.41,5.31,12,5.76.89,7.08,8.86,1.33,11.51,3.54,14.61,4.87,5.31,4.43,12-4.43,12.84.89,12,7.53-6.2,11.51-8.41a64.09,64.09,0,0,0,10.18-6.64c5.31-4,6.2-9.3,9.3-10.63s5.76-.89,10.18-2.66,8.86-5.76,11.07-7.53,2.21-2.66,6.2-6.2,8-5.76,10.63-11.51,2.21-6.2,5.31-14.61,2.21-11.07,4-14.61,1.77-6.64,4.87-9.74,5.76-6.64,6.2-3.54a81.84,81.84,0,0,1,.44,10.18c0,2.66,4-4,7.53-10.63s1.77-7.53,3.1-13.28,0-9.74.44-16.38,1.33-7.08,1.77-16.82,1.23-11.38,1.23-18.46-.26-9.95-.34-15.19c1.54-4,3.26-5.25,4.43-4.87,1.44.38,3.37.41,4.53,5.76.89,5.76,1.68,10,2.56,20.81-.89,10.63-1.33,19.92.44,22.58s3.1,2.21,4.43-.89,1.33-4.43,3.1-9.74,1.66-8.79,2.57-16.21c-.44-11.07.09-16.11.53-24.52s0-8.66.89-13.73c.8-4.8,1.92-5.94,5.76-5.31,2.21,2.66,2.66,9.3,3.54,15.05s.89,5.31,1.33,15.94.06,14.87-.82,18.41c-.21,3.95-1,7.87-.5,9.48,2.66-1.77,2.66-4.87,5.31-11.07s4.87-11.51,5.76-18.6,3.25-9.68,4.76-17.48C279.53,5,280.31,3.18,282.74,3c2.57,1.84,3.79,3.51,3.54,9.3-1.33,6.2-1.33,9.3-3.54,15.5s-1.77,8.86-4.87,15.5c-1.88,5.83-2.11,7.81-3.1,9.74,4.43.44,4.37-1.32,7.08-4.43,4.48-8.52,2.78-6.73,4.43-9.3,2.46-5.14,4.56-7,6.64-6.2,2.21,3.54,3.1,4.43,1.33,8.41s-.44,1.33-3.1,7.08-5.31,8-1.77,7.53,4,0,6.2-3.54,0-4,4.87-6.2,8-6.2,9.3-3.1,1.77,2.66-1.33,7.08-6.2,5.76-4.87,8S308.42,61,311.08,61s3.1.44,1.77,4.87-1.77,4.43-2.21,6.64,1.77,4,1.77,4,4-2.66.89,4-4.87,4.87-6.64,8-3.54,6.2-.89,6.2,5.31-.44,4.87,1.77-4.43,4.43-2.21,5.76,4-.44,5.76,1.33,0,4.87,0,7.08-.44,4,.44,6.2,2.66,4.43,1.33,6.64.44,2.66-3.1,4.87-5.76,1.77-5.76,4-.44,1.77,1.77,3.54,4.87.44,3.1,4.43-1.33,3.54-2.21,7.08.44,1.77-3.54,10.18-8,14.61-12,16.82-3.1,7.08-.44,8,3.1,4.87.44,10.63-5.76,13.28-6.64,17.27-1.77,4.43-6.2,9.3-8,9.3-12,10.63-4.43,5.76-7.08,8-3.54,3.54-9.3,3.54-5.76-1.33-11.51.44-8.41,3.54-8.86,6.2-2.21,4-5.76,3.1-.89,1.77-5.31,3.54-3.1,4-8.41,3.54-8-4.43-9.3,0-1.77,8-7.53,4-8.86-14.61-12-3.54-3.1,13.73.44,16.82,4.43,5.76,12.4,8.86,8,6.64,13.73,8.86,6.2,3.1,15.05,7.53,11.07,5.76,16.38,8.86,6.64,6.2,8,9.3,7.08,6.64,4.87,11.07-6.64,1.77-6.64,4,.89,4-.89,8.41-1.33,6.2-7.53,8-9.74,2.66-12.84,1.33-4,4-7.08,2.66-4.43-5.31-6.64-3.1,1.77,3.54-3.54,4.87-5.76-2.21-6.2.89,1.33,6.2-4.43,3.1-4-9.3-8.41-4.87-2.21,9.74-10.18,5.31-5.31-4.87-11.51-4.43-6.2.89-8.41-4,2.21-3.54-7.53-4-4.87,5.76-11.07-2.66-7.53-16.82-10.18-7.53,0,11.51-4,14.17-24.35,1.77-24.35,1.77-.44,10.18-2.21,12-6.2-1.77-10.18,1.77-1.33,5.76-4.87,8.86S76,380.22,76,380.22s4.87-4,6.2-7.53,3.1-9.74,3.1-9.74-7.08,2.66-10.18,3.1a31.85,31.85,0,0,1-8-.44l1.33,10.18s-8.41,0-8.41-3.54,2.66-13.28,4.87-14.61a9.3,9.3,0,0,1,5.31-.89s-.89-4.43,1.33-5.31,3.54,0,7.08,0,19.48-4.87,19.48-4.87-.44-11.51,1.33-16.38,10.18-18.6,6.2-20.81-7.08-.44-9.3,1.77-6.2,8.86-14.61,10.63-15.05,2.66-15.05,2.66-1.77.89-1.77,4.43,3.1,7.08-1.33,11.51-8,8.41-12.84,6.2S45,341.7,45,341.7s3.54,2.21,9.3.89,3.54-12.4,3.1-14.61-4.87-4.43-7.53-2.21-6.2,8-4,10.18-6.2-4.87-5.76-8a15.64,15.64,0,0,1,1.77-5.31s-5.76,0-9.3-.44-6.2-2.21-6.2.44,1.77,14.61-2.21,7.08S18.42,320.45,22.4,316.47Z" transform="translate(-0.12 -0.13)" stroke="#000"/>
</svg>
