<svg id="Your_Icon" data-name="Your Icon" xmlns="http://www.w3.org/2000/svg" viewBox="0 0 94.9 39.25">
  <title>fish_</title>
  <path d="M96.81,50.58a12.52,12.52,0,0,1-2.28.2,1.88,1.88,0,0,1,0-.2,11.29,11.29,0,0,0,2-.92c.32-.32.79-.69.57-1.21A4.26,4.26,0,0,0,95,46.14a27.92,27.92,0,0,0-3.21-1.74C90.62,43.9,89,42,73,39c-5.91-1.13-11.9-1.65-12.15-1.84-5.53.1-11.1-6.19-12.8-6.69-.26-.17-.46.51-.59.51h0c-.16,1-.61,8.46.3,8.74-1,.31-2.11.27-3.16.5-1.72.33-10.45,3-14.92,4a27,27,0,0,1-4.82.24,19.59,19.59,0,0,1-4.56-.76c-1.82-.52-16.44-6.64-16.54-6.13C3.8,41.64,6,44.39,7.51,48a6.7,6.7,0,0,1,.2,1.58c-.86,2.79-4.11,5.21-4.91,8.1a4.05,4.05,0,0,1-.44,1.55c.67,0,1.34.08,2,.07,1.47-.17,10.06-2.34,11.38-2.65s2.5-.85,3.78-1.16c.73-.17,1.38-.55,2.1-.67A19.29,19.29,0,0,1,26,54.6,27.4,27.4,0,0,1,29,55a95,95,0,0,1,9.72,2.37c2.21.17,10.58,3.58,11.37,3.75-1.29,2.1-1.15,3.25-1.48,5.75A2.91,2.91,0,0,0,49,69.5a.86.86,0,0,0,1,.07c4.53-4.81,9.6-6.67,9.82-7.35a73.08,73.08,0,0,0,8.29.06C83.35,62.12,93.9,54,94.87,53.52A5,5,0,0,0,97,51.84.78.78,0,0,0,96.81,50.58Zm-9.2-.48a1.62,1.62,0,1,1,1.62-1.62A1.62,1.62,0,0,1,87.6,50.1Z" transform="translate(-2.36 -30.46)"/>
</svg>
